{
.appVersion = "1352";
DisplayStrings = (
"a/Placeholder a/space b/Placeholder b/space c/Placeholder c/space d/Placeholder d/space e/Placeholder e/space f/Placeholder f/space g/Placeholder g/space h/Placeholder h/space i/Placeholder i/space jjj/space k/Placeholder k/space l/Placeholder l/space m/Placeholder m/space n/Placeholder n/space o/Placeholder o/space p/Placeholder p/space q/Placeholder q/space r/Placeholder r/space s/Placeholder s/space t/Placeholder t/space u/Placeholder u/space v/Placeholder v/space w/Placeholder w/space x/Placeholder x/space y/Placeholder y/space z/Placeholder z\012nn/Placeholder no/Placeholder oo\012abcdefghijklmnopqrstuvwxyz\012fear/space fall/space kilo/space long/space ovoide/space want/space wind/space oxo/space zapato\012Twombli/space Tgmaiwan/space Taiwan/space Tomato/space Temperture/space Tiro/space Twardock/space Walking/space Wonder/space Wc/space Wd/space/space Wrcnder/space/space You/space Family/space Fear/space Furor/space Vocal/space Viajar/space Zusam/space Pearl/space Point/space Pain/space Ayuda/space \012Kilo/space Londres/space Leon/space Lio/space Month\012abcdefghijklmnopqrstuvwxyz",
"HH/Placeholder HO/Placeholder OO\012A/Placeholder A/space B/Placeholder B/space C/Placeholder C/space D/Placeholder D/space E/Placeholder E/space F/Placeholder F/space G/Placeholder G/space H/Placeholder H/space I/Placeholder I/space/space J/Placeholder J/space K/Placeholder K/space L/Placeholder L/space M/Placeholder M/space N/Placeholder N/space O/Placeholder O/space P/Placeholder P/space Q/Placeholder Q/space R/Placeholder R/space S/Placeholder S/space T/Placeholder T/space U/Placeholder U/space V/Placeholder V/space W/Placeholder W/space X/Placeholder X/space Y/Placeholder Y/space Z/Placeholder Z/space HH/Placeholder HO/Placeholder OO\012ABCDEFGHIJKLMNOPQRSTUVWXYZ\012ABCDEFGHIJKLMNOPQRSTUVWXYZ/space Feo",

glyphs = (
{
glyphname = .notdef;
lastChange = "2021-11-05 21:19:16 +0000";
layers = (
{
background = {
paths = (
{
closed = 1;
nodes = (
"63 0 LINE",
"438 0 LINE",
"438 721 LINE",
"63 721 LINE"
);
},
{
closed = 1;
nodes = (
"252 314 LINE",
"371 63 LINE",
"133 63 LINE"
);
},
{
closed = 1;
nodes = (
"125 582 LINE",
"225 371 LINE",
"125 160 LINE"
);
},
{
closed = 1;
nodes = (
"279 371 LINE",
"375 573 LINE",
"375 169 LINE"
);
},
{
closed = 1;
nodes = (
"143 659 LINE",
"361 659 LINE",
"252 428 LINE"
);
}
);
};
layerId = "5D3CF454-A725-4551-B6FA-6F6FD8C18533";
paths = (
{
closed = 1;
nodes = (
"63 0 LINE",
"438 0 LINE",
"438 721 LINE",
"63 721 LINE"
);
},
{
closed = 1;
nodes = (
"252 314 LINE",
"371 63 LINE",
"133 63 LINE"
);
},
{
closed = 1;
nodes = (
"125 582 LINE",
"225 371 LINE",
"125 160 LINE"
);
},
{
closed = 1;
nodes = (
"279 371 LINE",
"375 573 LINE",
"375 169 LINE"
);
},
{
closed = 1;
nodes = (
"143 659 LINE",
"361 659 LINE",
"252 428 LINE"
);
}
);
userData = {
assembly = "NPUSHB[ ]	/* 31 values pushed */\0121 8 8 64 9 2 7 4 5 1 0 6 5 5 3 2 5 4 7 0 7 6 7 1 2 1 3 0 1 0 70 \012SROUND[ ]	/* SuperRound */\012MDAP[1]	/* MoveDirectAbsPt */\012SHZ[1]	/* ShiftZoneByLastPoint */\012RTG[ ]	/* RoundToGrid */\012SVTCA[0]	/* SetFreedomAndProjectionVectorToAxis */\012MDAP[1]	/* MoveDirectAbsPt */\012ALIGNRP[ ]	/* AlignRelativePt */\012MDAP[1]	/* MoveDirectAbsPt */\012ALIGNRP[ ]	/* AlignRelativePt */\012SRP0[ ]	/* SetRefPoint0 */\012MIRP[11101]	/* MoveIndirectRelPt */\012ALIGNRP[ ]	/* AlignRelativePt */\012SRP0[ ]	/* SetRefPoint0 */\012MIRP[11101]	/* MoveIndirectRelPt */\012ALIGNRP[ ]	/* AlignRelativePt */\012SVTCA[1]	/* SetFreedomAndProjectionVectorToAxis */\012MDAP[1]	/* MoveDirectAbsPt */\012ALIGNRP[ ]	/* AlignRelativePt */\012MIRP[11101]	/* MoveIndirectRelPt */\012ALIGNRP[ ]	/* AlignRelativePt */\012MDAP[1]	/* MoveDirectAbsPt */\012ALIGNRP[ ]	/* AlignRelativePt */\012MIRP[11101]	/* MoveIndirectRelPt */\012ALIGNRP[ ]	/* AlignRelativePt */\012SVTCA[0]	/* SetFreedomAndProjectionVectorToAxis */\012IUP[1]	/* InterpolateUntPts */\012IUP[0]	/* InterpolateUntPts */\012SVTCA[1]	/* SetFreedomAndProjectionVectorToAxis */\012MD[0]	/* MeasureDistance */\012ROUND[00]	/* Round */\012PUSHW[ ]	/* 2 values pushed */\0120 8 \012MD[0]	/* MeasureDistance */\012ROUND[00]	/* Round */\012SUB[ ]	/* Subtract */\012PUSHB[ ]	/* 1 value pushed */\01264 \012GT[ ]	/* GreaterThan */\012IF[ ]	/* If */\012SHPIX[ ]	/* ShiftZoneByPixel */\012SRP1[ ]	/* SetRefPoint1 */\012SHZ[1]	/* ShiftZoneByLastPoint */\012PUSHW[ ]	/* 2 values pushed */\0128 -64 \012SHPIX[ ]	/* ShiftZoneByPixel */\012EIF[ ]	/* EndIf */";
};
width = 500;
}
);
note = .notdef;
},
{
glyphname = A;
lastChange = "2021-11-06 00:19:32 +0000";
layers = (
{
background = {
paths = (
{
closed = 1;
nodes = (
"-24 -74 OFFCURVE",
"-19 -71 OFFCURVE",
"-16 -65 CURVE SMOOTH",
"-7 -51 OFFCURVE",
"-1 -40 OFFCURVE",
"3 -33 CURVE SMOOTH",
"27 3 OFFCURVE",
"59 43 OFFCURVE",
"99 87 CURVE SMOOTH",
"116 106 OFFCURVE",
"152 144 OFFCURVE",
"206 199 CURVE",
"299 214 OFFCURVE",
"407 223 OFFCURVE",
"530 226 CURVE",
"525 206 OFFCURVE",
"520 191 OFFCURVE",
"517 181 CURVE SMOOTH",
"501 124 OFFCURVE",
"487 66 OFFCURVE",
"476 7 CURVE SMOOTH",
"470 -22 LINE",
"470 -34 OFFCURVE",
"476 -40 OFFCURVE",
"489 -40 CURVE SMOOTH",
"498 -40 OFFCURVE",
"503 -35 OFFCURVE",
"503 -25 CURVE SMOOTH",
"503 -28 LINE",
"520 69 OFFCURVE",
"541 153 OFFCURVE",
"568 224 CURVE",
"591 224 OFFCURVE",
"602 230 OFFCURVE",
"602 242 CURVE SMOOTH",
"602 253 OFFCURVE",
"593 258 OFFCURVE",
"576 258 CURVE",
"620 387 LINE SMOOTH",
"660 504 OFFCURVE",
"680 573 OFFCURVE",
"680 593 CURVE SMOOTH",
"680 604 OFFCURVE",
"675 609 OFFCURVE",
"666 609 CURVE SMOOTH",
"662 609 OFFCURVE",
"659 608 OFFCURVE",
"658 607 CURVE",
"508 525 OFFCURVE",
"352 400 OFFCURVE",
"191 232 CURVE",
"167 227 OFFCURVE",
"149 223 OFFCURVE",
"137 221 CURVE",
"137 222 LINE",
"128 222 OFFCURVE",
"123 218 OFFCURVE",
"123 209 CURVE SMOOTH",
"123 196 OFFCURVE",
"129 190 OFFCURVE",
"140 190 CURVE SMOOTH",
"143 190 OFFCURVE",
"148 191 OFFCURVE",
"155 192 CURVE",
"46 85 OFFCURVE",
"-21 5 OFFCURVE",
"-46 -50 CURVE SMOOTH",
"-47 -52 OFFCURVE",
"-47 -55 OFFCURVE",
"-47 -58 CURVE SMOOTH",
"-47 -69 OFFCURVE",
"-41 -74 OFFCURVE",
"-30 -74 CURVE SMOOTH"
);
},
{
closed = 1;
nodes = (
"246 239 LINE",
"358 367 OFFCURVE",
"491 475 OFFCURVE",
"646 564 CURVE",
"627 505 OFFCURVE",
"612 461 OFFCURVE",
"601 432 CURVE SMOOTH",
"582 378 OFFCURVE",
"562 320 OFFCURVE",
"542 259 CURVE",
"421 256 OFFCURVE",
"323 250 OFFCURVE",
"246 240 CURVE"
);
}
);
};
layerId = "5D3CF454-A725-4551-B6FA-6F6FD8C18533";
paths = (
{
closed = 1;
nodes = (
"-24 -74 OFFCURVE",
"-19 -71 OFFCURVE",
"-16 -65 CURVE SMOOTH",
"-7 -51 OFFCURVE",
"-1 -40 OFFCURVE",
"3 -33 CURVE SMOOTH",
"27 3 OFFCURVE",
"59 43 OFFCURVE",
"99 87 CURVE SMOOTH",
"116 106 OFFCURVE",
"152 144 OFFCURVE",
"206 199 CURVE",
"299 214 OFFCURVE",
"407 223 OFFCURVE",
"530 226 CURVE",
"517 181 OFFCURVE",
"502 133 OFFCURVE",
"478 17 CURVE SMOOTH",
"473 -5 OFFCURVE",
"470 -18 OFFCURVE",
"470 -22 CURVE SMOOTH",
"470 -33 OFFCURVE",
"475 -40 OFFCURVE",
"487 -40 CURVE SMOOTH",
"498 -40 OFFCURVE",
"502 -33 OFFCURVE",
"505 -19 CURVE SMOOTH",
"520 69 OFFCURVE",
"542 155 OFFCURVE",
"568 224 CURVE",
"591 224 OFFCURVE",
"602 230 OFFCURVE",
"602 242 CURVE SMOOTH",
"602 253 OFFCURVE",
"593 258 OFFCURVE",
"576 258 CURVE",
"620 387 LINE SMOOTH",
"660 504 OFFCURVE",
"680 573 OFFCURVE",
"680 593 CURVE SMOOTH",
"680 604 OFFCURVE",
"675 609 OFFCURVE",
"668 609 CURVE SMOOTH",
"661 609 OFFCURVE",
"652 604 OFFCURVE",
"640 597 CURVE SMOOTH",
"503 519 OFFCURVE",
"352 400 OFFCURVE",
"191 232 CURVE",
"167 227 OFFCURVE",
"153 225 OFFCURVE",
"140 223 CURVE SMOOTH",
"127 221 OFFCURVE",
"123 217 OFFCURVE",
"123 209 CURVE SMOOTH",
"123 196 OFFCURVE",
"129 190 OFFCURVE",
"140 190 CURVE SMOOTH",
"143 190 OFFCURVE",
"148 191 OFFCURVE",
"155 192 CURVE",
"46 85 OFFCURVE",
"-21 5 OFFCURVE",
"-46 -50 CURVE SMOOTH",
"-47 -52 OFFCURVE",
"-47 -55 OFFCURVE",
"-47 -58 CURVE SMOOTH",
"-47 -69 OFFCURVE",
"-41 -74 OFFCURVE",
"-30 -74 CURVE SMOOTH"
);
},
{
closed = 1;
nodes = (
"359 367 OFFCURVE",
"491 475 OFFCURVE",
"646 564 CURVE",
"627 505 OFFCURVE",
"612 461 OFFCURVE",
"601 432 CURVE SMOOTH",
"582 378 OFFCURVE",
"562 320 OFFCURVE",
"542 259 CURVE",
"421 256 OFFCURVE",
"324 250 OFFCURVE",
"247 240 CURVE"
);
}
);
userData = {
assembly = "NPUSHB[ ]	/* 40 values pushed */\0121 61 61 64 62 15 59 52 26 25 7 6 2 0 59 53 52 48 36 30 26 25 21 19 15 7 6 4 0 19 6 36 13 46 1 28 1 1 48 70 \012SROUND[ ]	/* SuperRound */\012MDAP[1]	/* MoveDirectAbsPt */\012SHZ[1]	/* ShiftZoneByLastPoint */\012RTG[ ]	/* RoundToGrid */\012SVTCA[0]	/* SetFreedomAndProjectionVectorToAxis */\012MIAP[1]	/* MoveIndirectAbsPt */\012MIAP[1]	/* MoveIndirectAbsPt */\012MDAP[1]	/* MoveDirectAbsPt */\012MDAP[1]	/* MoveDirectAbsPt */\012MIRP[11101]	/* MoveIndirectRelPt */\012SVTCA[1]	/* SetFreedomAndProjectionVectorToAxis */\012MDAP[0]	/* MoveDirectAbsPt */\012MDAP[0]	/* MoveDirectAbsPt */\012MDAP[0]	/* MoveDirectAbsPt */\012MDAP[0]	/* MoveDirectAbsPt */\012MDAP[0]	/* MoveDirectAbsPt */\012MDAP[0]	/* MoveDirectAbsPt */\012MDAP[0]	/* MoveDirectAbsPt */\012MDAP[0]	/* MoveDirectAbsPt */\012MDAP[0]	/* MoveDirectAbsPt */\012MDAP[0]	/* MoveDirectAbsPt */\012MDAP[0]	/* MoveDirectAbsPt */\012MDAP[0]	/* MoveDirectAbsPt */\012MDAP[0]	/* MoveDirectAbsPt */\012MDAP[0]	/* MoveDirectAbsPt */\012MDAP[0]	/* MoveDirectAbsPt */\012SVTCA[0]	/* SetFreedomAndProjectionVectorToAxis */\012MDAP[0]	/* MoveDirectAbsPt */\012MDAP[0]	/* MoveDirectAbsPt */\012MDAP[0]	/* MoveDirectAbsPt */\012MDAP[0]	/* MoveDirectAbsPt */\012MDAP[0]	/* MoveDirectAbsPt */\012MDAP[0]	/* MoveDirectAbsPt */\012MDAP[0]	/* MoveDirectAbsPt */\012MDAP[0]	/* MoveDirectAbsPt */\012IUP[1]	/* InterpolateUntPts */\012IUP[0]	/* InterpolateUntPts */\012SVTCA[1]	/* SetFreedomAndProjectionVectorToAxis */\012MD[0]	/* MeasureDistance */\012ROUND[00]	/* Round */\012PUSHW[ ]	/* 2 values pushed */\01248 61 \012MD[0]	/* MeasureDistance */\012ROUND[00]	/* Round */\012SUB[ ]	/* Subtract */\012PUSHB[ ]	/* 1 value pushed */\01264 \012GT[ ]	/* GreaterThan */\012IF[ ]	/* If */\012SHPIX[ ]	/* ShiftZoneByPixel */\012SRP1[ ]	/* SetRefPoint1 */\012SHZ[1]	/* ShiftZoneByLastPoint */\012PUSHW[ ]	/* 2 values pushed */\01261 -64 \012SHPIX[ ]	/* ShiftZoneByPixel */\012EIF[ ]	/* EndIf */";
};
width = 652;
}
);
note = A;
unicode = 0041;
},
{
glyphname = AE;
lastChange = "2021-11-05 21:19:16 +0000";
layers = (
{
background = {
paths = (
{
closed = 1;
nodes = (
"-24 -74 OFFCURVE",
"-19 -71 OFFCURVE",
"-16 -65 CURVE SMOOTH",
"-7 -51 OFFCURVE",
"-1 -40 OFFCURVE",
"3 -33 CURVE SMOOTH",
"27 2 OFFCURVE",
"68 52 OFFCURVE",
"127 117 CURVE SMOOTH",
"159 152 OFFCURVE",
"204 199 OFFCURVE",
"261 258 CURVE",
"410 281 OFFCURVE",
"512 295 OFFCURVE",
"566 300 CURVE",
"497 172 OFFCURVE",
"443 62 OFFCURVE",
"405 -30 CURVE",
"405 -45 OFFCURVE",
"411 -52 OFFCURVE",
"423 -52 CURVE SMOOTH",
"424 -52 LINE",
"637 -9 LINE SMOOTH",
"720 6 OFFCURVE",
"792 14 OFFCURVE",
"852 14 CURVE SMOOTH",
"890 14 OFFCURVE",
"911 11 OFFCURVE",
"914 6 CURVE",
"916 6 OFFCURVE",
"918 3 OFFCURVE",
"920 -4 CURVE SMOOTH",
"922 -11 OFFCURVE",
"927 -14 OFFCURVE",
"934 -14 CURVE SMOOTH",
"945 -14 OFFCURVE",
"951 -9 OFFCURVE",
"951 2 CURVE SMOOTH",
"951 33 OFFCURVE",
"919 48 OFFCURVE",
"855 48 CURVE SMOOTH",
"763 48 OFFCURVE",
"627 28 OFFCURVE",
"447 -12 CURVE",
"492 85 OFFCURVE",
"547 191 OFFCURVE",
"613 304 CURVE",
"704 313 OFFCURVE",
"800 317 OFFCURVE",
"902 318 CURVE SMOOTH",
"919 318 OFFCURVE",
"940 330 OFFCURVE",
"940 339 CURVE SMOOTH",
"940 346 OFFCURVE",
"930 350 OFFCURVE",
"910 351 CURVE SMOOTH",
"899 351 OFFCURVE",
"887 352 OFFCURVE",
"874 352 CURVE SMOOTH",
"816 352 OFFCURVE",
"735 347 OFFCURVE",
"632 337 CURVE",
"724 492 OFFCURVE",
"785 581 OFFCURVE",
"816 604 CURVE",
"881 615 OFFCURVE",
"936 620 OFFCURVE",
"980 620 CURVE SMOOTH",
"1038 620 OFFCURVE",
"1087 616 OFFCURVE",
"1126 609 CURVE",
"1130 609 LINE SMOOTH",
"1140 609 OFFCURVE",
"1145 615 OFFCURVE",
"1145 626 CURVE SMOOTH",
"1145 634 OFFCURVE",
"1141 639 OFFCURVE",
"1134 642 CURVE SMOOTH",
"1113 650 OFFCURVE",
"1068 654 OFFCURVE",
"997 654 CURVE SMOOTH",
"870 654 OFFCURVE",
"768 635 OFFCURVE",
"690 597 CURVE SMOOTH",
"501 504 OFFCURVE",
"353 402 OFFCURVE",
"246 290 CURVE",
"234 287 OFFCURVE",
"216 284 OFFCURVE",
"192 280 CURVE",
"192 281 LINE",
"183 281 OFFCURVE",
"178 276 OFFCURVE",
"178 267 CURVE SMOOTH",
"178 254 OFFCURVE",
"184 248 OFFCURVE",
"195 248 CURVE",
"210 251 LINE",
"65 106 OFFCURVE",
"-20 6 OFFCURVE",
"-46 -50 CURVE SMOOTH",
"-47 -52 OFFCURVE",
"-47 -55 OFFCURVE",
"-47 -58 CURVE SMOOTH",
"-47 -69 OFFCURVE",
"-41 -74 OFFCURVE",
"-30 -74 CURVE SMOOTH"
);
},
{
closed = 1;
nodes = (
"377 384 OFFCURVE",
"531 484 OFFCURVE",
"764 600 CURVE",
"715 547 OFFCURVE",
"655 457 OFFCURVE",
"584 332 CURVE",
"469 321 OFFCURVE",
"375 310 OFFCURVE",
"302 299 CURVE"
);
}
);
};
layerId = "5D3CF454-A725-4551-B6FA-6F6FD8C18533";
paths = (
{
closed = 1;
nodes = (
"-24 -74 OFFCURVE",
"-19 -71 OFFCURVE",
"-16 -65 CURVE SMOOTH",
"-7 -51 OFFCURVE",
"-1 -40 OFFCURVE",
"3 -33 CURVE SMOOTH",
"27 2 OFFCURVE",
"68 52 OFFCURVE",
"127 117 CURVE SMOOTH",
"159 152 OFFCURVE",
"204 199 OFFCURVE",
"261 258 CURVE",
"410 281 OFFCURVE",
"512 295 OFFCURVE",
"566 300 CURVE",
"497 172 OFFCURVE",
"443 62 OFFCURVE",
"405 -30 CURVE",
"405 -45 OFFCURVE",
"411 -52 OFFCURVE",
"423 -52 CURVE SMOOTH",
"424 -52 LINE",
"637 -9 LINE SMOOTH",
"720 6 OFFCURVE",
"792 14 OFFCURVE",
"852 14 CURVE SMOOTH",
"890 14 OFFCURVE",
"911 11 OFFCURVE",
"914 6 CURVE",
"916 6 OFFCURVE",
"918 3 OFFCURVE",
"920 -4 CURVE SMOOTH",
"922 -11 OFFCURVE",
"927 -14 OFFCURVE",
"934 -14 CURVE SMOOTH",
"945 -14 OFFCURVE",
"951 -9 OFFCURVE",
"951 2 CURVE SMOOTH",
"951 33 OFFCURVE",
"919 48 OFFCURVE",
"855 48 CURVE SMOOTH",
"763 48 OFFCURVE",
"627 28 OFFCURVE",
"447 -12 CURVE",
"492 85 OFFCURVE",
"547 191 OFFCURVE",
"613 304 CURVE",
"704 313 OFFCURVE",
"800 317 OFFCURVE",
"902 318 CURVE SMOOTH",
"919 318 OFFCURVE",
"940 330 OFFCURVE",
"940 339 CURVE SMOOTH",
"940 346 OFFCURVE",
"930 350 OFFCURVE",
"910 351 CURVE SMOOTH",
"899 351 OFFCURVE",
"887 352 OFFCURVE",
"874 352 CURVE SMOOTH",
"816 352 OFFCURVE",
"735 347 OFFCURVE",
"632 337 CURVE",
"724 492 OFFCURVE",
"785 581 OFFCURVE",
"816 604 CURVE",
"881 615 OFFCURVE",
"936 620 OFFCURVE",
"980 620 CURVE SMOOTH",
"1038 620 OFFCURVE",
"1087 616 OFFCURVE",
"1126 609 CURVE",
"1130 609 LINE SMOOTH",
"1140 609 OFFCURVE",
"1145 615 OFFCURVE",
"1145 626 CURVE SMOOTH",
"1145 634 OFFCURVE",
"1141 639 OFFCURVE",
"1134 642 CURVE SMOOTH",
"1113 650 OFFCURVE",
"1068 654 OFFCURVE",
"997 654 CURVE SMOOTH",
"870 654 OFFCURVE",
"768 635 OFFCURVE",
"690 597 CURVE SMOOTH",
"501 504 OFFCURVE",
"353 402 OFFCURVE",
"246 290 CURVE",
"234 287 OFFCURVE",
"216 284 OFFCURVE",
"192 280 CURVE",
"192 281 LINE",
"183 281 OFFCURVE",
"178 276 OFFCURVE",
"178 267 CURVE SMOOTH",
"178 254 OFFCURVE",
"184 248 OFFCURVE",
"195 248 CURVE",
"210 251 LINE",
"65 106 OFFCURVE",
"-20 6 OFFCURVE",
"-46 -50 CURVE SMOOTH",
"-47 -52 OFFCURVE",
"-47 -55 OFFCURVE",
"-47 -58 CURVE SMOOTH",
"-47 -69 OFFCURVE",
"-41 -74 OFFCURVE",
"-30 -74 CURVE SMOOTH"
);
},
{
closed = 1;
nodes = (
"377 384 OFFCURVE",
"531 484 OFFCURVE",
"764 600 CURVE",
"715 547 OFFCURVE",
"655 457 OFFCURVE",
"584 332 CURVE",
"469 321 OFFCURVE",
"375 310 OFFCURVE",
"302 299 CURVE"
);
}
);
userData = {
assembly = "NPUSHB[ ]	/* 46 values pushed */\0121 79 79 64 80 10 73 72 68 66 50 41 36 32 30 21 15 13 12 4 2 73 72 70 66 62 50 48 34 30 23 19 10 4 2 6 60 1 46 45 1 19 2 1 62 70 \012SROUND[ ]	/* SuperRound */\012MDAP[1]	/* MoveDirectAbsPt */\012SHZ[1]	/* ShiftZoneByLastPoint */\012RTG[ ]	/* RoundToGrid */\012SVTCA[0]	/* SetFreedomAndProjectionVectorToAxis */\012MIAP[1]	/* MoveIndirectAbsPt */\012MIAP[1]	/* MoveIndirectAbsPt */\012ALIGNRP[ ]	/* AlignRelativePt */\012MIAP[1]	/* MoveIndirectAbsPt */\012MDAP[1]	/* MoveDirectAbsPt */\012SVTCA[1]	/* SetFreedomAndProjectionVectorToAxis */\012MDAP[0]	/* MoveDirectAbsPt */\012MDAP[0]	/* MoveDirectAbsPt */\012MDAP[0]	/* MoveDirectAbsPt */\012MDAP[0]	/* MoveDirectAbsPt */\012MDAP[0]	/* MoveDirectAbsPt */\012MDAP[0]	/* MoveDirectAbsPt */\012MDAP[0]	/* MoveDirectAbsPt */\012MDAP[0]	/* MoveDirectAbsPt */\012MDAP[0]	/* MoveDirectAbsPt */\012MDAP[0]	/* MoveDirectAbsPt */\012MDAP[0]	/* MoveDirectAbsPt */\012MDAP[0]	/* MoveDirectAbsPt */\012MDAP[0]	/* MoveDirectAbsPt */\012MDAP[0]	/* MoveDirectAbsPt */\012SVTCA[0]	/* SetFreedomAndProjectionVectorToAxis */\012MDAP[0]	/* MoveDirectAbsPt */\012MDAP[0]	/* MoveDirectAbsPt */\012MDAP[0]	/* MoveDirectAbsPt */\012MDAP[0]	/* MoveDirectAbsPt */\012MDAP[0]	/* MoveDirectAbsPt */\012MDAP[0]	/* MoveDirectAbsPt */\012MDAP[0]	/* MoveDirectAbsPt */\012MDAP[0]	/* MoveDirectAbsPt */\012MDAP[0]	/* MoveDirectAbsPt */\012MDAP[0]	/* MoveDirectAbsPt */\012MDAP[0]	/* MoveDirectAbsPt */\012MDAP[0]	/* MoveDirectAbsPt */\012MDAP[0]	/* MoveDirectAbsPt */\012MDAP[0]	/* MoveDirectAbsPt */\012MDAP[0]	/* MoveDirectAbsPt */\012IUP[1]	/* InterpolateUntPts */\012IUP[0]	/* InterpolateUntPts */\012SVTCA[1]	/* SetFreedomAndProjectionVectorToAxis */\012MD[0]	/* MeasureDistance */\012ROUND[00]	/* Round */\012PUSHW[ ]	/* 2 values pushed */\01262 79 \012MD[0]	/* MeasureDistance */\012ROUND[00]	/* Round */\012SUB[ ]	/* Subtract */\012PUSHB[ ]	/* 1 value pushed */\01264 \012GT[ ]	/* GreaterThan */\012IF[ ]	/* If */\012SHPIX[ ]	/* ShiftZoneByPixel */\012SRP1[ ]	/* SetRefPoint1 */\012SHZ[1]	/* ShiftZoneByLastPoint */\012PUSHW[ ]	/* 2 values pushed */\01279 -64 \012SHPIX[ ]	/* ShiftZoneByPixel */\012EIF[ ]	/* EndIf */";
};
width = 983;
}
);
note = AE;
unicode = 00C6;
},
{
glyphname = B;
lastChange = "2021-11-06 00:25:37 +0000";
layers = (
{
background = {
paths = (
{
closed = 1;
nodes = (
"45 -89 OFFCURVE",
"50 -84 OFFCURVE",
"50 -73 CURVE SMOOTH",
"50 -69 OFFCURVE",
"53 -59 OFFCURVE",
"60 -44 CURVE",
"85 -46 OFFCURVE",
"110 -47 OFFCURVE",
"134 -47 CURVE SMOOTH",
"248 -47 OFFCURVE",
"349 -34 OFFCURVE",
"437 -7 CURVE SMOOTH",
"559 30 OFFCURVE",
"634 88 OFFCURVE",
"662 167 CURVE SMOOTH",
"669 186 OFFCURVE",
"672 203 OFFCURVE",
"672 220 CURVE SMOOTH",
"672 290 OFFCURVE",
"623 336 OFFCURVE",
"524 359 CURVE",
"672 404 OFFCURVE",
"761 458 OFFCURVE",
"790 522 CURVE SMOOTH",
"797 538 OFFCURVE",
"801 553 OFFCURVE",
"801 567 CURVE SMOOTH",
"801 628 OFFCURVE",
"735 658 OFFCURVE",
"602 658 CURVE SMOOTH",
"575 658 OFFCURVE",
"542 656 OFFCURVE",
"505 651 CURVE SMOOTH",
"480 646 LINE SMOOTH",
"469 644 OFFCURVE",
"461 643 OFFCURVE",
"455 643 CURVE SMOOTH",
"454 643 LINE",
"485 693 LINE",
"485 704 OFFCURVE",
"480 710 OFFCURVE",
"469 710 CURVE SMOOTH",
"460 710 OFFCURVE",
"440 685 OFFCURVE",
"408 635 CURVE",
"326 615 OFFCURVE",
"274 600 OFFCURVE",
"252 589 CURVE SMOOTH",
"245 586 OFFCURVE",
"241 581 OFFCURVE",
"241 575 CURVE SMOOTH",
"241 564 OFFCURVE",
"246 558 OFFCURVE",
"257 558 CURVE SMOOTH",
"251 558 OFFCURVE",
"293 570 OFFCURVE",
"383 594 CURVE",
"326 504 OFFCURVE",
"271 415 OFFCURVE",
"220 328 CURVE SMOOTH",
"122 162 OFFCURVE",
"61 49 OFFCURVE",
"37 -10 CURVE",
"18 -9 OFFCURVE",
"8 -14 OFFCURVE",
"8 -26 CURVE SMOOTH",
"8 -36 OFFCURVE",
"14 -41 OFFCURVE",
"25 -41 CURVE",
"20 -56 OFFCURVE",
"18 -67 OFFCURVE",
"18 -73 CURVE SMOOTH",
"18 -84 OFFCURVE",
"23 -89 OFFCURVE",
"34 -89 CURVE SMOOTH"
);
},
{
closed = 1;
nodes = (
"126 -14 OFFCURVE",
"104 -13 OFFCURVE",
"73 -12 CURVE",
"73 -13 LINE",
"152 154 OFFCURVE",
"272 359 OFFCURVE",
"431 604 CURVE",
"493 617 OFFCURVE",
"550 624 OFFCURVE",
"602 624 CURVE SMOOTH",
"713 624 OFFCURVE",
"768 604 OFFCURVE",
"768 564 CURVE SMOOTH",
"768 555 OFFCURVE",
"765 545 OFFCURVE",
"760 534 CURVE SMOOTH",
"737 485 OFFCURVE",
"673 443 OFFCURVE",
"570 408 CURVE SMOOTH",
"482 377 OFFCURVE",
"404 362 OFFCURVE",
"337 362 CURVE SMOOTH",
"326 362 OFFCURVE",
"321 358 OFFCURVE",
"321 350 CURVE SMOOTH",
"321 337 OFFCURVE",
"326 331 OFFCURVE",
"336 331 CURVE SMOOTH",
"337 331 OFFCURVE",
"347 333 OFFCURVE",
"366 338 CURVE",
"382 340 OFFCURVE",
"399 341 OFFCURVE",
"416 341 CURVE SMOOTH",
"467 341 OFFCURVE",
"513 333 OFFCURVE",
"556 317 CURVE SMOOTH",
"614 295 OFFCURVE",
"643 263 OFFCURVE",
"643 221 CURVE SMOOTH",
"643 208 OFFCURVE",
"640 194 OFFCURVE",
"634 179 CURVE SMOOTH",
"605 107 OFFCURVE",
"534 55 OFFCURVE",
"420 22 CURVE SMOOTH",
"338 -2 OFFCURVE",
"245 -14 OFFCURVE",
"141 -14 CURVE SMOOTH"
);
}
);
};
layerId = "5D3CF454-A725-4551-B6FA-6F6FD8C18533";
paths = (
{
closed = 1;
nodes = (
"45 -89 OFFCURVE",
"50 -84 OFFCURVE",
"50 -73 CURVE SMOOTH",
"50 -69 OFFCURVE",
"53 -59 OFFCURVE",
"60 -44 CURVE",
"85 -46 OFFCURVE",
"110 -47 OFFCURVE",
"134 -47 CURVE SMOOTH",
"248 -47 OFFCURVE",
"349 -34 OFFCURVE",
"437 -7 CURVE SMOOTH",
"564 32 OFFCURVE",
"672 110 OFFCURVE",
"672 220 CURVE SMOOTH",
"672 290 OFFCURVE",
"623 336 OFFCURVE",
"524 359 CURVE",
"657 400 OFFCURVE",
"801 467 OFFCURVE",
"801 567 CURVE SMOOTH",
"801 628 OFFCURVE",
"735 658 OFFCURVE",
"602 658 CURVE SMOOTH",
"531 658 OFFCURVE",
"485 646 OFFCURVE",
"453 641 CURVE",
"466 664 OFFCURVE",
"485 688 OFFCURVE",
"485 696 CURVE SMOOTH",
"485 704 OFFCURVE",
"480 710 OFFCURVE",
"469 710 CURVE SMOOTH",
"461 710 OFFCURVE",
"454 702 OFFCURVE",
"439 682 CURVE SMOOTH",
"430 670 OFFCURVE",
"420 654 OFFCURVE",
"408 635 CURVE",
"326 615 OFFCURVE",
"274 600 OFFCURVE",
"252 589 CURVE SMOOTH",
"245 586 OFFCURVE",
"241 581 OFFCURVE",
"241 575 CURVE SMOOTH",
"241 564 OFFCURVE",
"246 558 OFFCURVE",
"257 558 CURVE SMOOTH",
"251 558 OFFCURVE",
"293 570 OFFCURVE",
"383 594 CURVE",
"326 504 OFFCURVE",
"271 415 OFFCURVE",
"220 328 CURVE SMOOTH",
"122 162 OFFCURVE",
"61 49 OFFCURVE",
"37 -10 CURVE",
"18 -9 OFFCURVE",
"8 -14 OFFCURVE",
"8 -26 CURVE SMOOTH",
"8 -36 OFFCURVE",
"14 -41 OFFCURVE",
"25 -41 CURVE",
"20 -56 OFFCURVE",
"18 -67 OFFCURVE",
"18 -73 CURVE SMOOTH",
"18 -84 OFFCURVE",
"23 -89 OFFCURVE",
"34 -89 CURVE SMOOTH"
);
},
{
closed = 1;
nodes = (
"93 -15 OFFCURVE",
"83 -14 OFFCURVE",
"73 -13 CURVE",
"152 154 OFFCURVE",
"272 359 OFFCURVE",
"431 604 CURVE",
"493 617 OFFCURVE",
"550 624 OFFCURVE",
"602 624 CURVE SMOOTH",
"713 624 OFFCURVE",
"768 604 OFFCURVE",
"768 564 CURVE SMOOTH",
"768 498 OFFCURVE",
"666 441 OFFCURVE",
"570 408 CURVE SMOOTH",
"482 377 OFFCURVE",
"404 362 OFFCURVE",
"337 362 CURVE SMOOTH",
"326 362 OFFCURVE",
"321 358 OFFCURVE",
"321 348 CURVE SMOOTH",
"321 337 OFFCURVE",
"326 331 OFFCURVE",
"336 331 CURVE SMOOTH",
"340 331 OFFCURVE",
"347 333 OFFCURVE",
"366 338 CURVE",
"382 340 OFFCURVE",
"399 341 OFFCURVE",
"416 341 CURVE SMOOTH",
"467 341 OFFCURVE",
"513 333 OFFCURVE",
"556 317 CURVE SMOOTH",
"613 295 OFFCURVE",
"641 263 OFFCURVE",
"641 221 CURVE SMOOTH",
"641 128 OFFCURVE",
"534 54 OFFCURVE",
"420 21 CURVE SMOOTH",
"338 -3 OFFCURVE",
"245 -15 OFFCURVE",
"141 -15 CURVE SMOOTH"
);
}
);
userData = {
assembly = "NPUSHB[ ]	/* 41 values pushed */\0121 86 86 64 87 9 82 70 66 56 54 53 41 39 7 1 0 80 72 62 54 53 51 43 39 33 31 29 15 13 9 0 49 27 23 1 21 1 1 33 70 \012SROUND[ ]	/* SuperRound */\012MDAP[1]	/* MoveDirectAbsPt */\012SHZ[1]	/* ShiftZoneByLastPoint */\012RTG[ ]	/* RoundToGrid */\012SVTCA[0]	/* SetFreedomAndProjectionVectorToAxis */\012MIAP[1]	/* MoveIndirectAbsPt */\012MIAP[1]	/* MoveIndirectAbsPt */\012MDAP[1]	/* MoveDirectAbsPt */\012MDAP[1]	/* MoveDirectAbsPt */\012SVTCA[1]	/* SetFreedomAndProjectionVectorToAxis */\012MDAP[0]	/* MoveDirectAbsPt */\012MDAP[0]	/* MoveDirectAbsPt */\012MDAP[0]	/* MoveDirectAbsPt */\012MDAP[0]	/* MoveDirectAbsPt */\012MDAP[0]	/* MoveDirectAbsPt */\012MDAP[0]	/* MoveDirectAbsPt */\012MDAP[0]	/* MoveDirectAbsPt */\012MDAP[0]	/* MoveDirectAbsPt */\012MDAP[0]	/* MoveDirectAbsPt */\012MDAP[0]	/* MoveDirectAbsPt */\012MDAP[0]	/* MoveDirectAbsPt */\012MDAP[0]	/* MoveDirectAbsPt */\012MDAP[0]	/* MoveDirectAbsPt */\012MDAP[0]	/* MoveDirectAbsPt */\012MDAP[0]	/* MoveDirectAbsPt */\012SVTCA[0]	/* SetFreedomAndProjectionVectorToAxis */\012MDAP[0]	/* MoveDirectAbsPt */\012MDAP[0]	/* MoveDirectAbsPt */\012MDAP[0]	/* MoveDirectAbsPt */\012MDAP[0]	/* MoveDirectAbsPt */\012MDAP[0]	/* MoveDirectAbsPt */\012MDAP[0]	/* MoveDirectAbsPt */\012MDAP[0]	/* MoveDirectAbsPt */\012MDAP[0]	/* MoveDirectAbsPt */\012MDAP[0]	/* MoveDirectAbsPt */\012MDAP[0]	/* MoveDirectAbsPt */\012MDAP[0]	/* MoveDirectAbsPt */\012IUP[1]	/* InterpolateUntPts */\012IUP[0]	/* InterpolateUntPts */\012SVTCA[1]	/* SetFreedomAndProjectionVectorToAxis */\012MD[0]	/* MeasureDistance */\012ROUND[00]	/* Round */\012PUSHW[ ]	/* 2 values pushed */\01233 86 \012MD[0]	/* MeasureDistance */\012ROUND[00]	/* Round */\012SUB[ ]	/* Subtract */\012PUSHB[ ]	/* 1 value pushed */\01264 \012GT[ ]	/* GreaterThan */\012IF[ ]	/* If */\012SHPIX[ ]	/* ShiftZoneByPixel */\012SRP1[ ]	/* SetRefPoint1 */\012SHZ[1]	/* ShiftZoneByLastPoint */\012PUSHW[ ]	/* 2 values pushed */\01286 -64 \012SHPIX[ ]	/* ShiftZoneByPixel */\012EIF[ ]	/* EndIf */";
};
width = 746;
}
);
note = B;
unicode = 0042;
},
{
glyphname = C;
lastChange = "2021-11-06 00:34:28 +0000";
layers = (
{
background = {
paths = (
{
closed = 1;
nodes = (
"314 -60 OFFCURVE",
"372 -52 OFFCURVE",
"434 -37 CURVE SMOOTH",
"499 -20 OFFCURVE",
"554 1 OFFCURVE",
"599 27 CURVE SMOOTH",
"622 40 OFFCURVE",
"637 52 OFFCURVE",
"646 62 CURVE SMOOTH",
"659 77 OFFCURVE",
"665 90 OFFCURVE",
"665 101 CURVE SMOOTH",
"665 105 OFFCURVE",
"663 107 OFFCURVE",
"660 107 CURVE SMOOTH",
"654 107 OFFCURVE",
"643 99 OFFCURVE",
"626 83 CURVE SMOOTH",
"591 49 OFFCURVE",
"535 21 OFFCURVE",
"458 0 CURVE SMOOTH",
"391 -19 OFFCURVE",
"329 -29 OFFCURVE",
"271 -29 CURVE SMOOTH",
"192 -29 OFFCURVE",
"128 -10 OFFCURVE",
"79 27 CURVE SMOOTH",
"24 68 OFFCURVE",
"-3 126 OFFCURVE",
"-3 202 CURVE SMOOTH",
"-3 256 OFFCURVE",
"9 308 OFFCURVE",
"32 358 CURVE SMOOTH",
"46 388 OFFCURVE",
"71 421 OFFCURVE",
"107 457 CURVE SMOOTH",
"160 510 OFFCURVE",
"221 552 OFFCURVE",
"290 583 CURVE SMOOTH",
"362 614 OFFCURVE",
"434 630 OFFCURVE",
"506 630 CURVE SMOOTH",
"523 630 OFFCURVE",
"539 629 OFFCURVE",
"552 628 CURVE SMOOTH",
"589 624 OFFCURVE",
"621 612 OFFCURVE",
"650 593 CURVE SMOOTH",
"683 570 OFFCURVE",
"700 542 OFFCURVE",
"700 508 CURVE SMOOTH",
"700 485 OFFCURVE",
"691 465 OFFCURVE",
"673 447 CURVE SMOOTH",
"654 429 OFFCURVE",
"645 419 OFFCURVE",
"645 418 CURVE SMOOTH",
"645 407 OFFCURVE",
"658 396 OFFCURVE",
"669 396 CURVE SMOOTH",
"671 396 OFFCURVE",
"674 397 OFFCURVE",
"678 398 CURVE",
"717 425 OFFCURVE",
"737 458 OFFCURVE",
"737 499 CURVE SMOOTH",
"737 532 OFFCURVE",
"724 563 OFFCURVE",
"699 590 CURVE SMOOTH",
"676 615 OFFCURVE",
"648 633 OFFCURVE",
"614 644 CURVE SMOOTH",
"594 651 OFFCURVE",
"570 655 OFFCURVE",
"542 656 CURVE SMOOTH",
"538 657 OFFCURVE",
"532 657 OFFCURVE",
"525 657 CURVE SMOOTH",
"360 657 OFFCURVE",
"196 593 OFFCURVE",
"79 480 CURVE SMOOTH",
"44 446 OFFCURVE",
"17 410 OFFCURVE",
"-2 373 CURVE SMOOTH",
"-27 323 OFFCURVE",
"-40 268 OFFCURVE",
"-40 209 CURVE SMOOTH",
"-40 122 OFFCURVE",
"-11 55 OFFCURVE",
"46 7 CURVE SMOOTH",
"99 -38 OFFCURVE",
"171 -60 OFFCURVE",
"260 -60 CURVE SMOOTH"
);
}
);
};
layerId = "5D3CF454-A725-4551-B6FA-6F6FD8C18533";
paths = (
{
closed = 1;
nodes = (
"314 -60 OFFCURVE",
"371 -53 OFFCURVE",
"434 -37 CURVE SMOOTH",
"505 -19 OFFCURVE",
"582 11 OFFCURVE",
"629 47 CURVE SMOOTH",
"647 61 OFFCURVE",
"666 85 OFFCURVE",
"666 98 CURVE SMOOTH",
"666 105 OFFCURVE",
"663 107 OFFCURVE",
"659 107 CURVE SMOOTH",
"651 107 OFFCURVE",
"641 97 OFFCURVE",
"616 74 CURVE SMOOTH",
"589 50 OFFCURVE",
"535 20 OFFCURVE",
"458 -1 CURVE SMOOTH",
"391 -20 OFFCURVE",
"329 -29 OFFCURVE",
"271 -29 CURVE SMOOTH",
"117 -29 OFFCURVE",
"-3 48 OFFCURVE",
"-3 202 CURVE SMOOTH",
"-3 308 OFFCURVE",
"34 385 OFFCURVE",
"108 459 CURVE SMOOTH",
"213 563 OFFCURVE",
"360 630 OFFCURVE",
"508 630 CURVE SMOOTH",
"620 630 OFFCURVE",
"700 580 OFFCURVE",
"700 508 CURVE SMOOTH",
"700 453 OFFCURVE",
"645 428 OFFCURVE",
"645 416 CURVE SMOOTH",
"645 409 OFFCURVE",
"658 396 OFFCURVE",
"669 396 CURVE SMOOTH",
"688 396 OFFCURVE",
"737 443 OFFCURVE",
"737 499 CURVE SMOOTH",
"737 585 OFFCURVE",
"650 657 OFFCURVE",
"527 657 CURVE SMOOTH",
"360 657 OFFCURVE",
"196 593 OFFCURVE",
"79 480 CURVE SMOOTH",
"1 404 OFFCURVE",
"-40 315 OFFCURVE",
"-40 209 CURVE SMOOTH",
"-40 38 OFFCURVE",
"77 -60 OFFCURVE",
"260 -60 CURVE SMOOTH"
);
},
{
closed = 0;
nodes = (
"644.554 62.008 LINE",
"644.578 65.265 OFFCURVE",
"644.576 65.98 OFFCURVE",
"644.576 64.154 CURVE SMOOTH"
);
}
);
userData = {
assembly = "NPUSHB[ ]	/* 22 values pushed */\0121 63 63 64 64 59 30 24 12 0 59 44 32 20 6 3 51 40 1 1 44 70 \012SROUND[ ]	/* SuperRound */\012MDAP[1]	/* MoveDirectAbsPt */\012SHZ[1]	/* ShiftZoneByLastPoint */\012RTG[ ]	/* RoundToGrid */\012SVTCA[0]	/* SetFreedomAndProjectionVectorToAxis */\012MIAP[1]	/* MoveIndirectAbsPt */\012MDAP[1]	/* MoveDirectAbsPt */\012SVTCA[1]	/* SetFreedomAndProjectionVectorToAxis */\012MDAP[0]	/* MoveDirectAbsPt */\012MDAP[0]	/* MoveDirectAbsPt */\012MDAP[0]	/* MoveDirectAbsPt */\012MDAP[0]	/* MoveDirectAbsPt */\012MDAP[0]	/* MoveDirectAbsPt */\012MDAP[0]	/* MoveDirectAbsPt */\012SVTCA[0]	/* SetFreedomAndProjectionVectorToAxis */\012MDAP[0]	/* MoveDirectAbsPt */\012MDAP[0]	/* MoveDirectAbsPt */\012MDAP[0]	/* MoveDirectAbsPt */\012MDAP[0]	/* MoveDirectAbsPt */\012IUP[1]	/* InterpolateUntPts */\012IUP[0]	/* InterpolateUntPts */\012SVTCA[1]	/* SetFreedomAndProjectionVectorToAxis */\012MD[0]	/* MeasureDistance */\012ROUND[00]	/* Round */\012PUSHW[ ]	/* 2 values pushed */\01244 63 \012MD[0]	/* MeasureDistance */\012ROUND[00]	/* Round */\012SUB[ ]	/* Subtract */\012PUSHB[ ]	/* 1 value pushed */\01264 \012GT[ ]	/* GreaterThan */\012IF[ ]	/* If */\012SHPIX[ ]	/* ShiftZoneByPixel */\012SRP1[ ]	/* SetRefPoint1 */\012SHZ[1]	/* ShiftZoneByLastPoint */\012PUSHW[ ]	/* 2 values pushed */\01263 -64 \012SHPIX[ ]	/* ShiftZoneByPixel */\012EIF[ ]	/* EndIf */";
};
width = 668;
}
);
note = C;
unicode = 0043;
},
{
color = 11;
glyphname = Ccedilla;
lastChange = "2021-11-05 21:19:16 +0000";
layers = (
{
background = {
paths = (
{
closed = 1;
nodes = (
"314 -60 OFFCURVE",
"372 -52 OFFCURVE",
"434 -37 CURVE SMOOTH",
"499 -20 OFFCURVE",
"554 1 OFFCURVE",
"599 27 CURVE SMOOTH",
"622 40 OFFCURVE",
"637 52 OFFCURVE",
"646 62 CURVE SMOOTH",
"659 77 OFFCURVE",
"665 90 OFFCURVE",
"665 101 CURVE SMOOTH",
"665 105 OFFCURVE",
"663 107 OFFCURVE",
"660 107 CURVE SMOOTH",
"654 107 OFFCURVE",
"643 99 OFFCURVE",
"626 83 CURVE SMOOTH",
"591 49 OFFCURVE",
"535 21 OFFCURVE",
"458 0 CURVE SMOOTH",
"391 -19 OFFCURVE",
"329 -29 OFFCURVE",
"271 -29 CURVE SMOOTH",
"192 -29 OFFCURVE",
"128 -10 OFFCURVE",
"79 27 CURVE SMOOTH",
"24 68 OFFCURVE",
"-3 126 OFFCURVE",
"-3 202 CURVE SMOOTH",
"-3 256 OFFCURVE",
"9 308 OFFCURVE",
"32 358 CURVE SMOOTH",
"46 388 OFFCURVE",
"71 421 OFFCURVE",
"107 457 CURVE SMOOTH",
"160 510 OFFCURVE",
"221 552 OFFCURVE",
"290 583 CURVE SMOOTH",
"362 614 OFFCURVE",
"434 630 OFFCURVE",
"506 630 CURVE SMOOTH",
"523 630 OFFCURVE",
"539 629 OFFCURVE",
"552 628 CURVE SMOOTH",
"589 624 OFFCURVE",
"621 612 OFFCURVE",
"650 593 CURVE SMOOTH",
"683 570 OFFCURVE",
"700 542 OFFCURVE",
"700 508 CURVE SMOOTH",
"700 485 OFFCURVE",
"691 465 OFFCURVE",
"673 447 CURVE SMOOTH",
"654 429 OFFCURVE",
"645 419 OFFCURVE",
"645 418 CURVE SMOOTH",
"645 407 OFFCURVE",
"658 396 OFFCURVE",
"669 396 CURVE SMOOTH",
"671 396 OFFCURVE",
"674 397 OFFCURVE",
"678 398 CURVE",
"717 425 OFFCURVE",
"737 458 OFFCURVE",
"737 499 CURVE SMOOTH",
"737 532 OFFCURVE",
"724 563 OFFCURVE",
"699 590 CURVE SMOOTH",
"676 615 OFFCURVE",
"648 633 OFFCURVE",
"614 644 CURVE SMOOTH",
"594 651 OFFCURVE",
"570 655 OFFCURVE",
"542 656 CURVE SMOOTH",
"538 657 OFFCURVE",
"532 657 OFFCURVE",
"525 657 CURVE SMOOTH",
"360 657 OFFCURVE",
"196 593 OFFCURVE",
"79 480 CURVE SMOOTH",
"44 446 OFFCURVE",
"17 410 OFFCURVE",
"-2 373 CURVE SMOOTH",
"-27 323 OFFCURVE",
"-40 268 OFFCURVE",
"-40 209 CURVE SMOOTH",
"-40 122 OFFCURVE",
"-11 55 OFFCURVE",
"46 7 CURVE SMOOTH",
"99 -38 OFFCURVE",
"171 -60 OFFCURVE",
"260 -60 CURVE SMOOTH"
);
},
{
closed = 1;
nodes = (
"245 -324 OFFCURVE",
"296 -310 OFFCURVE",
"339 -282 CURVE SMOOTH",
"378 -255 OFFCURVE",
"398 -227 OFFCURVE",
"398 -196 CURVE SMOOTH",
"398 -173 OFFCURVE",
"385 -154 OFFCURVE",
"359 -141 CURVE SMOOTH",
"334 -129 OFFCURVE",
"300 -122 OFFCURVE",
"256 -122 CURVE SMOOTH",
"248 -122 OFFCURVE",
"240 -123 OFFCURVE",
"231 -123 CURVE",
"248 -99 LINE SMOOTH",
"256 -88 OFFCURVE",
"260 -80 OFFCURVE",
"260 -75 CURVE SMOOTH",
"260 -68 OFFCURVE",
"257 -65 OFFCURVE",
"251 -65 CURVE SMOOTH",
"246 -65 OFFCURVE",
"242 -68 OFFCURVE",
"239 -73 CURVE",
"213 -104 LINE SMOOTH",
"198 -123 OFFCURVE",
"191 -136 OFFCURVE",
"191 -144 CURVE SMOOTH",
"191 -150 OFFCURVE",
"196 -153 OFFCURVE",
"205 -153 CURVE SMOOTH",
"309 -152 OFFCURVE",
"361 -167 OFFCURVE",
"361 -199 CURVE SMOOTH",
"361 -240 OFFCURVE",
"260 -294 OFFCURVE",
"181 -294 CURVE SMOOTH",
"174 -294 OFFCURVE",
"164 -292 OFFCURVE",
"151 -289 CURVE SMOOTH",
"138 -286 OFFCURVE",
"129 -284 OFFCURVE",
"124 -284 CURVE SMOOTH",
"112 -284 OFFCURVE",
"106 -289 OFFCURVE",
"106 -298 CURVE SMOOTH",
"106 -310 OFFCURVE",
"117 -318 OFFCURVE",
"140 -321 CURVE SMOOTH",
"155 -323 OFFCURVE",
"171 -324 OFFCURVE",
"186 -324 CURVE SMOOTH"
);
},
{
closed = 1;
nodes = (
"171 -60 OFFCURVE",
"99 -38 OFFCURVE",
"46 7 CURVE SMOOTH",
"-11 55 OFFCURVE",
"-40 122 OFFCURVE",
"-40 209 CURVE SMOOTH",
"-40 268 OFFCURVE",
"-27 323 OFFCURVE",
"-2 373 CURVE SMOOTH",
"17 410 OFFCURVE",
"44 446 OFFCURVE",
"79 480 CURVE SMOOTH",
"196 593 OFFCURVE",
"360 657 OFFCURVE",
"525 657 CURVE SMOOTH",
"532 657 OFFCURVE",
"538 657 OFFCURVE",
"542 656 CURVE SMOOTH",
"570 655 OFFCURVE",
"594 651 OFFCURVE",
"614 644 CURVE SMOOTH",
"648 633 OFFCURVE",
"676 615 OFFCURVE",
"699 590 CURVE SMOOTH",
"724 563 OFFCURVE",
"737 532 OFFCURVE",
"737 499 CURVE SMOOTH",
"737 458 OFFCURVE",
"717 425 OFFCURVE",
"678 398 CURVE",
"674 397 OFFCURVE",
"671 396 OFFCURVE",
"669 396 CURVE SMOOTH",
"658 396 OFFCURVE",
"645 407 OFFCURVE",
"645 418 CURVE SMOOTH",
"645 419 OFFCURVE",
"654 429 OFFCURVE",
"673 447 CURVE SMOOTH",
"691 465 OFFCURVE",
"700 485 OFFCURVE",
"700 508 CURVE SMOOTH",
"700 542 OFFCURVE",
"683 570 OFFCURVE",
"650 593 CURVE SMOOTH",
"621 612 OFFCURVE",
"589 624 OFFCURVE",
"552 628 CURVE SMOOTH",
"539 629 OFFCURVE",
"523 630 OFFCURVE",
"506 630 CURVE SMOOTH",
"434 630 OFFCURVE",
"362 614 OFFCURVE",
"290 583 CURVE SMOOTH",
"221 552 OFFCURVE",
"160 510 OFFCURVE",
"107 457 CURVE SMOOTH",
"71 421 OFFCURVE",
"46 388 OFFCURVE",
"32 358 CURVE SMOOTH",
"9 308 OFFCURVE",
"-3 256 OFFCURVE",
"-3 202 CURVE SMOOTH",
"-3 126 OFFCURVE",
"24 68 OFFCURVE",
"79 27 CURVE SMOOTH",
"128 -10 OFFCURVE",
"192 -29 OFFCURVE",
"271 -29 CURVE SMOOTH",
"329 -29 OFFCURVE",
"391 -19 OFFCURVE",
"458 0 CURVE SMOOTH",
"535 21 OFFCURVE",
"591 49 OFFCURVE",
"626 83 CURVE SMOOTH",
"643 99 OFFCURVE",
"654 107 OFFCURVE",
"660 107 CURVE SMOOTH",
"663 107 OFFCURVE",
"665 105 OFFCURVE",
"665 101 CURVE SMOOTH",
"665 90 OFFCURVE",
"659 77 OFFCURVE",
"646 62 CURVE SMOOTH",
"637 52 OFFCURVE",
"622 40 OFFCURVE",
"599 27 CURVE SMOOTH",
"554 1 OFFCURVE",
"499 -20 OFFCURVE",
"434 -37 CURVE SMOOTH",
"372 -52 OFFCURVE",
"314 -60 OFFCURVE",
"260 -60 CURVE SMOOTH"
);
}
);
};
layerId = "5D3CF454-A725-4551-B6FA-6F6FD8C18533";
paths = (
{
closed = 1;
nodes = (
"314 -60 OFFCURVE",
"372 -52 OFFCURVE",
"434 -37 CURVE SMOOTH",
"499 -20 OFFCURVE",
"554 1 OFFCURVE",
"599 27 CURVE SMOOTH",
"622 40 OFFCURVE",
"637 52 OFFCURVE",
"646 62 CURVE SMOOTH",
"659 77 OFFCURVE",
"665 90 OFFCURVE",
"665 101 CURVE SMOOTH",
"665 105 OFFCURVE",
"663 107 OFFCURVE",
"660 107 CURVE SMOOTH",
"654 107 OFFCURVE",
"643 99 OFFCURVE",
"626 83 CURVE SMOOTH",
"591 49 OFFCURVE",
"535 21 OFFCURVE",
"458 0 CURVE SMOOTH",
"391 -19 OFFCURVE",
"329 -29 OFFCURVE",
"271 -29 CURVE SMOOTH",
"192 -29 OFFCURVE",
"128 -10 OFFCURVE",
"79 27 CURVE SMOOTH",
"24 68 OFFCURVE",
"-3 126 OFFCURVE",
"-3 202 CURVE SMOOTH",
"-3 256 OFFCURVE",
"9 308 OFFCURVE",
"32 358 CURVE SMOOTH",
"46 388 OFFCURVE",
"71 421 OFFCURVE",
"107 457 CURVE SMOOTH",
"160 510 OFFCURVE",
"221 552 OFFCURVE",
"290 583 CURVE SMOOTH",
"362 614 OFFCURVE",
"434 630 OFFCURVE",
"506 630 CURVE SMOOTH",
"523 630 OFFCURVE",
"539 629 OFFCURVE",
"552 628 CURVE SMOOTH",
"589 624 OFFCURVE",
"621 612 OFFCURVE",
"650 593 CURVE SMOOTH",
"683 570 OFFCURVE",
"700 542 OFFCURVE",
"700 508 CURVE SMOOTH",
"700 485 OFFCURVE",
"691 465 OFFCURVE",
"673 447 CURVE SMOOTH",
"654 429 OFFCURVE",
"645 419 OFFCURVE",
"645 418 CURVE SMOOTH",
"645 407 OFFCURVE",
"658 396 OFFCURVE",
"669 396 CURVE SMOOTH",
"671 396 OFFCURVE",
"674 397 OFFCURVE",
"678 398 CURVE",
"717 425 OFFCURVE",
"737 458 OFFCURVE",
"737 499 CURVE SMOOTH",
"737 532 OFFCURVE",
"724 563 OFFCURVE",
"699 590 CURVE SMOOTH",
"676 615 OFFCURVE",
"648 633 OFFCURVE",
"614 644 CURVE SMOOTH",
"594 651 OFFCURVE",
"570 655 OFFCURVE",
"542 656 CURVE SMOOTH",
"538 657 OFFCURVE",
"532 657 OFFCURVE",
"525 657 CURVE SMOOTH",
"360 657 OFFCURVE",
"196 593 OFFCURVE",
"79 480 CURVE SMOOTH",
"44 446 OFFCURVE",
"17 410 OFFCURVE",
"-2 373 CURVE SMOOTH",
"-27 323 OFFCURVE",
"-40 268 OFFCURVE",
"-40 209 CURVE SMOOTH",
"-40 122 OFFCURVE",
"-11 55 OFFCURVE",
"46 7 CURVE SMOOTH",
"99 -38 OFFCURVE",
"171 -60 OFFCURVE",
"260 -60 CURVE SMOOTH"
);
},
{
closed = 1;
nodes = (
"245 -324 OFFCURVE",
"296 -310 OFFCURVE",
"339 -282 CURVE SMOOTH",
"378 -255 OFFCURVE",
"398 -227 OFFCURVE",
"398 -196 CURVE SMOOTH",
"398 -173 OFFCURVE",
"385 -154 OFFCURVE",
"359 -141 CURVE SMOOTH",
"334 -129 OFFCURVE",
"300 -122 OFFCURVE",
"256 -122 CURVE SMOOTH",
"248 -122 OFFCURVE",
"240 -123 OFFCURVE",
"231 -123 CURVE",
"248 -99 LINE SMOOTH",
"256 -88 OFFCURVE",
"260 -80 OFFCURVE",
"260 -75 CURVE SMOOTH",
"260 -68 OFFCURVE",
"257 -65 OFFCURVE",
"251 -65 CURVE SMOOTH",
"246 -65 OFFCURVE",
"242 -68 OFFCURVE",
"239 -73 CURVE",
"213 -104 LINE SMOOTH",
"198 -123 OFFCURVE",
"191 -136 OFFCURVE",
"191 -144 CURVE SMOOTH",
"191 -150 OFFCURVE",
"196 -153 OFFCURVE",
"205 -153 CURVE SMOOTH",
"309 -152 OFFCURVE",
"361 -167 OFFCURVE",
"361 -199 CURVE SMOOTH",
"361 -240 OFFCURVE",
"260 -294 OFFCURVE",
"181 -294 CURVE SMOOTH",
"174 -294 OFFCURVE",
"164 -292 OFFCURVE",
"151 -289 CURVE SMOOTH",
"138 -286 OFFCURVE",
"129 -284 OFFCURVE",
"124 -284 CURVE SMOOTH",
"112 -284 OFFCURVE",
"106 -289 OFFCURVE",
"106 -298 CURVE SMOOTH",
"106 -310 OFFCURVE",
"117 -318 OFFCURVE",
"140 -321 CURVE SMOOTH",
"155 -323 OFFCURVE",
"171 -324 OFFCURVE",
"186 -324 CURVE SMOOTH"
);
},
{
closed = 1;
nodes = (
"171 -60 OFFCURVE",
"99 -38 OFFCURVE",
"46 7 CURVE SMOOTH",
"-11 55 OFFCURVE",
"-40 122 OFFCURVE",
"-40 209 CURVE SMOOTH",
"-40 268 OFFCURVE",
"-27 323 OFFCURVE",
"-2 373 CURVE SMOOTH",
"17 410 OFFCURVE",
"44 446 OFFCURVE",
"79 480 CURVE SMOOTH",
"196 593 OFFCURVE",
"360 657 OFFCURVE",
"525 657 CURVE SMOOTH",
"532 657 OFFCURVE",
"538 657 OFFCURVE",
"542 656 CURVE SMOOTH",
"570 655 OFFCURVE",
"594 651 OFFCURVE",
"614 644 CURVE SMOOTH",
"648 633 OFFCURVE",
"676 615 OFFCURVE",
"699 590 CURVE SMOOTH",
"724 563 OFFCURVE",
"737 532 OFFCURVE",
"737 499 CURVE SMOOTH",
"737 458 OFFCURVE",
"717 425 OFFCURVE",
"678 398 CURVE",
"674 397 OFFCURVE",
"671 396 OFFCURVE",
"669 396 CURVE SMOOTH",
"658 396 OFFCURVE",
"645 407 OFFCURVE",
"645 418 CURVE SMOOTH",
"645 419 OFFCURVE",
"654 429 OFFCURVE",
"673 447 CURVE SMOOTH",
"691 465 OFFCURVE",
"700 485 OFFCURVE",
"700 508 CURVE SMOOTH",
"700 542 OFFCURVE",
"683 570 OFFCURVE",
"650 593 CURVE SMOOTH",
"621 612 OFFCURVE",
"589 624 OFFCURVE",
"552 628 CURVE SMOOTH",
"539 629 OFFCURVE",
"523 630 OFFCURVE",
"506 630 CURVE SMOOTH",
"434 630 OFFCURVE",
"362 614 OFFCURVE",
"290 583 CURVE SMOOTH",
"221 552 OFFCURVE",
"160 510 OFFCURVE",
"107 457 CURVE SMOOTH",
"71 421 OFFCURVE",
"46 388 OFFCURVE",
"32 358 CURVE SMOOTH",
"9 308 OFFCURVE",
"-3 256 OFFCURVE",
"-3 202 CURVE SMOOTH",
"-3 126 OFFCURVE",
"24 68 OFFCURVE",
"79 27 CURVE SMOOTH",
"128 -10 OFFCURVE",
"192 -29 OFFCURVE",
"271 -29 CURVE SMOOTH",
"329 -29 OFFCURVE",
"391 -19 OFFCURVE",
"458 0 CURVE SMOOTH",
"535 21 OFFCURVE",
"591 49 OFFCURVE",
"626 83 CURVE SMOOTH",
"643 99 OFFCURVE",
"654 107 OFFCURVE",
"660 107 CURVE SMOOTH",
"663 107 OFFCURVE",
"665 105 OFFCURVE",
"665 101 CURVE SMOOTH",
"665 90 OFFCURVE",
"659 77 OFFCURVE",
"646 62 CURVE SMOOTH",
"637 52 OFFCURVE",
"622 40 OFFCURVE",
"599 27 CURVE SMOOTH",
"554 1 OFFCURVE",
"499 -20 OFFCURVE",
"434 -37 CURVE SMOOTH",
"372 -52 OFFCURVE",
"314 -60 OFFCURVE",
"260 -60 CURVE SMOOTH"
);
}
);
userData = {
assembly = "NPUSHB[ ]	/* 43 values pushed */\0121 162 162 64 163 4 156 143 140 114 102 96 86 63 51 39 33 23 0 158 150 146 138 130 126 123 120 106 94 82 67 60 57 43 31 19 4 75 12 134 1 19 70 \012SROUND[ ]	/* SuperRound */\012MDAP[1]	/* MoveDirectAbsPt */\012SHZ[1]	/* ShiftZoneByLastPoint */\012RTG[ ]	/* RoundToGrid */\012SVTCA[0]	/* SetFreedomAndProjectionVectorToAxis */\012MDAP[1]	/* MoveDirectAbsPt */\012MDAP[1]	/* MoveDirectAbsPt */\012ALIGNRP[ ]	/* AlignRelativePt */\012SVTCA[1]	/* SetFreedomAndProjectionVectorToAxis */\012MDAP[0]	/* MoveDirectAbsPt */\012MDAP[0]	/* MoveDirectAbsPt */\012MDAP[0]	/* MoveDirectAbsPt */\012MDAP[0]	/* MoveDirectAbsPt */\012MDAP[0]	/* MoveDirectAbsPt */\012MDAP[0]	/* MoveDirectAbsPt */\012MDAP[0]	/* MoveDirectAbsPt */\012MDAP[0]	/* MoveDirectAbsPt */\012MDAP[0]	/* MoveDirectAbsPt */\012MDAP[0]	/* MoveDirectAbsPt */\012MDAP[0]	/* MoveDirectAbsPt */\012MDAP[0]	/* MoveDirectAbsPt */\012MDAP[0]	/* MoveDirectAbsPt */\012MDAP[0]	/* MoveDirectAbsPt */\012MDAP[0]	/* MoveDirectAbsPt */\012MDAP[0]	/* MoveDirectAbsPt */\012MDAP[0]	/* MoveDirectAbsPt */\012MDAP[0]	/* MoveDirectAbsPt */\012SVTCA[0]	/* SetFreedomAndProjectionVectorToAxis */\012MDAP[0]	/* MoveDirectAbsPt */\012MDAP[0]	/* MoveDirectAbsPt */\012MDAP[0]	/* MoveDirectAbsPt */\012MDAP[0]	/* MoveDirectAbsPt */\012MDAP[0]	/* MoveDirectAbsPt */\012MDAP[0]	/* MoveDirectAbsPt */\012MDAP[0]	/* MoveDirectAbsPt */\012MDAP[0]	/* MoveDirectAbsPt */\012MDAP[0]	/* MoveDirectAbsPt */\012MDAP[0]	/* MoveDirectAbsPt */\012MDAP[0]	/* MoveDirectAbsPt */\012MDAP[0]	/* MoveDirectAbsPt */\012MDAP[0]	/* MoveDirectAbsPt */\012IUP[1]	/* InterpolateUntPts */\012IUP[0]	/* InterpolateUntPts */\012SVTCA[1]	/* SetFreedomAndProjectionVectorToAxis */\012MD[0]	/* MeasureDistance */\012ROUND[00]	/* Round */\012PUSHW[ ]	/* 2 values pushed */\01219 162 \012MD[0]	/* MeasureDistance */\012ROUND[00]	/* Round */\012SUB[ ]	/* Subtract */\012PUSHB[ ]	/* 1 value pushed */\01264 \012GT[ ]	/* GreaterThan */\012IF[ ]	/* If */\012SHPIX[ ]	/* ShiftZoneByPixel */\012SRP1[ ]	/* SetRefPoint1 */\012SHZ[1]	/* ShiftZoneByLastPoint */\012PUSHW[ ]	/* 2 values pushed */\012162 -64 \012SHPIX[ ]	/* ShiftZoneByPixel */\012EIF[ ]	/* EndIf */";
};
width = 716;
}
);
note = Ccedilla;
unicode = 00C7;
},
{
glyphname = D;
lastChange = "2021-11-06 00:41:02 +0000";
layers = (
{
background = {
paths = (
{
closed = 1;
nodes = (
"20 -46 OFFCURVE",
"26 -40 OFFCURVE",
"26 -28 CURVE SMOOTH",
"26 -26 LINE",
"25 -25 OFFCURVE",
"25 -22 OFFCURVE",
"25 -19 CURVE SMOOTH",
"25 20 OFFCURVE",
"75 136 OFFCURVE",
"176 329 CURVE SMOOTH",
"204 381 OFFCURVE",
"232 433 OFFCURVE",
"259 486 CURVE SMOOTH",
"305 573 OFFCURVE",
"328 623 OFFCURVE",
"328 636 CURVE SMOOTH",
"328 639 OFFCURVE",
"327 643 OFFCURVE",
"324 647 CURVE",
"443 634 OFFCURVE",
"539 607 OFFCURVE",
"613 566 CURVE SMOOTH",
"724 503 OFFCURVE",
"780 424 OFFCURVE",
"780 328 CURVE SMOOTH",
"780 293 OFFCURVE",
"772 261 OFFCURVE",
"756 232 CURVE SMOOTH",
"721 169 OFFCURVE",
"632 114 OFFCURVE",
"491 65 CURVE SMOOTH",
"381 27 OFFCURVE",
"275 3 OFFCURVE",
"172 -8 CURVE SMOOTH",
"159 -9 OFFCURVE",
"148 -10 OFFCURVE",
"137 -10 CURVE SMOOTH",
"109 -10 OFFCURVE",
"89 -7 OFFCURVE",
"77 -2 CURVE SMOOTH",
"69 1 OFFCURVE",
"64 2 OFFCURVE",
"61 2 CURVE SMOOTH",
"52 2 OFFCURVE",
"47 -1 OFFCURVE",
"47 -8 CURVE SMOOTH",
"47 -9 OFFCURVE",
"48 -12 OFFCURVE",
"49 -16 CURVE",
"49 -17 LINE",
"61 -34 OFFCURVE",
"86 -43 OFFCURVE",
"124 -43 CURVE SMOOTH",
"141 -43 OFFCURVE",
"159 -42 OFFCURVE",
"178 -40 CURVE SMOOTH",
"290 -28 OFFCURVE",
"401 -3 OFFCURVE",
"512 36 CURVE SMOOTH",
"656 87 OFFCURVE",
"748 146 OFFCURVE",
"788 214 CURVE SMOOTH",
"806 245 OFFCURVE",
"815 279 OFFCURVE",
"815 318 CURVE SMOOTH",
"815 376 OFFCURVE",
"796 431 OFFCURVE",
"758 482 CURVE SMOOTH",
"724 527 OFFCURVE",
"679 564 OFFCURVE",
"624 595 CURVE",
"624 594 LINE",
"517 655 OFFCURVE",
"391 685 OFFCURVE",
"246 685 CURVE SMOOTH",
"235 685 OFFCURVE",
"230 680 OFFCURVE",
"230 671 CURVE SMOOTH",
"230 660 OFFCURVE",
"239 653 OFFCURVE",
"256 651 CURVE SMOOTH",
"295 649 LINE",
"294 648 OFFCURVE",
"293 646 OFFCURVE",
"293 643 CURVE SMOOTH",
"292 629 OFFCURVE",
"269 581 OFFCURVE",
"226 498 CURVE SMOOTH",
"146 347 LINE SMOOTH",
"44 152 OFFCURVE",
"-7 30 OFFCURVE",
"-7 -17 CURVE SMOOTH",
"-7 -20 OFFCURVE",
"-6 -26 OFFCURVE",
"-5 -34 CURVE",
"-5 -31 LINE SMOOTH",
"-5 -41 OFFCURVE",
"-1 -46 OFFCURVE",
"8 -46 CURVE SMOOTH"
);
}
);
};
layerId = "5D3CF454-A725-4551-B6FA-6F6FD8C18533";
paths = (
{
closed = 1;
nodes = (
"20 -46 OFFCURVE",
"26 -38 OFFCURVE",
"26 -31 CURVE SMOOTH",
"26 -26 OFFCURVE",
"25 -24 OFFCURVE",
"25 -19 CURVE SMOOTH",
"25 20 OFFCURVE",
"75 136 OFFCURVE",
"176 329 CURVE SMOOTH",
"239 447 OFFCURVE",
"328 612 OFFCURVE",
"328 636 CURVE SMOOTH",
"328 640 OFFCURVE",
"327 643 OFFCURVE",
"324 647 CURVE",
"443 634 OFFCURVE",
"539 607 OFFCURVE",
"613 566 CURVE SMOOTH",
"724 503 OFFCURVE",
"780 424 OFFCURVE",
"780 328 CURVE SMOOTH",
"780 192 OFFCURVE",
"659 123 OFFCURVE",
"491 65 CURVE SMOOTH",
"388 29 OFFCURVE",
"227 -10 OFFCURVE",
"132 -10 CURVE SMOOTH",
"81 -10 OFFCURVE",
"74 2 OFFCURVE",
"59 2 CURVE SMOOTH",
"52 2 OFFCURVE",
"47 -2 OFFCURVE",
"47 -9 CURVE SMOOTH",
"47 -17 OFFCURVE",
"53 -25 OFFCURVE",
"68 -33 CURVE SMOOTH",
"82 -40 OFFCURVE",
"100 -43 OFFCURVE",
"124 -43 CURVE SMOOTH",
"227 -43 OFFCURVE",
"395 -5 OFFCURVE",
"512 36 CURVE SMOOTH",
"683 96 OFFCURVE",
"815 174 OFFCURVE",
"815 318 CURVE SMOOTH",
"815 436 OFFCURVE",
"735 532 OFFCURVE",
"624 595 CURVE SMOOTH",
"517 655 OFFCURVE",
"391 685 OFFCURVE",
"246 685 CURVE SMOOTH",
"235 685 OFFCURVE",
"230 680 OFFCURVE",
"230 671 CURVE SMOOTH",
"230 661 OFFCURVE",
"239 652 OFFCURVE",
"256 651 CURVE SMOOTH",
"295 649 LINE",
"294 648 OFFCURVE",
"293 646 OFFCURVE",
"293 643 CURVE SMOOTH",
"291 622 OFFCURVE",
"262 566 OFFCURVE",
"146 347 CURVE SMOOTH",
"43 153 OFFCURVE",
"-7 30 OFFCURVE",
"-7 -21 CURVE SMOOTH",
"-7 -39 OFFCURVE",
"-1 -46 OFFCURVE",
"10 -46 CURVE SMOOTH"
);
}
);
userData = {
assembly = "NPUSHB[ ]	/* 39 values pushed */\0121 70 70 64 71 5 51 36 24 20 1 0 66 62 54 52 51 47 46 44 38 36 32 18 16 15 5 1 0 68 52 1 49 1 13 1 1 54 70 \012SROUND[ ]	/* SuperRound */\012MDAP[1]	/* MoveDirectAbsPt */\012SHZ[1]	/* ShiftZoneByLastPoint */\012RTG[ ]	/* RoundToGrid */\012SVTCA[0]	/* SetFreedomAndProjectionVectorToAxis */\012MIAP[1]	/* MoveIndirectAbsPt */\012MIAP[1]	/* MoveIndirectAbsPt */\012MIAP[1]	/* MoveIndirectAbsPt */\012MDAP[1]	/* MoveDirectAbsPt */\012SVTCA[1]	/* SetFreedomAndProjectionVectorToAxis */\012MDAP[0]	/* MoveDirectAbsPt */\012MDAP[0]	/* MoveDirectAbsPt */\012MDAP[0]	/* MoveDirectAbsPt */\012MDAP[0]	/* MoveDirectAbsPt */\012MDAP[0]	/* MoveDirectAbsPt */\012MDAP[0]	/* MoveDirectAbsPt */\012MDAP[0]	/* MoveDirectAbsPt */\012MDAP[0]	/* MoveDirectAbsPt */\012MDAP[0]	/* MoveDirectAbsPt */\012MDAP[0]	/* MoveDirectAbsPt */\012MDAP[0]	/* MoveDirectAbsPt */\012MDAP[0]	/* MoveDirectAbsPt */\012MDAP[0]	/* MoveDirectAbsPt */\012MDAP[0]	/* MoveDirectAbsPt */\012MDAP[0]	/* MoveDirectAbsPt */\012MDAP[0]	/* MoveDirectAbsPt */\012MDAP[0]	/* MoveDirectAbsPt */\012SVTCA[0]	/* SetFreedomAndProjectionVectorToAxis */\012MDAP[0]	/* MoveDirectAbsPt */\012MDAP[0]	/* MoveDirectAbsPt */\012MDAP[0]	/* MoveDirectAbsPt */\012MDAP[0]	/* MoveDirectAbsPt */\012MDAP[0]	/* MoveDirectAbsPt */\012MDAP[0]	/* MoveDirectAbsPt */\012IUP[1]	/* InterpolateUntPts */\012IUP[0]	/* InterpolateUntPts */\012SVTCA[1]	/* SetFreedomAndProjectionVectorToAxis */\012MD[0]	/* MeasureDistance */\012ROUND[00]	/* Round */\012PUSHW[ ]	/* 2 values pushed */\01254 70 \012MD[0]	/* MeasureDistance */\012ROUND[00]	/* Round */\012SUB[ ]	/* Subtract */\012PUSHB[ ]	/* 1 value pushed */\01264 \012GT[ ]	/* GreaterThan */\012IF[ ]	/* If */\012SHPIX[ ]	/* ShiftZoneByPixel */\012SRP1[ ]	/* SetRefPoint1 */\012SHZ[1]	/* ShiftZoneByLastPoint */\012PUSHW[ ]	/* 2 values pushed */\01270 -64 \012SHPIX[ ]	/* ShiftZoneByPixel */\012EIF[ ]	/* EndIf */";
};
width = 824;
}
);
note = D;
unicode = 0044;
},
{
glyphname = E;
lastChange = "2021-11-06 00:44:04 +0000";
layers = (
{
background = {
paths = (
{
closed = 1;
nodes = (
"32 -52 LINE SMOOTH",
"172 -23 OFFCURVE",
"243 -9 OFFCURVE",
"245 -9 CURVE SMOOTH",
"329 6 OFFCURVE",
"401 14 OFFCURVE",
"460 14 CURVE SMOOTH",
"498 14 OFFCURVE",
"519 11 OFFCURVE",
"522 6 CURVE",
"525 6 OFFCURVE",
"527 3 OFFCURVE",
"529 -4 CURVE SMOOTH",
"530 -11 OFFCURVE",
"535 -14 OFFCURVE",
"543 -14 CURVE SMOOTH",
"554 -14 OFFCURVE",
"559 -9 OFFCURVE",
"559 2 CURVE SMOOTH",
"559 33 OFFCURVE",
"527 48 OFFCURVE",
"463 48 CURVE SMOOTH",
"371 48 OFFCURVE",
"235 28 OFFCURVE",
"55 -12 CURVE",
"100 84 OFFCURVE",
"171 206 OFFCURVE",
"268 354 CURVE",
"534 354 LINE SMOOTH",
"545 354 OFFCURVE",
"550 359 OFFCURVE",
"550 370 CURVE SMOOTH",
"550 381 OFFCURVE",
"545 386 OFFCURVE",
"534 386 CURVE SMOOTH",
"289 386 LINE",
"374 509 OFFCURVE",
"430 580 OFFCURVE",
"458 601 CURVE",
"523 612 OFFCURVE",
"578 617 OFFCURVE",
"623 617 CURVE SMOOTH",
"681 617 OFFCURVE",
"730 613 OFFCURVE",
"769 606 CURVE",
"773 606 LINE SMOOTH",
"783 606 OFFCURVE",
"788 612 OFFCURVE",
"788 623 CURVE SMOOTH",
"788 630 OFFCURVE",
"784 635 OFFCURVE",
"776 638 CURVE SMOOTH",
"757 646 OFFCURVE",
"711 650 OFFCURVE",
"640 650 CURVE SMOOTH",
"572 650 OFFCURVE",
"506 644 OFFCURVE",
"443 631 CURVE",
"442 630 LINE SMOOTH",
"413 607 OFFCURVE",
"379 568 OFFCURVE",
"339 515 CURVE SMOOTH",
"322 491 OFFCURVE",
"292 448 OFFCURVE",
"251 386 CURVE",
"227 386 OFFCURVE",
"217 386 OFFCURVE",
"221 387 CURVE SMOOTH",
"208 386 OFFCURVE",
"202 380 OFFCURVE",
"202 370 CURVE SMOOTH",
"202 359 OFFCURVE",
"211 354 OFFCURVE",
"229 354 CURVE",
"121 185 OFFCURVE",
"49 57 OFFCURVE",
"13 -30 CURVE",
"13 -45 OFFCURVE",
"19 -52 OFFCURVE",
"31 -52 CURVE SMOOTH"
);
}
);
};
layerId = "5D3CF454-A725-4551-B6FA-6F6FD8C18533";
paths = (
{
closed = 1;
nodes = (
"52 -52 OFFCURVE",
"128 -27 OFFCURVE",
"245 -9 CURVE SMOOTH",
"328 4 OFFCURVE",
"401 14 OFFCURVE",
"460 14 CURVE SMOOTH",
"506 14 OFFCURVE",
"527 11 OFFCURVE",
"529 -4 CURVE SMOOTH",
"530 -11 OFFCURVE",
"535 -14 OFFCURVE",
"543 -14 CURVE SMOOTH",
"554 -14 OFFCURVE",
"559 -9 OFFCURVE",
"559 2 CURVE SMOOTH",
"559 33 OFFCURVE",
"527 48 OFFCURVE",
"463 48 CURVE SMOOTH",
"371 48 OFFCURVE",
"235 28 OFFCURVE",
"55 -12 CURVE",
"100 84 OFFCURVE",
"171 206 OFFCURVE",
"268 354 CURVE",
"534 354 LINE SMOOTH",
"545 354 OFFCURVE",
"550 359 OFFCURVE",
"550 370 CURVE SMOOTH",
"550 381 OFFCURVE",
"545 386 OFFCURVE",
"534 386 CURVE SMOOTH",
"289 386 LINE",
"374 509 OFFCURVE",
"430 580 OFFCURVE",
"458 601 CURVE",
"523 612 OFFCURVE",
"578 617 OFFCURVE",
"623 617 CURVE SMOOTH",
"716 617 OFFCURVE",
"757 606 OFFCURVE",
"773 606 CURVE SMOOTH",
"783 606 OFFCURVE",
"788 612 OFFCURVE",
"788 623 CURVE SMOOTH",
"788 632 OFFCURVE",
"783 637 OFFCURVE",
"766 641 CURVE SMOOTH",
"742 647 OFFCURVE",
"698 650 OFFCURVE",
"640 650 CURVE SMOOTH",
"572 650 OFFCURVE",
"506 644 OFFCURVE",
"443 631 CURVE",
"401 593 OFFCURVE",
"368 554 OFFCURVE",
"339 515 CURVE SMOOTH",
"322 491 OFFCURVE",
"292 448 OFFCURVE",
"251 386 CURVE",
"242 386 OFFCURVE",
"230 387 OFFCURVE",
"221 387 CURVE SMOOTH",
"208 387 OFFCURVE",
"202 380 OFFCURVE",
"202 370 CURVE SMOOTH",
"202 359 OFFCURVE",
"211 354 OFFCURVE",
"229 354 CURVE",
"137 210 OFFCURVE",
"71 95 OFFCURVE",
"31 11 CURVE SMOOTH",
"24 -4 OFFCURVE",
"13 -24 OFFCURVE",
"13 -35 CURVE SMOOTH",
"13 -45 OFFCURVE",
"19 -52 OFFCURVE",
"31 -52 CURVE SMOOTH"
);
}
);
userData = {
assembly = "NPUSHB[ ]	/* 34 values pushed */\0121 54 54 64 55 42 52 51 47 45 44 31 29 16 11 7 5 3 2 51 42 27 25 23 9 5 0 38 21 20 1 1 23 70 \012SROUND[ ]	/* SuperRound */\012MDAP[1]	/* MoveDirectAbsPt */\012SHZ[1]	/* ShiftZoneByLastPoint */\012RTG[ ]	/* RoundToGrid */\012SVTCA[0]	/* SetFreedomAndProjectionVectorToAxis */\012MIAP[1]	/* MoveIndirectAbsPt */\012ALIGNRP[ ]	/* AlignRelativePt */\012MDAP[1]	/* MoveDirectAbsPt */\012SVTCA[1]	/* SetFreedomAndProjectionVectorToAxis */\012MDAP[0]	/* MoveDirectAbsPt */\012MDAP[0]	/* MoveDirectAbsPt */\012MDAP[0]	/* MoveDirectAbsPt */\012MDAP[0]	/* MoveDirectAbsPt */\012MDAP[0]	/* MoveDirectAbsPt */\012MDAP[0]	/* MoveDirectAbsPt */\012MDAP[0]	/* MoveDirectAbsPt */\012MDAP[0]	/* MoveDirectAbsPt */\012SVTCA[0]	/* SetFreedomAndProjectionVectorToAxis */\012MDAP[0]	/* MoveDirectAbsPt */\012MDAP[0]	/* MoveDirectAbsPt */\012MDAP[0]	/* MoveDirectAbsPt */\012MDAP[0]	/* MoveDirectAbsPt */\012MDAP[0]	/* MoveDirectAbsPt */\012MDAP[0]	/* MoveDirectAbsPt */\012MDAP[0]	/* MoveDirectAbsPt */\012MDAP[0]	/* MoveDirectAbsPt */\012MDAP[0]	/* MoveDirectAbsPt */\012MDAP[0]	/* MoveDirectAbsPt */\012MDAP[0]	/* MoveDirectAbsPt */\012MDAP[0]	/* MoveDirectAbsPt */\012MDAP[0]	/* MoveDirectAbsPt */\012IUP[1]	/* InterpolateUntPts */\012IUP[0]	/* InterpolateUntPts */\012SVTCA[1]	/* SetFreedomAndProjectionVectorToAxis */\012MD[0]	/* MeasureDistance */\012ROUND[00]	/* Round */\012PUSHW[ ]	/* 2 values pushed */\01223 54 \012MD[0]	/* MeasureDistance */\012ROUND[00]	/* Round */\012SUB[ ]	/* Subtract */\012PUSHB[ ]	/* 1 value pushed */\01264 \012GT[ ]	/* GreaterThan */\012IF[ ]	/* If */\012SHPIX[ ]	/* ShiftZoneByPixel */\012SRP1[ ]	/* SetRefPoint1 */\012SHZ[1]	/* ShiftZoneByLastPoint */\012PUSHW[ ]	/* 2 values pushed */\01254 -64 \012SHPIX[ ]	/* ShiftZoneByPixel */\012EIF[ ]	/* EndIf */";
};
width = 624;
}
);
note = E;
unicode = 0045;
},
{
glyphname = F;
lastChange = "2021-11-06 00:52:27 +0000";
layers = (
{
background = {
paths = (
{
closed = 1;
nodes = (
"26 -50 OFFCURVE",
"31 -46 OFFCURVE",
"34 -38 CURVE",
"49 35 OFFCURVE",
"118 166 OFFCURVE",
"241 353 CURVE",
"509 353 LINE",
"520 354 OFFCURVE",
"525 360 OFFCURVE",
"525 370 CURVE SMOOTH",
"525 381 OFFCURVE",
"520 386 OFFCURVE",
"509 386 CURVE SMOOTH",
"263 386 LINE",
"338 488 OFFCURVE",
"396 564 OFFCURVE",
"436 614 CURVE",
"705 614 LINE SMOOTH",
"716 614 OFFCURVE",
"721 620 OFFCURVE",
"721 632 CURVE SMOOTH",
"720 643 OFFCURVE",
"715 648 OFFCURVE",
"706 648 CURVE SMOOTH",
"704 648 LINE",
"369 648 LINE SMOOTH",
"348 648 OFFCURVE",
"338 642 OFFCURVE",
"338 630 CURVE SMOOTH",
"338 618 OFFCURVE",
"351 611 OFFCURVE",
"377 611 CURVE SMOOTH",
"381 611 OFFCURVE",
"386 612 OFFCURVE",
"392 612 CURVE",
"365 582 OFFCURVE",
"335 545 OFFCURVE",
"304 502 CURVE SMOOTH",
"289 481 OFFCURVE",
"262 442 OFFCURVE",
"223 386 CURVE",
"195 386 LINE",
"183 385 OFFCURVE",
"177 379 OFFCURVE",
"177 370 CURVE SMOOTH",
"177 359 OFFCURVE",
"185 354 OFFCURVE",
"202 354 CURVE",
"99 197 OFFCURVE",
"35 77 OFFCURVE",
"8 -6 CURVE SMOOTH",
"3 -21 OFFCURVE",
"1 -29 OFFCURVE",
"1 -32 CURVE SMOOTH",
"1 -44 OFFCURVE",
"7 -50 OFFCURVE",
"19 -50 CURVE SMOOTH"
);
}
);
};
layerId = "5D3CF454-A725-4551-B6FA-6F6FD8C18533";
paths = (
{
closed = 1;
nodes = (
"26 -50 OFFCURVE",
"32 -45 OFFCURVE",
"34 -38 CURVE SMOOTH",
"52 43 OFFCURVE",
"118 166 OFFCURVE",
"241 353 CURVE",
"509 353 LINE",
"520 354 OFFCURVE",
"525 360 OFFCURVE",
"525 370 CURVE SMOOTH",
"525 381 OFFCURVE",
"520 386 OFFCURVE",
"509 386 CURVE SMOOTH",
"263 386 LINE",
"338 492 OFFCURVE",
"386 552 OFFCURVE",
"436 614 CURVE",
"705 614 LINE SMOOTH",
"716 614 OFFCURVE",
"721 620 OFFCURVE",
"721 632 CURVE SMOOTH",
"720 643 OFFCURVE",
"715 648 OFFCURVE",
"704 648 CURVE SMOOTH",
"369 648 LINE SMOOTH",
"348 648 OFFCURVE",
"338 642 OFFCURVE",
"338 630 CURVE SMOOTH",
"338 618 OFFCURVE",
"351 611 OFFCURVE",
"377 611 CURVE SMOOTH",
"381 611 OFFCURVE",
"386 612 OFFCURVE",
"392 612 CURVE",
"365 581 OFFCURVE",
"337 545 OFFCURVE",
"310 509 CURVE SMOOTH",
"289 481 OFFCURVE",
"262 442 OFFCURVE",
"223 386 CURVE",
"195 386 LINE",
"183 385 OFFCURVE",
"177 379 OFFCURVE",
"177 370 CURVE SMOOTH",
"177 359 OFFCURVE",
"185 354 OFFCURVE",
"202 354 CURVE",
"99 197 OFFCURVE",
"35 77 OFFCURVE",
"8 -6 CURVE SMOOTH",
"3 -21 OFFCURVE",
"1 -29 OFFCURVE",
"1 -33 CURVE SMOOTH",
"1 -44 OFFCURVE",
"7 -50 OFFCURVE",
"18 -50 CURVE SMOOTH"
);
}
);
userData = {
assembly = "NPUSHB[ ]	/* 29 values pushed */\0121 39 39 64 40 34 37 36 22 20 6 5 1 0 34 28 26 18 16 12 3 0 32 30 10 1 1 12 70 \012SROUND[ ]	/* SuperRound */\012MDAP[1]	/* MoveDirectAbsPt */\012SHZ[1]	/* ShiftZoneByLastPoint */\012RTG[ ]	/* RoundToGrid */\012SVTCA[0]	/* SetFreedomAndProjectionVectorToAxis */\012MIAP[1]	/* MoveIndirectAbsPt */\012MDAP[1]	/* MoveDirectAbsPt */\012ALIGNRP[ ]	/* AlignRelativePt */\012SVTCA[1]	/* SetFreedomAndProjectionVectorToAxis */\012MDAP[0]	/* MoveDirectAbsPt */\012MDAP[0]	/* MoveDirectAbsPt */\012MDAP[0]	/* MoveDirectAbsPt */\012MDAP[0]	/* MoveDirectAbsPt */\012MDAP[0]	/* MoveDirectAbsPt */\012MDAP[0]	/* MoveDirectAbsPt */\012MDAP[0]	/* MoveDirectAbsPt */\012MDAP[0]	/* MoveDirectAbsPt */\012SVTCA[0]	/* SetFreedomAndProjectionVectorToAxis */\012MDAP[0]	/* MoveDirectAbsPt */\012MDAP[0]	/* MoveDirectAbsPt */\012MDAP[0]	/* MoveDirectAbsPt */\012MDAP[0]	/* MoveDirectAbsPt */\012MDAP[0]	/* MoveDirectAbsPt */\012MDAP[0]	/* MoveDirectAbsPt */\012MDAP[0]	/* MoveDirectAbsPt */\012MDAP[0]	/* MoveDirectAbsPt */\012IUP[1]	/* InterpolateUntPts */\012IUP[0]	/* InterpolateUntPts */\012SVTCA[1]	/* SetFreedomAndProjectionVectorToAxis */\012MD[0]	/* MeasureDistance */\012ROUND[00]	/* Round */\012PUSHW[ ]	/* 2 values pushed */\01212 39 \012MD[0]	/* MeasureDistance */\012ROUND[00]	/* Round */\012SUB[ ]	/* Subtract */\012PUSHB[ ]	/* 1 value pushed */\01264 \012GT[ ]	/* GreaterThan */\012IF[ ]	/* If */\012SHPIX[ ]	/* ShiftZoneByPixel */\012SRP1[ ]	/* SetRefPoint1 */\012SHZ[1]	/* ShiftZoneByLastPoint */\012PUSHW[ ]	/* 2 values pushed */\01239 -64 \012SHPIX[ ]	/* ShiftZoneByPixel */\012EIF[ ]	/* EndIf */";
};
width = 467;
}
);
note = F;
unicode = 0046;
},
{
glyphname = G;
lastChange = "2021-11-06 00:59:10 +0000";
layers = (
{
background = {
paths = (
{
closed = 1;
nodes = (
"291 -58 OFFCURVE",
"348 -48 OFFCURVE",
"411 -27 CURVE SMOOTH",
"469 -8 OFFCURVE",
"522 16 OFFCURVE",
"569 46 CURVE",
"560 22 OFFCURVE",
"555 6 OFFCURVE",
"555 -3 CURVE SMOOTH",
"555 -15 OFFCURVE",
"562 -21 OFFCURVE",
"575 -21 CURVE SMOOTH",
"581 -21 OFFCURVE",
"585 -17 OFFCURVE",
"587 -10 CURVE SMOOTH",
"593 11 OFFCURVE",
"602 34 OFFCURVE",
"614 58 CURVE SMOOTH",
"621 72 OFFCURVE",
"633 94 OFFCURVE",
"650 123 CURVE SMOOTH",
"693 196 OFFCURVE",
"722 247 OFFCURVE",
"737 276 CURVE",
"752 276 OFFCURVE",
"769 274 OFFCURVE",
"789 271 CURVE SMOOTH",
"808 268 LINE",
"819 268 OFFCURVE",
"824 273 OFFCURVE",
"824 283 CURVE SMOOTH",
"824 294 OFFCURVE",
"819 300 OFFCURVE",
"808 300 CURVE SMOOTH",
"809 300 LINE SMOOTH",
"788 305 OFFCURVE",
"768 307 OFFCURVE",
"751 308 CURVE",
"748 319 OFFCURVE",
"742 324 OFFCURVE",
"731 324 CURVE SMOOTH",
"726 324 OFFCURVE",
"723 322 OFFCURVE",
"720 317 CURVE",
"720 318 LINE",
"715 308 LINE",
"665 309 OFFCURVE",
"613 305 OFFCURVE",
"560 295 CURVE SMOOTH",
"497 284 OFFCURVE",
"448 268 OFFCURVE",
"413 247 CURVE SMOOTH",
"408 244 OFFCURVE",
"405 240 OFFCURVE",
"405 235 CURVE SMOOTH",
"405 222 OFFCURVE",
"411 216 OFFCURVE",
"424 216 CURVE",
"530 247 LINE SMOOTH",
"600 267 OFFCURVE",
"656 277 OFFCURVE",
"698 277 CURVE",
"669 224 OFFCURVE",
"646 184 OFFCURVE",
"630 157 CURVE SMOOTH",
"600 106 LINE",
"593 99 OFFCURVE",
"578 87 OFFCURVE",
"554 71 CURVE SMOOTH",
"511 43 OFFCURVE",
"462 20 OFFCURVE",
"408 2 CURVE SMOOTH",
"351 -17 OFFCURVE",
"298 -27 OFFCURVE",
"250 -27 CURVE SMOOTH",
"229 -27 OFFCURVE",
"208 -25 OFFCURVE",
"188 -20 CURVE SMOOTH",
"61 10 OFFCURVE",
"-3 84 OFFCURVE",
"-3 202 CURVE SMOOTH",
"-3 255 OFFCURVE",
"9 306 OFFCURVE",
"32 356 CURVE SMOOTH",
"47 389 OFFCURVE",
"72 422 OFFCURVE",
"107 457 CURVE SMOOTH",
"160 510 OFFCURVE",
"221 552 OFFCURVE",
"290 583 CURVE SMOOTH",
"361 614 OFFCURVE",
"433 630 OFFCURVE",
"506 630 CURVE SMOOTH",
"523 630 OFFCURVE",
"539 629 OFFCURVE",
"552 628 CURVE SMOOTH",
"589 624 OFFCURVE",
"621 612 OFFCURVE",
"650 593 CURVE SMOOTH",
"683 570 OFFCURVE",
"700 542 OFFCURVE",
"700 508 CURVE SMOOTH",
"700 485 OFFCURVE",
"691 465 OFFCURVE",
"673 447 CURVE SMOOTH",
"654 429 OFFCURVE",
"645 419 OFFCURVE",
"645 418 CURVE SMOOTH",
"645 407 OFFCURVE",
"658 396 OFFCURVE",
"669 396 CURVE SMOOTH",
"671 396 OFFCURVE",
"674 397 OFFCURVE",
"678 398 CURVE",
"717 424 OFFCURVE",
"737 458 OFFCURVE",
"737 499 CURVE SMOOTH",
"737 546 OFFCURVE",
"716 584 OFFCURVE",
"673 614 CURVE SMOOTH",
"635 640 OFFCURVE",
"591 654 OFFCURVE",
"542 656 CURVE",
"539 657 OFFCURVE",
"533 657 OFFCURVE",
"525 657 CURVE SMOOTH",
"357 657 OFFCURVE",
"213 602 OFFCURVE",
"92 492 CURVE SMOOTH",
"50 454 OFFCURVE",
"19 414 OFFCURVE",
"-2 373 CURVE SMOOTH",
"-27 323 OFFCURVE",
"-40 268 OFFCURVE",
"-40 209 CURVE SMOOTH",
"-40 48 OFFCURVE",
"76 -58 OFFCURVE",
"240 -58 CURVE SMOOTH"
);
}
);
};
layerId = "5D3CF454-A725-4551-B6FA-6F6FD8C18533";
paths = (
{
closed = 1;
nodes = (
"342 -58 OFFCURVE",
"478 -12 OFFCURVE",
"569 46 CURVE",
"560 22 OFFCURVE",
"555 6 OFFCURVE",
"555 -3 CURVE SMOOTH",
"555 -15 OFFCURVE",
"562 -21 OFFCURVE",
"575 -21 CURVE SMOOTH",
"581 -21 OFFCURVE",
"585 -17 OFFCURVE",
"587 -10 CURVE SMOOTH",
"593 11 OFFCURVE",
"602 34 OFFCURVE",
"614 58 CURVE SMOOTH",
"621 72 OFFCURVE",
"633 94 OFFCURVE",
"650 123 CURVE SMOOTH",
"693 196 OFFCURVE",
"722 247 OFFCURVE",
"737 276 CURVE",
"769 276 OFFCURVE",
"800 268 OFFCURVE",
"809 268 CURVE SMOOTH",
"819 268 OFFCURVE",
"824 273 OFFCURVE",
"824 283 CURVE SMOOTH",
"824 294 OFFCURVE",
"819 299 OFFCURVE",
"808 301 CURVE SMOOTH",
"785 305 OFFCURVE",
"768 307 OFFCURVE",
"751 308 CURVE",
"748 319 OFFCURVE",
"742 324 OFFCURVE",
"732 324 CURVE SMOOTH",
"726 324 OFFCURVE",
"721 321 OFFCURVE",
"718 314 CURVE SMOOTH",
"715 308 LINE",
"665 309 OFFCURVE",
"613 305 OFFCURVE",
"560 295 CURVE SMOOTH",
"501 284 OFFCURVE",
"452 268 OFFCURVE",
"421 251 CURVE SMOOTH",
"408 244 OFFCURVE",
"405 240 OFFCURVE",
"405 234 CURVE SMOOTH",
"405 222 OFFCURVE",
"411 216 OFFCURVE",
"422 216 CURVE SMOOTH",
"433 216 OFFCURVE",
"481 234 OFFCURVE",
"522 245 CURVE SMOOTH",
"590 264 OFFCURVE",
"656 277 OFFCURVE",
"698 277 CURVE",
"669 224 OFFCURVE",
"646 184 OFFCURVE",
"630 157 CURVE SMOOTH",
"600 106 LINE",
"593 99 OFFCURVE",
"578 87 OFFCURVE",
"554 71 CURVE SMOOTH",
"470 16 OFFCURVE",
"345 -27 OFFCURVE",
"250 -27 CURVE SMOOTH",
"195 -27 OFFCURVE",
"131 -11 OFFCURVE",
"81 25 CURVE SMOOTH",
"31 61 OFFCURVE",
"-3 116 OFFCURVE",
"-3 202 CURVE SMOOTH",
"-3 305 OFFCURVE",
"36 386 OFFCURVE",
"107 457 CURVE SMOOTH",
"213 563 OFFCURVE",
"359 630 OFFCURVE",
"506 630 CURVE SMOOTH",
"603 630 OFFCURVE",
"700 590 OFFCURVE",
"700 508 CURVE SMOOTH",
"700 485 OFFCURVE",
"691 465 OFFCURVE",
"673 447 CURVE SMOOTH",
"654 429 OFFCURVE",
"645 422 OFFCURVE",
"645 416 CURVE SMOOTH",
"645 407 OFFCURVE",
"658 396 OFFCURVE",
"669 396 CURVE SMOOTH",
"682 396 OFFCURVE",
"704 418 OFFCURVE",
"712 429 CURVE SMOOTH",
"729 449 OFFCURVE",
"737 473 OFFCURVE",
"737 499 CURVE SMOOTH",
"737 599 OFFCURVE",
"631 657 OFFCURVE",
"525 657 CURVE SMOOTH",
"357 657 OFFCURVE",
"213 602 OFFCURVE",
"92 492 CURVE SMOOTH",
"6 414 OFFCURVE",
"-40 322 OFFCURVE",
"-40 209 CURVE SMOOTH",
"-40 48 OFFCURVE",
"76 -58 OFFCURVE",
"240 -58 CURVE SMOOTH"
);
}
);
userData = {
assembly = "NPUSHB[ ]	/* 42 values pushed */\0121 97 97 64 98 79 93 85 81 77 76 60 57 47 35 23 0 95 79 77 76 70 69 62 57 43 29 26 19 7 0 13 72 2 70 69 2 4 1 1 7 70 \012SROUND[ ]	/* SuperRound */\012MDAP[1]	/* MoveDirectAbsPt */\012SHZ[1]	/* ShiftZoneByLastPoint */\012RTG[ ]	/* RoundToGrid */\012SVTCA[0]	/* SetFreedomAndProjectionVectorToAxis */\012MIAP[1]	/* MoveIndirectAbsPt */\012MIAP[1]	/* MoveIndirectAbsPt */\012ALIGNRP[ ]	/* AlignRelativePt */\012MIAP[1]	/* MoveIndirectAbsPt */\012MDAP[1]	/* MoveDirectAbsPt */\012SVTCA[1]	/* SetFreedomAndProjectionVectorToAxis */\012MDAP[0]	/* MoveDirectAbsPt */\012MDAP[0]	/* MoveDirectAbsPt */\012MDAP[0]	/* MoveDirectAbsPt */\012MDAP[0]	/* MoveDirectAbsPt */\012MDAP[0]	/* MoveDirectAbsPt */\012MDAP[0]	/* MoveDirectAbsPt */\012MDAP[0]	/* MoveDirectAbsPt */\012MDAP[0]	/* MoveDirectAbsPt */\012MDAP[0]	/* MoveDirectAbsPt */\012MDAP[0]	/* MoveDirectAbsPt */\012MDAP[0]	/* MoveDirectAbsPt */\012MDAP[0]	/* MoveDirectAbsPt */\012MDAP[0]	/* MoveDirectAbsPt */\012MDAP[0]	/* MoveDirectAbsPt */\012SVTCA[0]	/* SetFreedomAndProjectionVectorToAxis */\012MDAP[0]	/* MoveDirectAbsPt */\012MDAP[0]	/* MoveDirectAbsPt */\012MDAP[0]	/* MoveDirectAbsPt */\012MDAP[0]	/* MoveDirectAbsPt */\012MDAP[0]	/* MoveDirectAbsPt */\012MDAP[0]	/* MoveDirectAbsPt */\012MDAP[0]	/* MoveDirectAbsPt */\012MDAP[0]	/* MoveDirectAbsPt */\012MDAP[0]	/* MoveDirectAbsPt */\012MDAP[0]	/* MoveDirectAbsPt */\012MDAP[0]	/* MoveDirectAbsPt */\012IUP[1]	/* InterpolateUntPts */\012IUP[0]	/* InterpolateUntPts */\012SVTCA[1]	/* SetFreedomAndProjectionVectorToAxis */\012MD[0]	/* MeasureDistance */\012ROUND[00]	/* Round */\012PUSHW[ ]	/* 2 values pushed */\0127 97 \012MD[0]	/* MeasureDistance */\012ROUND[00]	/* Round */\012SUB[ ]	/* Subtract */\012PUSHB[ ]	/* 1 value pushed */\01264 \012GT[ ]	/* GreaterThan */\012IF[ ]	/* If */\012SHPIX[ ]	/* ShiftZoneByPixel */\012SRP1[ ]	/* SetRefPoint1 */\012SHZ[1]	/* ShiftZoneByLastPoint */\012PUSHW[ ]	/* 2 values pushed */\01297 -64 \012SHPIX[ ]	/* ShiftZoneByPixel */\012EIF[ ]	/* EndIf */";
};
width = 755;
}
);
note = G;
unicode = 0047;
},
{
glyphname = H;
lastChange = "2021-11-06 01:01:31 +0000";
layers = (
{
background = {
paths = (
{
closed = 1;
nodes = (
"65 -113 OFFCURVE",
"70 -109 OFFCURVE",
"71 -100 CURVE SMOOTH",
"81 -29 LINE",
"99 44 OFFCURVE",
"140 140 OFFCURVE",
"204 257 CURVE SMOOTH",
"223 290 OFFCURVE",
"237 315 OFFCURVE",
"247 332 CURVE",
"301 338 OFFCURVE",
"361 341 OFFCURVE",
"426 341 CURVE SMOOTH",
"473 341 OFFCURVE",
"577 337 OFFCURVE",
"740 328 CURVE",
"675 181 OFFCURVE",
"642 78 OFFCURVE",
"642 18 CURVE SMOOTH",
"642 -5 OFFCURVE",
"647 -17 OFFCURVE",
"658 -17 CURVE SMOOTH",
"668 -17 OFFCURVE",
"674 -13 OFFCURVE",
"676 -5 CURVE SMOOTH",
"675 -7 OFFCURVE",
"675 0 OFFCURVE",
"675 17 CURVE SMOOTH",
"675 74 OFFCURVE",
"709 176 OFFCURVE",
"776 325 CURVE",
"806 323 LINE",
"819 324 OFFCURVE",
"826 330 OFFCURVE",
"826 339 CURVE SMOOTH",
"826 350 OFFCURVE",
"814 356 OFFCURVE",
"791 356 CURVE",
"813 404 OFFCURVE",
"840 455 OFFCURVE",
"873 510 CURVE SMOOTH",
"916 583 OFFCURVE",
"951 629 OFFCURVE",
"976 647 CURVE SMOOTH",
"981 651 OFFCURVE",
"984 655 OFFCURVE",
"984 660 CURVE SMOOTH",
"984 671 OFFCURVE",
"978 676 OFFCURVE",
"967 676 CURVE SMOOTH",
"964 676 OFFCURVE",
"961 675 OFFCURVE",
"958 673 CURVE SMOOTH",
"931 656 OFFCURVE",
"893 607 OFFCURVE",
"845 526 CURVE SMOOTH",
"812 471 OFFCURVE",
"782 416 OFFCURVE",
"755 359 CURVE",
"598 369 OFFCURVE",
"491 374 OFFCURVE",
"432 374 CURVE SMOOTH",
"373 374 OFFCURVE",
"317 371 OFFCURVE",
"266 366 CURVE",
"345 493 LINE SMOOTH",
"413 601 OFFCURVE",
"445 657 OFFCURVE",
"442 660 CURVE",
"441 673 OFFCURVE",
"435 680 OFFCURVE",
"423 680 CURVE SMOOTH",
"417 680 OFFCURVE",
"413 677 OFFCURVE",
"410 670 CURVE SMOOTH",
"401 649 OFFCURVE",
"389 626 OFFCURVE",
"374 601 CURVE SMOOTH",
"369 592 OFFCURVE",
"355 570 OFFCURVE",
"333 535 CURVE SMOOTH",
"284 458 OFFCURVE",
"249 401 OFFCURVE",
"226 362 CURVE",
"143 349 OFFCURVE",
"102 334 OFFCURVE",
"102 318 CURVE SMOOTH",
"102 306 OFFCURVE",
"108 300 OFFCURVE",
"120 300 CURVE",
"125 301 LINE",
"149 312 OFFCURVE",
"176 320 OFFCURVE",
"206 325 CURVE",
"192 302 OFFCURVE",
"182 285 OFFCURVE",
"175 272 CURVE SMOOTH",
"83 105 OFFCURVE",
"37 -18 OFFCURVE",
"37 -96 CURVE SMOOTH",
"37 -107 OFFCURVE",
"43 -113 OFFCURVE",
"56 -113 CURVE SMOOTH"
);
}
);
};
layerId = "5D3CF454-A725-4551-B6FA-6F6FD8C18533";
paths = (
{
closed = 1;
nodes = (
"65 -113 OFFCURVE",
"70 -109 OFFCURVE",
"71 -100 CURVE SMOOTH",
"74 -76 OFFCURVE",
"75 -53 OFFCURVE",
"89 -1 CURVE SMOOTH",
"102 44 OFFCURVE",
"140 140 OFFCURVE",
"204 257 CURVE SMOOTH",
"223 290 OFFCURVE",
"237 315 OFFCURVE",
"247 332 CURVE",
"301 338 OFFCURVE",
"361 341 OFFCURVE",
"426 341 CURVE SMOOTH",
"473 341 OFFCURVE",
"577 337 OFFCURVE",
"740 328 CURVE",
"675 181 OFFCURVE",
"642 78 OFFCURVE",
"642 18 CURVE SMOOTH",
"642 -5 OFFCURVE",
"647 -17 OFFCURVE",
"658 -17 CURVE SMOOTH",
"668 -17 OFFCURVE",
"675 -13 OFFCURVE",
"675 -5 CURVE SMOOTH",
"675 0 OFFCURVE",
"675 7 OFFCURVE",
"675 17 CURVE SMOOTH",
"675 74 OFFCURVE",
"709 176 OFFCURVE",
"776 325 CURVE",
"806 323 LINE SMOOTH",
"819 322 OFFCURVE",
"826 330 OFFCURVE",
"826 339 CURVE SMOOTH",
"826 350 OFFCURVE",
"814 356 OFFCURVE",
"791 356 CURVE",
"813 404 OFFCURVE",
"840 455 OFFCURVE",
"873 510 CURVE SMOOTH",
"916 583 OFFCURVE",
"951 628 OFFCURVE",
"975 646 CURVE SMOOTH",
"981 650 OFFCURVE",
"984 655 OFFCURVE",
"984 660 CURVE SMOOTH",
"984 670 OFFCURVE",
"977 676 OFFCURVE",
"969 676 CURVE SMOOTH",
"963 676 OFFCURVE",
"957 673 OFFCURVE",
"948 666 CURVE SMOOTH",
"930 652 OFFCURVE",
"893 607 OFFCURVE",
"845 526 CURVE SMOOTH",
"812 471 OFFCURVE",
"782 416 OFFCURVE",
"755 359 CURVE",
"598 369 OFFCURVE",
"491 374 OFFCURVE",
"432 374 CURVE SMOOTH",
"373 374 OFFCURVE",
"317 371 OFFCURVE",
"266 366 CURVE",
"345 493 LINE SMOOTH",
"412 601 OFFCURVE",
"442 650 OFFCURVE",
"442 660 CURVE SMOOTH",
"442 673 OFFCURVE",
"435 680 OFFCURVE",
"423 680 CURVE SMOOTH",
"417 680 OFFCURVE",
"413 677 OFFCURVE",
"410 670 CURVE SMOOTH",
"394 634 OFFCURVE",
"369 592 OFFCURVE",
"333 535 CURVE SMOOTH",
"284 458 OFFCURVE",
"249 401 OFFCURVE",
"226 362 CURVE",
"143 349 OFFCURVE",
"102 334 OFFCURVE",
"102 317 CURVE SMOOTH",
"102 306 OFFCURVE",
"108 300 OFFCURVE",
"120 300 CURVE SMOOTH",
"129 300 OFFCURVE",
"161 320 OFFCURVE",
"206 325 CURVE",
"192 302 OFFCURVE",
"182 285 OFFCURVE",
"175 272 CURVE SMOOTH",
"83 105 OFFCURVE",
"37 -18 OFFCURVE",
"37 -96 CURVE SMOOTH",
"37 -107 OFFCURVE",
"43 -113 OFFCURVE",
"56 -113 CURVE SMOOTH"
);
}
);
userData = {
assembly = "NPUSHB[ ]	/* 34 values pushed */\0121 74 74 64 75 8 72 70 52 32 26 20 18 6 0 70 66 54 48 44 30 28 24 22 16 14 8 64 42 48 2 1 44 70 \012SROUND[ ]	/* SuperRound */\012MDAP[1]	/* MoveDirectAbsPt */\012SHZ[1]	/* ShiftZoneByLastPoint */\012RTG[ ]	/* RoundToGrid */\012SVTCA[0]	/* SetFreedomAndProjectionVectorToAxis */\012MIAP[1]	/* MoveIndirectAbsPt */\012MDAP[1]	/* MoveDirectAbsPt */\012MDAP[1]	/* MoveDirectAbsPt */\012SVTCA[1]	/* SetFreedomAndProjectionVectorToAxis */\012MDAP[0]	/* MoveDirectAbsPt */\012MDAP[0]	/* MoveDirectAbsPt */\012MDAP[0]	/* MoveDirectAbsPt */\012MDAP[0]	/* MoveDirectAbsPt */\012MDAP[0]	/* MoveDirectAbsPt */\012MDAP[0]	/* MoveDirectAbsPt */\012MDAP[0]	/* MoveDirectAbsPt */\012MDAP[0]	/* MoveDirectAbsPt */\012MDAP[0]	/* MoveDirectAbsPt */\012MDAP[0]	/* MoveDirectAbsPt */\012MDAP[0]	/* MoveDirectAbsPt */\012MDAP[0]	/* MoveDirectAbsPt */\012SVTCA[0]	/* SetFreedomAndProjectionVectorToAxis */\012MDAP[0]	/* MoveDirectAbsPt */\012MDAP[0]	/* MoveDirectAbsPt */\012MDAP[0]	/* MoveDirectAbsPt */\012MDAP[0]	/* MoveDirectAbsPt */\012MDAP[0]	/* MoveDirectAbsPt */\012MDAP[0]	/* MoveDirectAbsPt */\012MDAP[0]	/* MoveDirectAbsPt */\012MDAP[0]	/* MoveDirectAbsPt */\012MDAP[0]	/* MoveDirectAbsPt */\012IUP[1]	/* InterpolateUntPts */\012IUP[0]	/* InterpolateUntPts */\012SVTCA[1]	/* SetFreedomAndProjectionVectorToAxis */\012MD[0]	/* MeasureDistance */\012ROUND[00]	/* Round */\012PUSHW[ ]	/* 2 values pushed */\01244 74 \012MD[0]	/* MeasureDistance */\012ROUND[00]	/* Round */\012SUB[ ]	/* Subtract */\012PUSHB[ ]	/* 1 value pushed */\01264 \012GT[ ]	/* GreaterThan */\012IF[ ]	/* If */\012SHPIX[ ]	/* ShiftZoneByPixel */\012SRP1[ ]	/* SetRefPoint1 */\012SHZ[1]	/* ShiftZoneByLastPoint */\012PUSHW[ ]	/* 2 values pushed */\01274 -64 \012SHPIX[ ]	/* ShiftZoneByPixel */\012EIF[ ]	/* EndIf */";
};
width = 822;
}
);
note = H;
unicode = 0048;
},
{
glyphname = I;
lastChange = "2021-11-06 01:03:06 +0000";
layers = (
{
background = {
paths = (
{
closed = 1;
nodes = (
"83 -40 OFFCURVE",
"114 -37 OFFCURVE",
"154 -32 CURVE",
"157 -37 OFFCURVE",
"161 -39 OFFCURVE",
"166 -39 CURVE SMOOTH",
"172 -39 OFFCURVE",
"177 -36 OFFCURVE",
"180 -31 CURVE",
"223 -25 OFFCURVE",
"260 -22 OFFCURVE",
"290 -22 CURVE SMOOTH",
"297 -22 OFFCURVE",
"308 -23 OFFCURVE",
"322 -24 CURVE SMOOTH",
"336 -25 OFFCURVE",
"346 -25 OFFCURVE",
"353 -25 CURVE SMOOTH",
"365 -25 OFFCURVE",
"371 -20 OFFCURVE",
"371 -9 CURVE SMOOTH",
"371 -1 OFFCURVE",
"366 4 OFFCURVE",
"356 6 CURVE SMOOTH",
"339 9 OFFCURVE",
"315 11 OFFCURVE",
"286 11 CURVE SMOOTH",
"271 11 OFFCURVE",
"238 9 OFFCURVE",
"187 4 CURVE",
"199 37 OFFCURVE",
"210 61 OFFCURVE",
"220 77 CURVE SMOOTH",
"254 133 OFFCURVE",
"295 196 OFFCURVE",
"342 267 CURVE SMOOTH",
"470 454 LINE",
"520 525 LINE SMOOTH",
"544 560 OFFCURVE",
"557 585 OFFCURVE",
"558 599 CURVE",
"567 600 OFFCURVE",
"581 600 OFFCURVE",
"600 600 CURVE SMOOTH",
"638 600 OFFCURVE",
"668 596 OFFCURVE",
"690 587 CURVE SMOOTH",
"693 586 OFFCURVE",
"695 585 OFFCURVE",
"697 585 CURVE SMOOTH",
"707 585 OFFCURVE",
"712 590 OFFCURVE",
"712 601 CURVE SMOOTH",
"712 608 OFFCURVE",
"709 613 OFFCURVE",
"702 616 CURVE",
"703 617 LINE",
"678 628 OFFCURVE",
"643 633 OFFCURVE",
"597 633 CURVE SMOOTH",
"524 633 OFFCURVE",
"448 625 OFFCURVE",
"370 610 CURVE SMOOTH",
"361 608 OFFCURVE",
"356 603 OFFCURVE",
"356 596 CURVE SMOOTH",
"356 583 OFFCURVE",
"362 577 OFFCURVE",
"373 577 CURVE SMOOTH",
"370 577 OFFCURVE",
"387 580 OFFCURVE",
"424 585 CURVE SMOOTH",
"449 589 OFFCURVE",
"482 593 OFFCURVE",
"522 596 CURVE",
"486 537 OFFCURVE",
"460 496 OFFCURVE",
"445 474 CURVE SMOOTH",
"278 236 LINE SMOOTH",
"198 116 OFFCURVE",
"155 37 OFFCURVE",
"150 -1 CURVE",
"90 -6 LINE",
"61 -7 LINE",
"50 -10 OFFCURVE",
"45 -15 OFFCURVE",
"45 -23 CURVE SMOOTH",
"45 -34 OFFCURVE",
"51 -40 OFFCURVE",
"62 -40 CURVE SMOOTH"
);
}
);
};
layerId = "5D3CF454-A725-4551-B6FA-6F6FD8C18533";
paths = (
{
closed = 1;
nodes = (
"83 -40 OFFCURVE",
"114 -37 OFFCURVE",
"154 -32 CURVE",
"157 -37 OFFCURVE",
"161 -39 OFFCURVE",
"166 -39 CURVE SMOOTH",
"172 -39 OFFCURVE",
"177 -36 OFFCURVE",
"180 -31 CURVE",
"223 -25 OFFCURVE",
"260 -22 OFFCURVE",
"290 -22 CURVE SMOOTH",
"308 -22 OFFCURVE",
"337 -25 OFFCURVE",
"353 -25 CURVE SMOOTH",
"365 -25 OFFCURVE",
"371 -20 OFFCURVE",
"371 -9 CURVE SMOOTH",
"371 -1 OFFCURVE",
"366 4 OFFCURVE",
"356 6 CURVE SMOOTH",
"339 9 OFFCURVE",
"315 11 OFFCURVE",
"286 11 CURVE SMOOTH",
"271 11 OFFCURVE",
"238 9 OFFCURVE",
"187 4 CURVE",
"199 37 OFFCURVE",
"210 61 OFFCURVE",
"220 77 CURVE SMOOTH",
"254 133 OFFCURVE",
"294 197 OFFCURVE",
"342 267 CURVE SMOOTH",
"470 454 LINE",
"520 525 LINE SMOOTH",
"544 560 OFFCURVE",
"557 585 OFFCURVE",
"558 599 CURVE",
"567 600 OFFCURVE",
"581 600 OFFCURVE",
"600 600 CURVE SMOOTH",
"673 600 OFFCURVE",
"686 585 OFFCURVE",
"697 585 CURVE SMOOTH",
"707 585 OFFCURVE",
"712 590 OFFCURVE",
"712 601 CURVE SMOOTH",
"712 611 OFFCURVE",
"706 617 OFFCURVE",
"685 624 CURVE SMOOTH",
"662 630 OFFCURVE",
"633 633 OFFCURVE",
"597 633 CURVE SMOOTH",
"524 633 OFFCURVE",
"448 625 OFFCURVE",
"370 610 CURVE SMOOTH",
"361 608 OFFCURVE",
"356 603 OFFCURVE",
"356 596 CURVE SMOOTH",
"356 583 OFFCURVE",
"362 577 OFFCURVE",
"373 577 CURVE SMOOTH",
"379 577 OFFCURVE",
"387 580 OFFCURVE",
"424 585 CURVE SMOOTH",
"449 589 OFFCURVE",
"482 593 OFFCURVE",
"522 596 CURVE",
"486 537 OFFCURVE",
"460 496 OFFCURVE",
"445 474 CURVE SMOOTH",
"278 236 LINE SMOOTH",
"208 136 OFFCURVE",
"155 37 OFFCURVE",
"150 -1 CURVE",
"125 -3 OFFCURVE",
"87 -7 OFFCURVE",
"64 -7 CURVE SMOOTH",
"53 -7 OFFCURVE",
"45 -14 OFFCURVE",
"45 -23 CURVE SMOOTH",
"45 -34 OFFCURVE",
"51 -40 OFFCURVE",
"62 -40 CURVE SMOOTH"
);
}
);
userData = {
assembly = "NPUSHB[ ]	/* 30 values pushed */\0121 66 66 64 67 3 58 54 38 32 29 23 21 9 5 60 54 42 27 21 3 1 0 64 40 36 1 1 42 70 \012SROUND[ ]	/* SuperRound */\012MDAP[1]	/* MoveDirectAbsPt */\012SHZ[1]	/* ShiftZoneByLastPoint */\012RTG[ ]	/* RoundToGrid */\012SVTCA[0]	/* SetFreedomAndProjectionVectorToAxis */\012MIAP[1]	/* MoveIndirectAbsPt */\012ALIGNRP[ ]	/* AlignRelativePt */\012MDAP[1]	/* MoveDirectAbsPt */\012SVTCA[1]	/* SetFreedomAndProjectionVectorToAxis */\012MDAP[0]	/* MoveDirectAbsPt */\012MDAP[0]	/* MoveDirectAbsPt */\012MDAP[0]	/* MoveDirectAbsPt */\012MDAP[0]	/* MoveDirectAbsPt */\012MDAP[0]	/* MoveDirectAbsPt */\012MDAP[0]	/* MoveDirectAbsPt */\012MDAP[0]	/* MoveDirectAbsPt */\012MDAP[0]	/* MoveDirectAbsPt */\012SVTCA[0]	/* SetFreedomAndProjectionVectorToAxis */\012MDAP[0]	/* MoveDirectAbsPt */\012MDAP[0]	/* MoveDirectAbsPt */\012MDAP[0]	/* MoveDirectAbsPt */\012MDAP[0]	/* MoveDirectAbsPt */\012MDAP[0]	/* MoveDirectAbsPt */\012MDAP[0]	/* MoveDirectAbsPt */\012MDAP[0]	/* MoveDirectAbsPt */\012MDAP[0]	/* MoveDirectAbsPt */\012MDAP[0]	/* MoveDirectAbsPt */\012IUP[1]	/* InterpolateUntPts */\012IUP[0]	/* InterpolateUntPts */\012SVTCA[1]	/* SetFreedomAndProjectionVectorToAxis */\012MD[0]	/* MeasureDistance */\012ROUND[00]	/* Round */\012PUSHW[ ]	/* 2 values pushed */\01242 66 \012MD[0]	/* MeasureDistance */\012ROUND[00]	/* Round */\012SUB[ ]	/* Subtract */\012PUSHB[ ]	/* 1 value pushed */\01264 \012GT[ ]	/* GreaterThan */\012IF[ ]	/* If */\012SHPIX[ ]	/* ShiftZoneByPixel */\012SRP1[ ]	/* SetRefPoint1 */\012SHZ[1]	/* ShiftZoneByLastPoint */\012PUSHW[ ]	/* 2 values pushed */\01266 -64 \012SHPIX[ ]	/* ShiftZoneByPixel */\012EIF[ ]	/* EndIf */";
};
width = 475;
}
);
note = I;
unicode = 0049;
},
{
glyphname = J;
lastChange = "2021-11-06 01:05:11 +0000";
layers = (
{
background = {
paths = (
{
closed = 1;
nodes = (
"127 -46 OFFCURVE",
"141 -44 OFFCURVE",
"156 -40 CURVE SMOOTH",
"232 -19 OFFCURVE",
"326 84 OFFCURVE",
"439 268 CURVE SMOOTH",
"508 382 OFFCURVE",
"561 487 OFFCURVE",
"596 584 CURVE SMOOTH",
"600 594 OFFCURVE",
"603 604 OFFCURVE",
"606 614 CURVE",
"606 618 OFFCURVE",
"605 621 OFFCURVE",
"602 624 CURVE",
"623 626 OFFCURVE",
"644 627 OFFCURVE",
"665 627 CURVE SMOOTH",
"689 627 OFFCURVE",
"712 626 OFFCURVE",
"734 623 CURVE SMOOTH",
"761 620 OFFCURVE",
"772 618 OFFCURVE",
"766 618 CURVE SMOOTH",
"777 618 OFFCURVE",
"782 623 OFFCURVE",
"782 633 CURVE SMOOTH",
"782 644 OFFCURVE",
"777 650 OFFCURVE",
"766 650 CURVE SMOOTH",
"767 650 LINE SMOOTH",
"733 657 OFFCURVE",
"697 660 OFFCURVE",
"658 660 CURVE SMOOTH",
"610 660 OFFCURVE",
"561 655 OFFCURVE",
"510 645 CURVE SMOOTH",
"451 634 OFFCURVE",
"404 618 OFFCURVE",
"371 598 CURVE SMOOTH",
"366 595 OFFCURVE",
"363 591 OFFCURVE",
"363 586 CURVE SMOOTH",
"363 573 OFFCURVE",
"369 567 OFFCURVE",
"382 567 CURVE SMOOTH",
"387 567 OFFCURVE",
"414 575 OFFCURVE",
"465 591 CURVE SMOOTH",
"518 608 OFFCURVE",
"554 618 OFFCURVE",
"571 620 CURVE",
"542 527 OFFCURVE",
"483 408 OFFCURVE",
"394 264 CURVE SMOOTH",
"291 96 OFFCURVE",
"207 6 OFFCURVE",
"143 -7 CURVE SMOOTH",
"133 -9 OFFCURVE",
"124 -10 OFFCURVE",
"116 -10 CURVE SMOOTH",
"75 -10 OFFCURVE",
"55 9 OFFCURVE",
"55 47 CURVE SMOOTH",
"55 69 OFFCURVE",
"63 97 OFFCURVE",
"80 132 CURVE",
"80 131 LINE",
"93 155 OFFCURVE",
"111 177 OFFCURVE",
"133 196 CURVE SMOOTH",
"144 206 OFFCURVE",
"150 215 OFFCURVE",
"150 223 CURVE SMOOTH",
"150 232 OFFCURVE",
"146 236 OFFCURVE",
"138 236 CURVE SMOOTH",
"129 236 OFFCURVE",
"119 231 OFFCURVE",
"107 220 CURVE SMOOTH",
"83 199 OFFCURVE",
"63 174 OFFCURVE",
"46 143 CURVE SMOOTH",
"27 109 OFFCURVE",
"18 78 OFFCURVE",
"18 49 CURVE SMOOTH",
"18 -8 OFFCURVE",
"57 -46 OFFCURVE",
"114 -46 CURVE SMOOTH"
);
}
);
};
layerId = "5D3CF454-A725-4551-B6FA-6F6FD8C18533";
paths = (
{
closed = 1;
nodes = (
"229 -46 OFFCURVE",
"343 111 OFFCURVE",
"439 268 CURVE SMOOTH",
"508 382 OFFCURVE",
"561 487 OFFCURVE",
"596 584 CURVE SMOOTH",
"600 594 OFFCURVE",
"606 610 OFFCURVE",
"606 614 CURVE SMOOTH",
"606 618 OFFCURVE",
"605 621 OFFCURVE",
"602 624 CURVE",
"623 626 OFFCURVE",
"644 627 OFFCURVE",
"665 627 CURVE SMOOTH",
"725 627 OFFCURVE",
"762 618 OFFCURVE",
"768 618 CURVE SMOOTH",
"776 618 OFFCURVE",
"782 623 OFFCURVE",
"782 633 CURVE SMOOTH",
"782 644 OFFCURVE",
"778 648 OFFCURVE",
"765 650 CURVE SMOOTH",
"741 655 OFFCURVE",
"697 660 OFFCURVE",
"658 660 CURVE SMOOTH",
"610 660 OFFCURVE",
"561 655 OFFCURVE",
"510 645 CURVE SMOOTH",
"451 634 OFFCURVE",
"404 618 OFFCURVE",
"376 601 CURVE SMOOTH",
"366 595 OFFCURVE",
"363 591 OFFCURVE",
"363 584 CURVE SMOOTH",
"363 574 OFFCURVE",
"369 567 OFFCURVE",
"382 567 CURVE SMOOTH",
"391 567 OFFCURVE",
"414 576 OFFCURVE",
"465 592 CURVE SMOOTH",
"518 609 OFFCURVE",
"554 618 OFFCURVE",
"571 620 CURVE",
"542 527 OFFCURVE",
"483 408 OFFCURVE",
"394 264 CURVE SMOOTH",
"313 132 OFFCURVE",
"213 -10 OFFCURVE",
"116 -10 CURVE SMOOTH",
"75 -10 OFFCURVE",
"55 9 OFFCURVE",
"55 47 CURVE SMOOTH",
"55 95 OFFCURVE",
"88 157 OFFCURVE",
"133 196 CURVE SMOOTH",
"144 206 OFFCURVE",
"150 215 OFFCURVE",
"150 223 CURVE SMOOTH",
"150 231 OFFCURVE",
"146 236 OFFCURVE",
"137 236 CURVE SMOOTH",
"129 236 OFFCURVE",
"119 231 OFFCURVE",
"107 220 CURVE SMOOTH",
"62 181 OFFCURVE",
"18 110 OFFCURVE",
"18 49 CURVE SMOOTH",
"18 -8 OFFCURVE",
"57 -46 OFFCURVE",
"114 -46 CURVE SMOOTH"
);
}
);
userData = {
assembly = "NPUSHB[ ]	/* 34 values pushed */\0121 61 61 64 62 51 57 53 49 48 38 34 28 24 23 17 59 51 49 48 40 34 26 24 23 19 11 0 46 8 1 1 11 70 \012SROUND[ ]	/* SuperRound */\012MDAP[1]	/* MoveDirectAbsPt */\012SHZ[1]	/* ShiftZoneByLastPoint */\012RTG[ ]	/* RoundToGrid */\012SVTCA[0]	/* SetFreedomAndProjectionVectorToAxis */\012MIAP[1]	/* MoveIndirectAbsPt */\012MDAP[1]	/* MoveDirectAbsPt */\012SVTCA[1]	/* SetFreedomAndProjectionVectorToAxis */\012MDAP[0]	/* MoveDirectAbsPt */\012MDAP[0]	/* MoveDirectAbsPt */\012MDAP[0]	/* MoveDirectAbsPt */\012MDAP[0]	/* MoveDirectAbsPt */\012MDAP[0]	/* MoveDirectAbsPt */\012MDAP[0]	/* MoveDirectAbsPt */\012MDAP[0]	/* MoveDirectAbsPt */\012MDAP[0]	/* MoveDirectAbsPt */\012MDAP[0]	/* MoveDirectAbsPt */\012MDAP[0]	/* MoveDirectAbsPt */\012MDAP[0]	/* MoveDirectAbsPt */\012MDAP[0]	/* MoveDirectAbsPt */\012SVTCA[0]	/* SetFreedomAndProjectionVectorToAxis */\012MDAP[0]	/* MoveDirectAbsPt */\012MDAP[0]	/* MoveDirectAbsPt */\012MDAP[0]	/* MoveDirectAbsPt */\012MDAP[0]	/* MoveDirectAbsPt */\012MDAP[0]	/* MoveDirectAbsPt */\012MDAP[0]	/* MoveDirectAbsPt */\012MDAP[0]	/* MoveDirectAbsPt */\012MDAP[0]	/* MoveDirectAbsPt */\012MDAP[0]	/* MoveDirectAbsPt */\012MDAP[0]	/* MoveDirectAbsPt */\012IUP[1]	/* InterpolateUntPts */\012IUP[0]	/* InterpolateUntPts */\012SVTCA[1]	/* SetFreedomAndProjectionVectorToAxis */\012MD[0]	/* MeasureDistance */\012ROUND[00]	/* Round */\012PUSHW[ ]	/* 2 values pushed */\01211 61 \012MD[0]	/* MeasureDistance */\012ROUND[00]	/* Round */\012SUB[ ]	/* Subtract */\012PUSHB[ ]	/* 1 value pushed */\01264 \012GT[ ]	/* GreaterThan */\012IF[ ]	/* If */\012SHPIX[ ]	/* ShiftZoneByPixel */\012SRP1[ ]	/* SetRefPoint1 */\012SHZ[1]	/* ShiftZoneByLastPoint */\012PUSHW[ ]	/* 2 values pushed */\01261 -64 \012SHPIX[ ]	/* ShiftZoneByPixel */\012EIF[ ]	/* EndIf */";
};
width = 474;
}
);
note = J;
unicode = 004A;
},
{
glyphname = K;
lastChange = "2021-11-06 01:07:24 +0000";
layers = (
{
background = {
paths = (
{
closed = 1;
nodes = (
"491 -32 OFFCURVE",
"500 -27 OFFCURVE",
"508 -16 CURVE SMOOTH",
"526 12 LINE SMOOTH",
"575 86 OFFCURVE",
"599 149 OFFCURVE",
"599 201 CURVE SMOOTH",
"599 250 OFFCURVE",
"574 286 OFFCURVE",
"525 309 CURVE SMOOTH",
"487 327 OFFCURVE",
"440 336 OFFCURVE",
"384 336 CURVE SMOOTH",
"369 336 OFFCURVE",
"358 336 OFFCURVE",
"350 335 CURVE",
"448 375 OFFCURVE",
"521 405 OFFCURVE",
"570 424 CURVE",
"711 490 OFFCURVE",
"808 544 OFFCURVE",
"859 587 CURVE",
"862 589 OFFCURVE",
"864 592 OFFCURVE",
"864 596 CURVE SMOOTH",
"864 609 OFFCURVE",
"858 615 OFFCURVE",
"845 615 CURVE SMOOTH",
"842 615 OFFCURVE",
"838 614 OFFCURVE",
"835 612 CURVE SMOOTH",
"752 557 OFFCURVE",
"659 504 OFFCURVE",
"554 455 CURVE SMOOTH",
"480 420 OFFCURVE",
"405 388 OFFCURVE",
"330 357 CURVE SMOOTH",
"242 322 LINE",
"218 318 LINE",
"209 315 OFFCURVE",
"190 280 OFFCURVE",
"190 276 CURVE SMOOTH",
"190 265 OFFCURVE",
"195 259 OFFCURVE",
"206 259 CURVE SMOOTH",
"214 259 OFFCURVE",
"242 267 OFFCURVE",
"289 282 CURVE SMOOTH",
"336 297 OFFCURVE",
"374 305 OFFCURVE",
"402 305 CURVE SMOOTH",
"444 305 OFFCURVE",
"479 298 OFFCURVE",
"506 283 CURVE SMOOTH",
"541 264 OFFCURVE",
"559 235 OFFCURVE",
"559 197 CURVE SMOOTH",
"559 170 OFFCURVE",
"551 137 OFFCURVE",
"534 100 CURVE SMOOTH",
"523 75 OFFCURVE",
"508 48 OFFCURVE",
"489 18 CURVE SMOOTH",
"464 -21 LINE",
"464 -28 OFFCURVE",
"470 -32 OFFCURVE",
"481 -32 CURVE SMOOTH"
);
},
{
closed = 1;
nodes = (
"22 -58 OFFCURVE",
"25 -54 OFFCURVE",
"25 -47 CURVE SMOOTH",
"28 -19 OFFCURVE",
"56 44 OFFCURVE",
"109 142 CURVE SMOOTH",
"112 149 OFFCURVE",
"148 212 OFFCURVE",
"217 331 CURVE SMOOTH",
"299 474 LINE SMOOTH",
"337 545 OFFCURVE",
"356 594 OFFCURVE",
"356 621 CURVE SMOOTH",
"356 623 OFFCURVE",
"355 627 OFFCURVE",
"354 634 CURVE",
"354 631 LINE",
"353 642 OFFCURVE",
"347 647 OFFCURVE",
"337 647 CURVE SMOOTH",
"329 647 OFFCURVE",
"324 642 OFFCURVE",
"323 631 CURVE SMOOTH",
"318 599 OFFCURVE",
"273 506 OFFCURVE",
"187 353 CURVE SMOOTH",
"76 157 LINE SMOOTH",
"21 54 OFFCURVE",
"-7 -11 OFFCURVE",
"-7 -38 CURVE SMOOTH",
"-7 -47 OFFCURVE",
"7 -58 OFFCURVE",
"16 -58 CURVE SMOOTH"
);
}
);
};
layerId = "5D3CF454-A725-4551-B6FA-6F6FD8C18533";
paths = (
{
closed = 1;
nodes = (
"491 -32 OFFCURVE",
"501 -27 OFFCURVE",
"508 -16 CURVE SMOOTH",
"535 26 LINE SMOOTH",
"574 87 OFFCURVE",
"599 149 OFFCURVE",
"599 201 CURVE SMOOTH",
"599 299 OFFCURVE",
"495 336 OFFCURVE",
"384 336 CURVE SMOOTH",
"369 336 OFFCURVE",
"352 334 OFFCURVE",
"336 330 CURVE",
"434 370 OFFCURVE",
"521 405 OFFCURVE",
"570 424 CURVE",
"711 490 OFFCURVE",
"808 544 OFFCURVE",
"849 578 CURVE SMOOTH",
"861 588 OFFCURVE",
"864 592 OFFCURVE",
"864 600 CURVE SMOOTH",
"864 608 OFFCURVE",
"857 615 OFFCURVE",
"848 615 CURVE SMOOTH",
"842 615 OFFCURVE",
"838 614 OFFCURVE",
"825 605 CURVE SMOOTH",
"752 557 OFFCURVE",
"659 504 OFFCURVE",
"554 455 CURVE SMOOTH",
"480 420 OFFCURVE",
"405 387 OFFCURVE",
"330 357 CURVE SMOOTH",
"242 322 LINE",
"218 318 LINE",
"209 315 OFFCURVE",
"190 280 OFFCURVE",
"190 276 CURVE SMOOTH",
"190 265 OFFCURVE",
"195 259 OFFCURVE",
"206 259 CURVE SMOOTH",
"214 259 OFFCURVE",
"242 267 OFFCURVE",
"289 282 CURVE SMOOTH",
"336 297 OFFCURVE",
"374 305 OFFCURVE",
"402 305 CURVE SMOOTH",
"488 305 OFFCURVE",
"559 272 OFFCURVE",
"559 197 CURVE SMOOTH",
"559 143 OFFCURVE",
"526 75 OFFCURVE",
"495 26 CURVE SMOOTH",
"481 5 OFFCURVE",
"464 -15 OFFCURVE",
"464 -21 CURVE SMOOTH",
"464 -28 OFFCURVE",
"470 -32 OFFCURVE",
"481 -32 CURVE SMOOTH"
);
},
{
closed = 1;
nodes = (
"22 -58 OFFCURVE",
"25 -54 OFFCURVE",
"25 -47 CURVE SMOOTH",
"28 -19 OFFCURVE",
"56 44 OFFCURVE",
"90 108 CURVE SMOOTH",
"112 149 OFFCURVE",
"149 212 OFFCURVE",
"217 331 CURVE SMOOTH",
"299 474 LINE SMOOTH",
"339 544 OFFCURVE",
"356 594 OFFCURVE",
"356 621 CURVE SMOOTH",
"356 633 OFFCURVE",
"352 647 OFFCURVE",
"337 647 CURVE SMOOTH",
"329 647 OFFCURVE",
"324 642 OFFCURVE",
"323 631 CURVE SMOOTH",
"318 599 OFFCURVE",
"273 506 OFFCURVE",
"187 353 CURVE SMOOTH",
"76 157 LINE SMOOTH",
"31 78 OFFCURVE",
"-7 -11 OFFCURVE",
"-7 -38 CURVE SMOOTH",
"-7 -47 OFFCURVE",
"7 -58 OFFCURVE",
"16 -58 CURVE SMOOTH"
);
}
);
userData = {
assembly = "NPUSHB[ ]	/* 31 values pushed */\0121 77 77 64 78 28 61 58 46 26 1 0 63 54 48 40 34 28 16 3 1 0 24 36 34 2 13 1 1 16 70 \012SROUND[ ]	/* SuperRound */\012MDAP[1]	/* MoveDirectAbsPt */\012SHZ[1]	/* ShiftZoneByLastPoint */\012RTG[ ]	/* RoundToGrid */\012SVTCA[0]	/* SetFreedomAndProjectionVectorToAxis */\012MIAP[1]	/* MoveIndirectAbsPt */\012MIAP[1]	/* MoveIndirectAbsPt */\012ALIGNRP[ ]	/* AlignRelativePt */\012MDAP[1]	/* MoveDirectAbsPt */\012SVTCA[1]	/* SetFreedomAndProjectionVectorToAxis */\012MDAP[0]	/* MoveDirectAbsPt */\012MDAP[0]	/* MoveDirectAbsPt */\012MDAP[0]	/* MoveDirectAbsPt */\012MDAP[0]	/* MoveDirectAbsPt */\012MDAP[0]	/* MoveDirectAbsPt */\012MDAP[0]	/* MoveDirectAbsPt */\012MDAP[0]	/* MoveDirectAbsPt */\012MDAP[0]	/* MoveDirectAbsPt */\012MDAP[0]	/* MoveDirectAbsPt */\012MDAP[0]	/* MoveDirectAbsPt */\012SVTCA[0]	/* SetFreedomAndProjectionVectorToAxis */\012MDAP[0]	/* MoveDirectAbsPt */\012MDAP[0]	/* MoveDirectAbsPt */\012MDAP[0]	/* MoveDirectAbsPt */\012MDAP[0]	/* MoveDirectAbsPt */\012MDAP[0]	/* MoveDirectAbsPt */\012MDAP[0]	/* MoveDirectAbsPt */\012IUP[1]	/* InterpolateUntPts */\012IUP[0]	/* InterpolateUntPts */\012SVTCA[1]	/* SetFreedomAndProjectionVectorToAxis */\012MD[0]	/* MeasureDistance */\012ROUND[00]	/* Round */\012PUSHW[ ]	/* 2 values pushed */\01216 77 \012MD[0]	/* MeasureDistance */\012ROUND[00]	/* Round */\012SUB[ ]	/* Subtract */\012PUSHB[ ]	/* 1 value pushed */\01264 \012GT[ ]	/* GreaterThan */\012IF[ ]	/* If */\012SHPIX[ ]	/* ShiftZoneByPixel */\012SRP1[ ]	/* SetRefPoint1 */\012SHZ[1]	/* ShiftZoneByLastPoint */\012PUSHW[ ]	/* 2 values pushed */\01277 -64 \012SHPIX[ ]	/* ShiftZoneByPixel */\012EIF[ ]	/* EndIf */";
};
width = 650;
}
);
note = K;
unicode = 004B;
},
{
glyphname = L;
lastChange = "2021-11-06 01:09:58 +0000";
layers = (
{
background = {
paths = (
{
closed = 1;
nodes = (
"51 -58 OFFCURVE",
"55 -57 OFFCURVE",
"65 -54 CURVE SMOOTH",
"173 -26 LINE SMOOTH",
"294 3 OFFCURVE",
"389 21 OFFCURVE",
"457 29 CURVE SMOOTH",
"474 31 OFFCURVE",
"494 32 OFFCURVE",
"515 32 CURVE SMOOTH",
"555 32 OFFCURVE",
"583 29 OFFCURVE",
"600 22 CURVE",
"603 19 OFFCURVE",
"604 19 OFFCURVE",
"604 20 CURVE SMOOTH",
"604 18 LINE SMOOTH",
"603 9 OFFCURVE",
"607 4 OFFCURVE",
"616 4 CURVE SMOOTH",
"629 4 OFFCURVE",
"635 9 OFFCURVE",
"635 19 CURVE SMOOTH",
"635 23 LINE",
"616 52 OFFCURVE",
"580 66 OFFCURVE",
"525 66 CURVE SMOOTH",
"420 66 OFFCURVE",
"272 40 OFFCURVE",
"79 -12 CURVE",
"146 107 OFFCURVE",
"205 208 OFFCURVE",
"256 292 CURVE SMOOTH",
"390 515 OFFCURVE",
"457 628 OFFCURVE",
"457 632 CURVE SMOOTH",
"457 641 OFFCURVE",
"445 652 OFFCURVE",
"436 652 CURVE SMOOTH",
"431 652 OFFCURVE",
"428 650 OFFCURVE",
"425 646 CURVE SMOOTH",
"394 596 OFFCURVE",
"372 558 OFFCURVE",
"357 532 CURVE SMOOTH",
"226 313 LINE SMOOTH",
"140 171 OFFCURVE",
"73 57 OFFCURVE",
"26 -30 CURVE",
"28 -31 LINE",
"27 -32 OFFCURVE",
"27 -34 OFFCURVE",
"27 -36 CURVE SMOOTH",
"27 -47 OFFCURVE",
"41 -58 OFFCURVE",
"52 -58 CURVE SMOOTH"
);
}
);
};
layerId = "5D3CF454-A725-4551-B6FA-6F6FD8C18533";
paths = (
{
closed = 1;
nodes = (
"55 -58 OFFCURVE",
"65 -54 OFFCURVE",
"90 -48 CURVE SMOOTH",
"132 -37 OFFCURVE",
"183 -22 OFFCURVE",
"239 -10 CURVE SMOOTH",
"324 9 OFFCURVE",
"439 32 OFFCURVE",
"515 32 CURVE SMOOTH",
"556 32 OFFCURVE",
"590 28 OFFCURVE",
"604 21 CURVE",
"604 18 LINE SMOOTH",
"604 9 OFFCURVE",
"609 3 OFFCURVE",
"618 3 CURVE SMOOTH",
"629 3 OFFCURVE",
"635 9 OFFCURVE",
"635 20 CURVE SMOOTH",
"635 40 OFFCURVE",
"588 66 OFFCURVE",
"525 66 CURVE SMOOTH",
"420 66 OFFCURVE",
"272 40 OFFCURVE",
"79 -12 CURVE",
"146 107 OFFCURVE",
"205 208 OFFCURVE",
"256 292 CURVE SMOOTH",
"390 515 OFFCURVE",
"457 626 OFFCURVE",
"457 632 CURVE SMOOTH",
"457 641 OFFCURVE",
"445 652 OFFCURVE",
"436 652 CURVE SMOOTH",
"431 652 OFFCURVE",
"428 650 OFFCURVE",
"423 643 CURVE SMOOTH",
"392 593 OFFCURVE",
"372 558 OFFCURVE",
"357 532 CURVE SMOOTH",
"226 313 LINE SMOOTH",
"84 76 OFFCURVE",
"27 -18 OFFCURVE",
"27 -36 CURVE SMOOTH",
"27 -47 OFFCURVE",
"42 -58 OFFCURVE",
"52 -58 CURVE SMOOTH"
);
}
);
userData = {
assembly = "NPUSHB[ ]	/* 25 values pushed */\0121 43 43 64 44 4 14 7 2 0 39 28 27 25 10 9 5 4 0 36 22 1 1 28 70 \012SROUND[ ]	/* SuperRound */\012MDAP[1]	/* MoveDirectAbsPt */\012SHZ[1]	/* ShiftZoneByLastPoint */\012RTG[ ]	/* RoundToGrid */\012SVTCA[0]	/* SetFreedomAndProjectionVectorToAxis */\012MIAP[1]	/* MoveIndirectAbsPt */\012MDAP[1]	/* MoveDirectAbsPt */\012SVTCA[1]	/* SetFreedomAndProjectionVectorToAxis */\012MDAP[0]	/* MoveDirectAbsPt */\012MDAP[0]	/* MoveDirectAbsPt */\012MDAP[0]	/* MoveDirectAbsPt */\012MDAP[0]	/* MoveDirectAbsPt */\012MDAP[0]	/* MoveDirectAbsPt */\012MDAP[0]	/* MoveDirectAbsPt */\012MDAP[0]	/* MoveDirectAbsPt */\012MDAP[0]	/* MoveDirectAbsPt */\012MDAP[0]	/* MoveDirectAbsPt */\012SVTCA[0]	/* SetFreedomAndProjectionVectorToAxis */\012MDAP[0]	/* MoveDirectAbsPt */\012MDAP[0]	/* MoveDirectAbsPt */\012MDAP[0]	/* MoveDirectAbsPt */\012MDAP[0]	/* MoveDirectAbsPt */\012IUP[1]	/* InterpolateUntPts */\012IUP[0]	/* InterpolateUntPts */\012SVTCA[1]	/* SetFreedomAndProjectionVectorToAxis */\012MD[0]	/* MeasureDistance */\012ROUND[00]	/* Round */\012PUSHW[ ]	/* 2 values pushed */\01228 43 \012MD[0]	/* MeasureDistance */\012ROUND[00]	/* Round */\012SUB[ ]	/* Subtract */\012PUSHB[ ]	/* 1 value pushed */\01264 \012GT[ ]	/* GreaterThan */\012IF[ ]	/* If */\012SHPIX[ ]	/* ShiftZoneByPixel */\012SRP1[ ]	/* SetRefPoint1 */\012SHZ[1]	/* ShiftZoneByLastPoint */\012PUSHW[ ]	/* 2 values pushed */\01243 -64 \012SHPIX[ ]	/* ShiftZoneByPixel */\012EIF[ ]	/* EndIf */";
};
width = 649;
}
);
note = L;
unicode = 004C;
},
{
glyphname = M;
lastChange = "2021-11-06 01:12:46 +0000";
layers = (
{
background = {
paths = (
{
closed = 1;
nodes = (
"25 -68 OFFCURVE",
"32 -62 OFFCURVE",
"39 -50 CURVE SMOOTH",
"136 123 OFFCURVE",
"196 200 OFFCURVE",
"299 312 CURVE SMOOTH",
"338 354 OFFCURVE",
"384 400 OFFCURVE",
"438 449 CURVE SMOOTH",
"516 520 OFFCURVE",
"567 555 OFFCURVE",
"591 555 CURVE SMOOTH",
"600 555 OFFCURVE",
"604 547 OFFCURVE",
"604 531 CURVE SMOOTH",
"604 503 OFFCURVE",
"586 440 OFFCURVE",
"551 342 CURVE SMOOTH",
"477 144 LINE SMOOTH",
"458 88 OFFCURVE",
"449 50 OFFCURVE",
"449 31 CURVE SMOOTH",
"449 19 OFFCURVE",
"455 13 OFFCURVE",
"466 13 CURVE SMOOTH",
"473 13 OFFCURVE",
"479 15 OFFCURVE",
"482 18 CURVE SMOOTH",
"500 39 OFFCURVE",
"513 55 OFFCURVE",
"522 66 CURVE SMOOTH",
"589 144 LINE SMOOTH",
"740 309 OFFCURVE",
"890 423 OFFCURVE",
"1038 487 CURVE SMOOTH",
"1051 493 OFFCURVE",
"1060 496 OFFCURVE",
"1063 496 CURVE SMOOTH",
"1066 496 OFFCURVE",
"1068 494 OFFCURVE",
"1068 490 CURVE SMOOTH",
"1068 485 OFFCURVE",
"1065 475 OFFCURVE",
"1058 459 CURVE SMOOTH",
"946 216 LINE SMOOTH",
"892 96 OFFCURVE",
"865 17 OFFCURVE",
"865 -20 CURVE SMOOTH",
"865 -51 OFFCURVE",
"879 -66 OFFCURVE",
"906 -66 CURVE SMOOTH",
"917 -66 OFFCURVE",
"929 -63 OFFCURVE",
"942 -58 CURVE SMOOTH",
"963 -49 OFFCURVE",
"987 -33 OFFCURVE",
"1015 -9 CURVE SMOOTH",
"1029 4 OFFCURVE",
"1048 22 OFFCURVE",
"1072 47 CURVE SMOOTH",
"1075 50 OFFCURVE",
"1076 54 OFFCURVE",
"1076 57 CURVE SMOOTH",
"1076 69 OFFCURVE",
"1070 75 OFFCURVE",
"1058 75 CURVE SMOOTH",
"1054 75 OFFCURVE",
"1038 61 OFFCURVE",
"1011 33 CURVE SMOOTH",
"982 2 OFFCURVE",
"957 -17 OFFCURVE",
"937 -26 CURVE SMOOTH",
"928 -30 OFFCURVE",
"920 -32 OFFCURVE",
"915 -32 CURVE SMOOTH",
"906 -32 OFFCURVE",
"902 -27 OFFCURVE",
"902 -16 CURVE SMOOTH",
"902 -12 OFFCURVE",
"903 -7 OFFCURVE",
"904 0 CURVE SMOOTH",
"914 41 OFFCURVE",
"943 112 OFFCURVE",
"991 214 CURVE SMOOTH",
"1083 409 LINE SMOOTH",
"1100 448 OFFCURVE",
"1109 480 OFFCURVE",
"1109 503 CURVE SMOOTH",
"1109 526 OFFCURVE",
"1100 537 OFFCURVE",
"1081 537 CURVE SMOOTH",
"1074 537 OFFCURVE",
"1065 535 OFFCURVE",
"1055 532 CURVE SMOOTH",
"1032 524 OFFCURVE",
"1000 509 OFFCURVE",
"959 487 CURVE SMOOTH",
"802 403 OFFCURVE",
"648 269 OFFCURVE",
"497 86 CURVE",
"502 105 OFFCURVE",
"530 180 OFFCURVE",
"581 311 CURVE SMOOTH",
"620 414 OFFCURVE",
"640 486 OFFCURVE",
"640 527 CURVE SMOOTH",
"640 564 OFFCURVE",
"626 583 OFFCURVE",
"597 583 CURVE SMOOTH",
"552 583 OFFCURVE",
"480 537 OFFCURVE",
"381 444 CURVE SMOOTH",
"314 382 OFFCURVE",
"253 317 OFFCURVE",
"196 248 CURVE",
"225 307 OFFCURVE",
"252 369 OFFCURVE",
"277 436 CURVE SMOOTH",
"308 523 OFFCURVE",
"324 589 OFFCURVE",
"324 633 CURVE SMOOTH",
"324 648 OFFCURVE",
"320 656 OFFCURVE",
"312 656 CURVE SMOOTH",
"301 656 OFFCURVE",
"287 642 OFFCURVE",
"287 634 CURVE SMOOTH",
"287 575 OFFCURVE",
"262 489 OFFCURVE",
"212 375 CURVE SMOOTH",
"179 301 OFFCURVE",
"133 209 OFFCURVE",
"72 98 CURVE SMOOTH",
"22 6 OFFCURVE",
"-3 -42 OFFCURVE",
"-3 -46 CURVE SMOOTH",
"-3 -61 OFFCURVE",
"4 -68 OFFCURVE",
"17 -68 CURVE SMOOTH"
);
}
);
};
layerId = "5D3CF454-A725-4551-B6FA-6F6FD8C18533";
paths = (
{
closed = 1;
nodes = (
"25 -68 OFFCURVE",
"32 -62 OFFCURVE",
"39 -50 CURVE SMOOTH",
"136 123 OFFCURVE",
"196 200 OFFCURVE",
"299 312 CURVE SMOOTH",
"338 354 OFFCURVE",
"384 400 OFFCURVE",
"438 449 CURVE SMOOTH",
"516 520 OFFCURVE",
"567 555 OFFCURVE",
"587 555 CURVE SMOOTH",
"598 555 OFFCURVE",
"604 550 OFFCURVE",
"604 535 CURVE SMOOTH",
"604 503 OFFCURVE",
"587 439 OFFCURVE",
"551 342 CURVE SMOOTH",
"477 144 LINE SMOOTH",
"461 101 OFFCURVE",
"449 56 OFFCURVE",
"449 31 CURVE SMOOTH",
"449 19 OFFCURVE",
"455 13 OFFCURVE",
"466 13 CURVE SMOOTH",
"480 13 OFFCURVE",
"483 19 OFFCURVE",
"500 39 CURVE SMOOTH",
"592 149 OFFCURVE",
"651 215 OFFCURVE",
"753 304 CURVE SMOOTH",
"837 377 OFFCURVE",
"941 443 OFFCURVE",
"1023 481 CURVE SMOOTH",
"1051 494 OFFCURVE",
"1060 496 OFFCURVE",
"1063 496 CURVE SMOOTH",
"1066 496 OFFCURVE",
"1068 494 OFFCURVE",
"1068 490 CURVE SMOOTH",
"1068 485 OFFCURVE",
"1065 475 OFFCURVE",
"1051 444 CURVE SMOOTH",
"946 216 LINE SMOOTH",
"891 96 OFFCURVE",
"865 17 OFFCURVE",
"865 -20 CURVE SMOOTH",
"865 -51 OFFCURVE",
"879 -66 OFFCURVE",
"906 -66 CURVE SMOOTH",
"941 -66 OFFCURVE",
"980 -39 OFFCURVE",
"1015 -9 CURVE SMOOTH",
"1029 4 OFFCURVE",
"1048 22 OFFCURVE",
"1065 40 CURVE SMOOTH",
"1074 49 OFFCURVE",
"1076 53 OFFCURVE",
"1076 57 CURVE SMOOTH",
"1076 69 OFFCURVE",
"1070 75 OFFCURVE",
"1060 75 CURVE SMOOTH",
"1051 75 OFFCURVE",
"1038 61 OFFCURVE",
"1031 53 CURVE SMOOTH",
"984 4 OFFCURVE",
"942 -32 OFFCURVE",
"915 -32 CURVE SMOOTH",
"906 -32 OFFCURVE",
"902 -27 OFFCURVE",
"902 -16 CURVE SMOOTH",
"902 20 OFFCURVE",
"956 140 OFFCURVE",
"991 214 CURVE SMOOTH",
"1083 409 LINE SMOOTH",
"1101 447 OFFCURVE",
"1109 480 OFFCURVE",
"1109 503 CURVE SMOOTH",
"1109 526 OFFCURVE",
"1100 537 OFFCURVE",
"1081 537 CURVE SMOOTH",
"1055 537 OFFCURVE",
"1001 510 OFFCURVE",
"959 487 CURVE SMOOTH",
"802 403 OFFCURVE",
"648 269 OFFCURVE",
"497 86 CURVE",
"502 105 OFFCURVE",
"530 180 OFFCURVE",
"581 311 CURVE SMOOTH",
"620 414 OFFCURVE",
"640 486 OFFCURVE",
"640 527 CURVE SMOOTH",
"640 564 OFFCURVE",
"626 583 OFFCURVE",
"597 583 CURVE SMOOTH",
"552 583 OFFCURVE",
"480 537 OFFCURVE",
"381 444 CURVE SMOOTH",
"314 382 OFFCURVE",
"253 317 OFFCURVE",
"196 248 CURVE",
"225 307 OFFCURVE",
"252 369 OFFCURVE",
"277 436 CURVE SMOOTH",
"308 523 OFFCURVE",
"324 589 OFFCURVE",
"324 633 CURVE SMOOTH",
"324 648 OFFCURVE",
"320 656 OFFCURVE",
"312 656 CURVE SMOOTH",
"301 656 OFFCURVE",
"287 642 OFFCURVE",
"287 634 CURVE SMOOTH",
"287 575 OFFCURVE",
"262 489 OFFCURVE",
"212 375 CURVE SMOOTH",
"179 301 OFFCURVE",
"133 209 OFFCURVE",
"72 98 CURVE SMOOTH",
"47 51 OFFCURVE",
"28 16 OFFCURVE",
"15 -8 CURVE SMOOTH",
"3 -31 OFFCURVE",
"-3 -42 OFFCURVE",
"-3 -49 CURVE SMOOTH",
"-3 -60 OFFCURVE",
"4 -68 OFFCURVE",
"17 -68 CURVE SMOOTH"
);
}
);
userData = {
assembly = "NPUSHB[ ]	/* 35 values pushed */\0121 100 100 64 101 22 78 68 58 38 32 14 8 4 89 76 70 56 50 40 30 22 14 10 4 0 98 87 48 1 20 3 1 89 70 \012SROUND[ ]	/* SuperRound */\012MDAP[1]	/* MoveDirectAbsPt */\012SHZ[1]	/* ShiftZoneByLastPoint */\012RTG[ ]	/* RoundToGrid */\012SVTCA[0]	/* SetFreedomAndProjectionVectorToAxis */\012MIAP[1]	/* MoveIndirectAbsPt */\012MIAP[1]	/* MoveIndirectAbsPt */\012ALIGNRP[ ]	/* AlignRelativePt */\012MDAP[1]	/* MoveDirectAbsPt */\012SVTCA[1]	/* SetFreedomAndProjectionVectorToAxis */\012MDAP[0]	/* MoveDirectAbsPt */\012MDAP[0]	/* MoveDirectAbsPt */\012MDAP[0]	/* MoveDirectAbsPt */\012MDAP[0]	/* MoveDirectAbsPt */\012MDAP[0]	/* MoveDirectAbsPt */\012MDAP[0]	/* MoveDirectAbsPt */\012MDAP[0]	/* MoveDirectAbsPt */\012MDAP[0]	/* MoveDirectAbsPt */\012MDAP[0]	/* MoveDirectAbsPt */\012MDAP[0]	/* MoveDirectAbsPt */\012MDAP[0]	/* MoveDirectAbsPt */\012MDAP[0]	/* MoveDirectAbsPt */\012SVTCA[0]	/* SetFreedomAndProjectionVectorToAxis */\012MDAP[0]	/* MoveDirectAbsPt */\012MDAP[0]	/* MoveDirectAbsPt */\012MDAP[0]	/* MoveDirectAbsPt */\012MDAP[0]	/* MoveDirectAbsPt */\012MDAP[0]	/* MoveDirectAbsPt */\012MDAP[0]	/* MoveDirectAbsPt */\012MDAP[0]	/* MoveDirectAbsPt */\012MDAP[0]	/* MoveDirectAbsPt */\012IUP[1]	/* InterpolateUntPts */\012IUP[0]	/* InterpolateUntPts */\012SVTCA[1]	/* SetFreedomAndProjectionVectorToAxis */\012MD[0]	/* MeasureDistance */\012ROUND[00]	/* Round */\012PUSHW[ ]	/* 2 values pushed */\01289 100 \012MD[0]	/* MeasureDistance */\012ROUND[00]	/* Round */\012SUB[ ]	/* Subtract */\012PUSHB[ ]	/* 1 value pushed */\01264 \012GT[ ]	/* GreaterThan */\012IF[ ]	/* If */\012SHPIX[ ]	/* ShiftZoneByPixel */\012SRP1[ ]	/* SetRefPoint1 */\012SHZ[1]	/* ShiftZoneByLastPoint */\012PUSHW[ ]	/* 2 values pushed */\012100 -64 \012SHPIX[ ]	/* ShiftZoneByPixel */\012EIF[ ]	/* EndIf */";
};
width = 1123;
}
);
note = M;
unicode = 004D;
},
{
glyphname = N;
lastChange = "2021-11-06 01:16:04 +0000";
layers = (
{
background = {
paths = (
{
closed = 1;
nodes = (
"1 -67 OFFCURVE",
"4 -63 OFFCURVE",
"4 -56 CURVE SMOOTH",
"4 -58 LINE",
"39 67 OFFCURVE",
"94 192 OFFCURVE",
"169 316 CURVE SMOOTH",
"239 433 OFFCURVE",
"301 517 OFFCURVE",
"354 568 CURVE",
"354 556 OFFCURVE",
"353 544 OFFCURVE",
"353 532 CURVE SMOOTH",
"353 360 OFFCURVE",
"387 128 OFFCURVE",
"437 -30 CURVE",
"438 -28 LINE",
"438 -37 OFFCURVE",
"443 -42 OFFCURVE",
"454 -42 CURVE SMOOTH",
"461 -42 OFFCURVE",
"465 -40 OFFCURVE",
"468 -35 CURVE",
"468 -36 LINE",
"508 25 OFFCURVE",
"539 71 OFFCURVE",
"561 100 CURVE SMOOTH",
"611 172 OFFCURVE",
"654 240 OFFCURVE",
"689 305 CURVE SMOOTH",
"796 499 LINE SMOOTH",
"847 596 OFFCURVE",
"872 661 OFFCURVE",
"872 692 CURVE SMOOTH",
"872 705 OFFCURVE",
"865 711 OFFCURVE",
"852 711 CURVE SMOOTH",
"843 711 OFFCURVE",
"839 706 OFFCURVE",
"839 697 CURVE SMOOTH",
"839 670 OFFCURVE",
"814 607 OFFCURVE",
"763 510 CURVE SMOOTH",
"755 494 OFFCURVE",
"721 431 OFFCURVE",
"660 322 CURVE SMOOTH",
"619 247 OFFCURVE",
"553 148 OFFCURVE",
"462 24 CURVE",
"415 206 OFFCURVE",
"392 375 OFFCURVE",
"392 530 CURVE SMOOTH",
"392 538 OFFCURVE",
"393 550 OFFCURVE",
"394 566 CURVE SMOOTH",
"395 582 OFFCURVE",
"395 594 OFFCURVE",
"395 601 CURVE SMOOTH",
"395 615 OFFCURVE",
"387 622 OFFCURVE",
"371 622 CURVE SMOOTH",
"367 622 OFFCURVE",
"364 621 OFFCURVE",
"362 620 CURVE",
"362 619 LINE",
"307 581 OFFCURVE",
"233 486 OFFCURVE",
"140 334 CURVE SMOOTH",
"68 216 OFFCURVE",
"11 89 OFFCURVE",
"-30 -46 CURVE",
"-29 -44 LINE",
"-29 -56 OFFCURVE",
"-17 -67 OFFCURVE",
"-6 -67 CURVE SMOOTH"
);
}
);
};
layerId = "5D3CF454-A725-4551-B6FA-6F6FD8C18533";
paths = (
{
closed = 1;
nodes = (
"0 -67 OFFCURVE",
"5 -58 OFFCURVE",
"10 -42 CURVE SMOOTH",
"45 77 OFFCURVE",
"93 191 OFFCURVE",
"169 316 CURVE SMOOTH",
"239 433 OFFCURVE",
"301 517 OFFCURVE",
"354 568 CURVE",
"354 556 OFFCURVE",
"354 544 OFFCURVE",
"354 498 CURVE SMOOTH",
"354 349 OFFCURVE",
"389 128 OFFCURVE",
"434 -19 CURVE SMOOTH",
"439 -37 OFFCURVE",
"443 -42 OFFCURVE",
"454 -42 CURVE SMOOTH",
"463 -42 OFFCURVE",
"467 -38 OFFCURVE",
"472 -30 CURVE SMOOTH",
"510 28 OFFCURVE",
"540 72 OFFCURVE",
"561 100 CURVE SMOOTH",
"611 172 OFFCURVE",
"653 240 OFFCURVE",
"713 349 CURVE SMOOTH",
"824 550 OFFCURVE",
"872 633 OFFCURVE",
"872 692 CURVE SMOOTH",
"872 705 OFFCURVE",
"865 711 OFFCURVE",
"852 711 CURVE SMOOTH",
"843 711 OFFCURVE",
"839 706 OFFCURVE",
"839 697 CURVE SMOOTH",
"839 643 OFFCURVE",
"745 473 OFFCURVE",
"670 339 CURVE SMOOTH",
"619 247 OFFCURVE",
"553 148 OFFCURVE",
"462 24 CURVE",
"415 206 OFFCURVE",
"393 375 OFFCURVE",
"393 490 CURVE SMOOTH",
"393 544 OFFCURVE",
"395 585 OFFCURVE",
"395 601 CURVE SMOOTH",
"395 615 OFFCURVE",
"387 622 OFFCURVE",
"371 622 CURVE SMOOTH",
"364 622 OFFCURVE",
"359 618 OFFCURVE",
"334 597 CURVE SMOOTH",
"289 558 OFFCURVE",
"222 468 OFFCURVE",
"140 334 CURVE SMOOTH",
"74 226 OFFCURVE",
"21 111 OFFCURVE",
"-19 -11 CURVE SMOOTH",
"-24 -26 OFFCURVE",
"-29 -37 OFFCURVE",
"-29 -46 CURVE SMOOTH",
"-29 -56 OFFCURVE",
"-17 -67 OFFCURVE",
"-6 -67 CURVE SMOOTH"
);
}
);
userData = {
assembly = "NPUSHB[ ]	/* 37 values pushed */\0121 51 51 64 52 25 41 38 37 15 8 46 45 33 32 25 13 10 6 5 1 23 48 1 46 45 1 33 32 1 35 1 0 1 1 1 70 \012SROUND[ ]	/* SuperRound */\012MDAP[1]	/* MoveDirectAbsPt */\012SHZ[1]	/* ShiftZoneByLastPoint */\012RTG[ ]	/* RoundToGrid */\012SVTCA[0]	/* SetFreedomAndProjectionVectorToAxis */\012MIAP[1]	/* MoveIndirectAbsPt */\012ALIGNRP[ ]	/* AlignRelativePt */\012ALIGNRP[ ]	/* AlignRelativePt */\012MIAP[1]	/* MoveIndirectAbsPt */\012ALIGNRP[ ]	/* AlignRelativePt */\012MIAP[1]	/* MoveIndirectAbsPt */\012ALIGNRP[ ]	/* AlignRelativePt */\012MIAP[1]	/* MoveIndirectAbsPt */\012MDAP[1]	/* MoveDirectAbsPt */\012SVTCA[1]	/* SetFreedomAndProjectionVectorToAxis */\012MDAP[0]	/* MoveDirectAbsPt */\012MDAP[0]	/* MoveDirectAbsPt */\012MDAP[0]	/* MoveDirectAbsPt */\012MDAP[0]	/* MoveDirectAbsPt */\012MDAP[0]	/* MoveDirectAbsPt */\012MDAP[0]	/* MoveDirectAbsPt */\012MDAP[0]	/* MoveDirectAbsPt */\012MDAP[0]	/* MoveDirectAbsPt */\012MDAP[0]	/* MoveDirectAbsPt */\012MDAP[0]	/* MoveDirectAbsPt */\012SVTCA[0]	/* SetFreedomAndProjectionVectorToAxis */\012MDAP[0]	/* MoveDirectAbsPt */\012MDAP[0]	/* MoveDirectAbsPt */\012MDAP[0]	/* MoveDirectAbsPt */\012MDAP[0]	/* MoveDirectAbsPt */\012MDAP[0]	/* MoveDirectAbsPt */\012IUP[1]	/* InterpolateUntPts */\012IUP[0]	/* InterpolateUntPts */\012SVTCA[1]	/* SetFreedomAndProjectionVectorToAxis */\012MD[0]	/* MeasureDistance */\012ROUND[00]	/* Round */\012PUSHW[ ]	/* 2 values pushed */\0121 51 \012MD[0]	/* MeasureDistance */\012ROUND[00]	/* Round */\012SUB[ ]	/* Subtract */\012PUSHB[ ]	/* 1 value pushed */\01264 \012GT[ ]	/* GreaterThan */\012IF[ ]	/* If */\012SHPIX[ ]	/* ShiftZoneByPixel */\012SRP1[ ]	/* SetRefPoint1 */\012SHZ[1]	/* ShiftZoneByLastPoint */\012PUSHW[ ]	/* 2 values pushed */\01251 -64 \012SHPIX[ ]	/* ShiftZoneByPixel */\012EIF[ ]	/* EndIf */";
};
width = 723;
}
);
note = N;
unicode = 004E;
},
{
glyphname = Eng;
lastChange = "2021-11-05 21:19:16 +0000";
layers = (
{
background = {
paths = (
{
closed = 1;
nodes = (
"236 -348 OFFCURVE",
"308 -311 OFFCURVE",
"365 -228 CURVE SMOOTH",
"424 -142 OFFCURVE",
"581 109 OFFCURVE",
"689 305 CURVE SMOOTH",
"797 493 OFFCURVE",
"845 575 OFFCURVE",
"845 634 CURVE SMOOTH",
"845 647 OFFCURVE",
"838 653 OFFCURVE",
"825 653 CURVE SMOOTH",
"816 653 OFFCURVE",
"812 648 OFFCURVE",
"812 639 CURVE SMOOTH",
"812 585 OFFCURVE",
"718 415 OFFCURVE",
"660 322 CURVE SMOOTH",
"618 248 OFFCURVE",
"507 55 OFFCURVE",
"475 11 CURVE",
"428 193 OFFCURVE",
"392 375 OFFCURVE",
"392 530 CURVE SMOOTH",
"392 538 OFFCURVE",
"393 550 OFFCURVE",
"394 566 CURVE SMOOTH",
"395 582 OFFCURVE",
"395 594 OFFCURVE",
"395 601 CURVE SMOOTH",
"395 615 OFFCURVE",
"387 622 OFFCURVE",
"371 622 CURVE SMOOTH",
"367 622 OFFCURVE",
"364 621 OFFCURVE",
"362 620 CURVE",
"362 619 LINE",
"307 581 OFFCURVE",
"233 486 OFFCURVE",
"140 334 CURVE SMOOTH",
"68 216 OFFCURVE",
"11 89 OFFCURVE",
"-30 -46 CURVE",
"-29 -44 LINE",
"-29 -56 OFFCURVE",
"-17 -67 OFFCURVE",
"-6 -67 CURVE SMOOTH",
"0 -67 OFFCURVE",
"3 -54 OFFCURVE",
"4 -54 CURVE",
"4 -56 LINE",
"4 -58 LINE",
"39 67 OFFCURVE",
"94 192 OFFCURVE",
"169 316 CURVE SMOOTH",
"239 433 OFFCURVE",
"301 517 OFFCURVE",
"354 568 CURVE",
"349 393 OFFCURVE",
"397 139 OFFCURVE",
"450 -30 CURVE",
"441 -48 OFFCURVE",
"401 -118 OFFCURVE",
"390 -135 CURVE SMOOTH",
"340 -214 OFFCURVE",
"255 -313 OFFCURVE",
"200 -313 CURVE SMOOTH",
"173 -313 OFFCURVE",
"163 -284 OFFCURVE",
"163 -252 CURVE SMOOTH",
"163 -243 OFFCURVE",
"163 -234 OFFCURVE",
"165 -225 CURVE SMOOTH",
"170 -197 OFFCURVE",
"192 -169 OFFCURVE",
"192 -155 CURVE SMOOTH",
"192 -149 OFFCURVE",
"188 -146 OFFCURVE",
"177 -146 CURVE SMOOTH",
"156 -146 OFFCURVE",
"138 -197 OFFCURVE",
"133 -228 CURVE SMOOTH",
"131 -239 OFFCURVE",
"130 -250 OFFCURVE",
"130 -261 CURVE SMOOTH",
"130 -306 OFFCURVE",
"147 -348 OFFCURVE",
"191 -348 CURVE SMOOTH"
);
}
);
};
layerId = "5D3CF454-A725-4551-B6FA-6F6FD8C18533";
paths = (
{
closed = 1;
nodes = (
"236 -348 OFFCURVE",
"308 -311 OFFCURVE",
"365 -228 CURVE SMOOTH",
"424 -142 OFFCURVE",
"581 109 OFFCURVE",
"689 305 CURVE SMOOTH",
"797 493 OFFCURVE",
"845 575 OFFCURVE",
"845 634 CURVE SMOOTH",
"845 647 OFFCURVE",
"838 653 OFFCURVE",
"825 653 CURVE SMOOTH",
"816 653 OFFCURVE",
"812 648 OFFCURVE",
"812 639 CURVE SMOOTH",
"812 585 OFFCURVE",
"718 415 OFFCURVE",
"660 322 CURVE SMOOTH",
"618 248 OFFCURVE",
"507 55 OFFCURVE",
"475 11 CURVE",
"428 193 OFFCURVE",
"392 375 OFFCURVE",
"392 530 CURVE SMOOTH",
"392 538 OFFCURVE",
"393 550 OFFCURVE",
"394 566 CURVE SMOOTH",
"395 582 OFFCURVE",
"395 594 OFFCURVE",
"395 601 CURVE SMOOTH",
"395 615 OFFCURVE",
"387 622 OFFCURVE",
"371 622 CURVE SMOOTH",
"367 622 OFFCURVE",
"364 621 OFFCURVE",
"362 620 CURVE",
"362 619 LINE",
"307 581 OFFCURVE",
"233 486 OFFCURVE",
"140 334 CURVE SMOOTH",
"68 216 OFFCURVE",
"11 89 OFFCURVE",
"-30 -46 CURVE",
"-29 -44 LINE",
"-29 -56 OFFCURVE",
"-17 -67 OFFCURVE",
"-6 -67 CURVE SMOOTH",
"0 -67 OFFCURVE",
"3 -54 OFFCURVE",
"4 -54 CURVE",
"4 -56 LINE",
"4 -58 LINE",
"39 67 OFFCURVE",
"94 192 OFFCURVE",
"169 316 CURVE SMOOTH",
"239 433 OFFCURVE",
"301 517 OFFCURVE",
"354 568 CURVE",
"349 393 OFFCURVE",
"397 139 OFFCURVE",
"450 -30 CURVE",
"441 -48 OFFCURVE",
"401 -118 OFFCURVE",
"390 -135 CURVE SMOOTH",
"340 -214 OFFCURVE",
"255 -313 OFFCURVE",
"200 -313 CURVE SMOOTH",
"173 -313 OFFCURVE",
"163 -284 OFFCURVE",
"163 -252 CURVE SMOOTH",
"163 -243 OFFCURVE",
"163 -234 OFFCURVE",
"165 -225 CURVE SMOOTH",
"170 -197 OFFCURVE",
"192 -169 OFFCURVE",
"192 -155 CURVE SMOOTH",
"192 -149 OFFCURVE",
"188 -146 OFFCURVE",
"177 -146 CURVE SMOOTH",
"156 -146 OFFCURVE",
"138 -197 OFFCURVE",
"133 -228 CURVE SMOOTH",
"131 -239 OFFCURVE",
"130 -250 OFFCURVE",
"130 -261 CURVE SMOOTH",
"130 -306 OFFCURVE",
"147 -348 OFFCURVE",
"191 -348 CURVE SMOOTH"
);
}
);
width = 722;
}
);
unicode = 014A;
},
{
glyphname = O;
lastChange = "2021-11-06 01:18:00 +0000";
layers = (
{
background = {
paths = (
{
closed = 1;
nodes = (
"253 -58 LINE SMOOTH",
"332 -58 OFFCURVE",
"412 -35 OFFCURVE",
"493 10 CURVE SMOOTH",
"569 52 OFFCURVE",
"633 106 OFFCURVE",
"684 172 CURVE SMOOTH",
"717 215 OFFCURVE",
"739 255 OFFCURVE",
"749 292 CURVE SMOOTH",
"756 317 OFFCURVE",
"759 340 OFFCURVE",
"759 360 CURVE SMOOTH",
"759 431 OFFCURVE",
"730 493 OFFCURVE",
"671 548 CURVE SMOOTH",
"613 601 OFFCURVE",
"548 627 OFFCURVE",
"477 627 CURVE SMOOTH",
"429 627 OFFCURVE",
"374 612 OFFCURVE",
"312 582 CURVE SMOOTH",
"160 509 OFFCURVE",
"61 385 OFFCURVE",
"16 210 CURVE SMOOTH",
"11 192 OFFCURVE",
"9 175 OFFCURVE",
"9 160 CURVE SMOOTH",
"9 94 OFFCURVE",
"33 41 OFFCURVE",
"82 0 CURVE SMOOTH",
"128 -39 OFFCURVE",
"185 -58 OFFCURVE",
"252 -58 CURVE SMOOTH"
);
},
{
closed = 1;
nodes = (
"188 -25 OFFCURVE",
"140 -10 OFFCURVE",
"103 19 CURVE SMOOTH",
"62 52 OFFCURVE",
"41 96 OFFCURVE",
"41 152 CURVE SMOOTH",
"41 167 OFFCURVE",
"43 182 OFFCURVE",
"47 198 CURVE SMOOTH",
"89 365 OFFCURVE",
"182 483 OFFCURVE",
"327 551 CURVE SMOOTH",
"387 579 OFFCURVE",
"438 593 OFFCURVE",
"481 593 CURVE SMOOTH",
"543 593 OFFCURVE",
"599 571 OFFCURVE",
"648 526 CURVE SMOOTH",
"699 479 OFFCURVE",
"725 426 OFFCURVE",
"725 365 CURVE SMOOTH",
"725 347 OFFCURVE",
"722 327 OFFCURVE",
"716 306 CURVE SMOOTH",
"707 273 OFFCURVE",
"686 236 OFFCURVE",
"655 197 CURVE SMOOTH",
"605 134 OFFCURVE",
"544 83 OFFCURVE",
"473 42 CURVE SMOOTH",
"395 -3 OFFCURVE",
"319 -25 OFFCURVE",
"246 -25 CURVE SMOOTH"
);
}
);
};
layerId = "5D3CF454-A725-4551-B6FA-6F6FD8C18533";
paths = (
{
closed = 1;
nodes = (
"253 -58 LINE SMOOTH",
"371 -58 OFFCURVE",
"494 -3 OFFCURVE",
"592 77 CURVE SMOOTH",
"683 152 OFFCURVE",
"759 255 OFFCURVE",
"759 360 CURVE SMOOTH",
"759 505 OFFCURVE",
"621 627 OFFCURVE",
"477 627 CURVE SMOOTH",
"360 627 OFFCURVE",
"206 538 OFFCURVE",
"123 433 CURVE SMOOTH",
"67 363 OFFCURVE",
"9 235 OFFCURVE",
"9 160 CURVE SMOOTH",
"9 13 OFFCURVE",
"128 -58 OFFCURVE",
"252 -58 CURVE SMOOTH"
);
},
{
closed = 1;
nodes = (
"130 -25 OFFCURVE",
"43 40 OFFCURVE",
"43 152 CURVE SMOOTH",
"43 221 OFFCURVE",
"93 340 OFFCURVE",
"146 409 CURVE SMOOTH",
"221 506 OFFCURVE",
"366 593 OFFCURVE",
"478 593 CURVE SMOOTH",
"604 593 OFFCURVE",
"723 486 OFFCURVE",
"723 365 CURVE SMOOTH",
"723 272 OFFCURVE",
"650 172 OFFCURVE",
"563 101 CURVE SMOOTH",
"473 27 OFFCURVE",
"359 -25 OFFCURVE",
"246 -25 CURVE SMOOTH"
);
}
);
userData = {
assembly = "NPUSHB[ ]	/* 19 values pushed */\0121 45 45 64 46 14 35 23 41 31 14 4 10 22 0 1 1 4 70 \012SROUND[ ]	/* SuperRound */\012MDAP[1]	/* MoveDirectAbsPt */\012SHZ[1]	/* ShiftZoneByLastPoint */\012RTG[ ]	/* RoundToGrid */\012SVTCA[0]	/* SetFreedomAndProjectionVectorToAxis */\012MIAP[1]	/* MoveIndirectAbsPt */\012ALIGNRP[ ]	/* AlignRelativePt */\012MDAP[1]	/* MoveDirectAbsPt */\012SVTCA[1]	/* SetFreedomAndProjectionVectorToAxis */\012MDAP[0]	/* MoveDirectAbsPt */\012MDAP[0]	/* MoveDirectAbsPt */\012MDAP[0]	/* MoveDirectAbsPt */\012MDAP[0]	/* MoveDirectAbsPt */\012SVTCA[0]	/* SetFreedomAndProjectionVectorToAxis */\012MDAP[0]	/* MoveDirectAbsPt */\012MDAP[0]	/* MoveDirectAbsPt */\012IUP[1]	/* InterpolateUntPts */\012IUP[0]	/* InterpolateUntPts */\012SVTCA[1]	/* SetFreedomAndProjectionVectorToAxis */\012MD[0]	/* MeasureDistance */\012ROUND[00]	/* Round */\012PUSHW[ ]	/* 2 values pushed */\0124 45 \012MD[0]	/* MeasureDistance */\012ROUND[00]	/* Round */\012SUB[ ]	/* Subtract */\012PUSHB[ ]	/* 1 value pushed */\01264 \012GT[ ]	/* GreaterThan */\012IF[ ]	/* If */\012SHPIX[ ]	/* ShiftZoneByPixel */\012SRP1[ ]	/* SetRefPoint1 */\012SHZ[1]	/* ShiftZoneByLastPoint */\012PUSHW[ ]	/* 2 values pushed */\01245 -64 \012SHPIX[ ]	/* ShiftZoneByPixel */\012EIF[ ]	/* EndIf */";
};
width = 799;
}
);
note = O;
unicode = 004F;
},
{
glyphname = OE;
lastChange = "2021-11-05 21:19:16 +0000";
layers = (
{
background = {
paths = (
{
closed = 1;
nodes = (
"253 -58 LINE SMOOTH",
"343 -58 OFFCURVE",
"433 -30 OFFCURVE",
"522 27 CURVE",
"496 -30 LINE",
"496 -45 OFFCURVE",
"502 -52 OFFCURVE",
"514 -52 CURVE SMOOTH",
"515 -52 LINE SMOOTH",
"655 -23 OFFCURVE",
"726 -9 OFFCURVE",
"728 -9 CURVE SMOOTH",
"812 6 OFFCURVE",
"884 14 OFFCURVE",
"943 14 CURVE SMOOTH",
"981 14 OFFCURVE",
"1002 11 OFFCURVE",
"1005 6 CURVE",
"1007 6 OFFCURVE",
"1009 3 OFFCURVE",
"1011 -4 CURVE SMOOTH",
"1013 -11 OFFCURVE",
"1018 -14 OFFCURVE",
"1025 -14 CURVE SMOOTH",
"1036 -14 OFFCURVE",
"1042 -9 OFFCURVE",
"1042 2 CURVE SMOOTH",
"1042 33 OFFCURVE",
"1010 48 OFFCURVE",
"946 48 CURVE SMOOTH",
"854 48 OFFCURVE",
"718 28 OFFCURVE",
"538 -12 CURVE",
"581 81 OFFCURVE",
"652 203 OFFCURVE",
"750 354 CURVE",
"1017 354 LINE SMOOTH",
"1028 354 OFFCURVE",
"1033 359 OFFCURVE",
"1033 370 CURVE SMOOTH",
"1033 381 OFFCURVE",
"1028 386 OFFCURVE",
"1017 386 CURVE SMOOTH",
"772 386 LINE",
"852 505 OFFCURVE",
"908 576 OFFCURVE",
"941 601 CURVE",
"1006 612 OFFCURVE",
"1061 617 OFFCURVE",
"1106 617 CURVE SMOOTH",
"1163 617 OFFCURVE",
"1212 613 OFFCURVE",
"1252 606 CURVE",
"1256 606 LINE SMOOTH",
"1266 606 OFFCURVE",
"1271 612 OFFCURVE",
"1271 623 CURVE SMOOTH",
"1271 630 OFFCURVE",
"1267 635 OFFCURVE",
"1259 638 CURVE SMOOTH",
"1240 646 OFFCURVE",
"1194 650 OFFCURVE",
"1123 650 CURVE SMOOTH",
"1055 650 OFFCURVE",
"989 644 OFFCURVE",
"926 631 CURVE",
"924 630 LINE",
"885 597 OFFCURVE",
"827 525 OFFCURVE",
"752 414 CURVE",
"723 533 OFFCURVE",
"600 627 OFFCURVE",
"477 627 CURVE SMOOTH",
"429 627 OFFCURVE",
"374 612 OFFCURVE",
"312 582 CURVE SMOOTH",
"160 509 OFFCURVE",
"61 385 OFFCURVE",
"16 210 CURVE SMOOTH",
"11 192 OFFCURVE",
"9 175 OFFCURVE",
"9 160 CURVE SMOOTH",
"9 94 OFFCURVE",
"33 41 OFFCURVE",
"82 0 CURVE SMOOTH",
"128 -39 OFFCURVE",
"185 -58 OFFCURVE",
"252 -58 CURVE SMOOTH"
);
},
{
closed = 1;
nodes = (
"188 -25 OFFCURVE",
"140 -10 OFFCURVE",
"103 19 CURVE SMOOTH",
"62 52 OFFCURVE",
"41 96 OFFCURVE",
"41 152 CURVE SMOOTH",
"41 167 OFFCURVE",
"43 182 OFFCURVE",
"47 198 CURVE SMOOTH",
"89 365 OFFCURVE",
"182 483 OFFCURVE",
"327 551 CURVE SMOOTH",
"387 579 OFFCURVE",
"438 593 OFFCURVE",
"481 593 CURVE SMOOTH",
"596 593 OFFCURVE",
"710 499 OFFCURVE",
"723 387 CURVE",
"698 388 OFFCURVE",
"685 383 OFFCURVE",
"685 370 CURVE SMOOTH",
"685 359 OFFCURVE",
"694 354 OFFCURVE",
"712 354 CURVE",
"649 256 OFFCURVE",
"597 170 OFFCURVE",
"558 97 CURVE",
"473 21 OFFCURVE",
"354 -25 OFFCURVE",
"246 -25 CURVE SMOOTH"
);
}
);
};
layerId = "5D3CF454-A725-4551-B6FA-6F6FD8C18533";
paths = (
{
closed = 1;
nodes = (
"253 -58 LINE SMOOTH",
"343 -58 OFFCURVE",
"433 -30 OFFCURVE",
"522 27 CURVE",
"496 -30 LINE",
"496 -45 OFFCURVE",
"502 -52 OFFCURVE",
"514 -52 CURVE SMOOTH",
"515 -52 LINE SMOOTH",
"655 -23 OFFCURVE",
"726 -9 OFFCURVE",
"728 -9 CURVE SMOOTH",
"812 6 OFFCURVE",
"884 14 OFFCURVE",
"943 14 CURVE SMOOTH",
"981 14 OFFCURVE",
"1002 11 OFFCURVE",
"1005 6 CURVE",
"1007 6 OFFCURVE",
"1009 3 OFFCURVE",
"1011 -4 CURVE SMOOTH",
"1013 -11 OFFCURVE",
"1018 -14 OFFCURVE",
"1025 -14 CURVE SMOOTH",
"1036 -14 OFFCURVE",
"1042 -9 OFFCURVE",
"1042 2 CURVE SMOOTH",
"1042 33 OFFCURVE",
"1010 48 OFFCURVE",
"946 48 CURVE SMOOTH",
"854 48 OFFCURVE",
"718 28 OFFCURVE",
"538 -12 CURVE",
"581 81 OFFCURVE",
"652 203 OFFCURVE",
"750 354 CURVE",
"1017 354 LINE SMOOTH",
"1028 354 OFFCURVE",
"1033 359 OFFCURVE",
"1033 370 CURVE SMOOTH",
"1033 381 OFFCURVE",
"1028 386 OFFCURVE",
"1017 386 CURVE SMOOTH",
"772 386 LINE",
"852 505 OFFCURVE",
"908 576 OFFCURVE",
"941 601 CURVE",
"1006 612 OFFCURVE",
"1061 617 OFFCURVE",
"1106 617 CURVE SMOOTH",
"1163 617 OFFCURVE",
"1212 613 OFFCURVE",
"1252 606 CURVE",
"1256 606 LINE SMOOTH",
"1266 606 OFFCURVE",
"1271 612 OFFCURVE",
"1271 623 CURVE SMOOTH",
"1271 630 OFFCURVE",
"1267 635 OFFCURVE",
"1259 638 CURVE SMOOTH",
"1240 646 OFFCURVE",
"1194 650 OFFCURVE",
"1123 650 CURVE SMOOTH",
"1055 650 OFFCURVE",
"989 644 OFFCURVE",
"926 631 CURVE",
"924 630 LINE",
"885 597 OFFCURVE",
"827 525 OFFCURVE",
"752 414 CURVE",
"723 533 OFFCURVE",
"600 627 OFFCURVE",
"477 627 CURVE SMOOTH",
"429 627 OFFCURVE",
"374 612 OFFCURVE",
"312 582 CURVE SMOOTH",
"160 509 OFFCURVE",
"61 385 OFFCURVE",
"16 210 CURVE SMOOTH",
"11 192 OFFCURVE",
"9 175 OFFCURVE",
"9 160 CURVE SMOOTH",
"9 94 OFFCURVE",
"33 41 OFFCURVE",
"82 0 CURVE SMOOTH",
"128 -39 OFFCURVE",
"185 -58 OFFCURVE",
"252 -58 CURVE SMOOTH"
);
},
{
closed = 1;
nodes = (
"188 -25 OFFCURVE",
"140 -10 OFFCURVE",
"103 19 CURVE SMOOTH",
"62 52 OFFCURVE",
"41 96 OFFCURVE",
"41 152 CURVE SMOOTH",
"41 167 OFFCURVE",
"43 182 OFFCURVE",
"47 198 CURVE SMOOTH",
"89 365 OFFCURVE",
"182 483 OFFCURVE",
"327 551 CURVE SMOOTH",
"387 579 OFFCURVE",
"438 593 OFFCURVE",
"481 593 CURVE SMOOTH",
"596 593 OFFCURVE",
"710 499 OFFCURVE",
"723 387 CURVE",
"698 388 OFFCURVE",
"685 383 OFFCURVE",
"685 370 CURVE SMOOTH",
"685 359 OFFCURVE",
"694 354 OFFCURVE",
"712 354 CURVE",
"649 256 OFFCURVE",
"597 170 OFFCURVE",
"558 97 CURVE",
"473 21 OFFCURVE",
"354 -25 OFFCURVE",
"246 -25 CURVE SMOOTH"
);
}
);
userData = {
assembly = "NPUSHB[ ]	/* 46 values pushed */\0121 84 84 64 85 72 77 75 74 63 60 47 38 33 29 27 19 9 81 72 47 45 31 27 22 6 4 2 15 4 54 25 24 6 82 81 68 50 49 1 43 42 1 1 54 70 \012SROUND[ ]	/* SuperRound */\012MDAP[1]	/* MoveDirectAbsPt */\012SHZ[1]	/* ShiftZoneByLastPoint */\012RTG[ ]	/* RoundToGrid */\012SVTCA[0]	/* SetFreedomAndProjectionVectorToAxis */\012MIAP[1]	/* MoveIndirectAbsPt */\012ALIGNRP[ ]	/* AlignRelativePt */\012MIAP[1]	/* MoveIndirectAbsPt */\012ALIGNRP[ ]	/* AlignRelativePt */\012MDAP[1]	/* MoveDirectAbsPt */\012MDAP[1]	/* MoveDirectAbsPt */\012ALIGNRP[ ]	/* AlignRelativePt */\012MIRP[11101]	/* MoveIndirectRelPt */\012ALIGNRP[ ]	/* AlignRelativePt */\012SVTCA[1]	/* SetFreedomAndProjectionVectorToAxis */\012MDAP[1]	/* MoveDirectAbsPt */\012MIRP[11101]	/* MoveIndirectRelPt */\012MDAP[0]	/* MoveDirectAbsPt */\012MDAP[0]	/* MoveDirectAbsPt */\012MDAP[0]	/* MoveDirectAbsPt */\012MDAP[0]	/* MoveDirectAbsPt */\012MDAP[0]	/* MoveDirectAbsPt */\012MDAP[0]	/* MoveDirectAbsPt */\012MDAP[0]	/* MoveDirectAbsPt */\012MDAP[0]	/* MoveDirectAbsPt */\012MDAP[0]	/* MoveDirectAbsPt */\012MDAP[0]	/* MoveDirectAbsPt */\012SVTCA[0]	/* SetFreedomAndProjectionVectorToAxis */\012MDAP[0]	/* MoveDirectAbsPt */\012MDAP[0]	/* MoveDirectAbsPt */\012MDAP[0]	/* MoveDirectAbsPt */\012MDAP[0]	/* MoveDirectAbsPt */\012MDAP[0]	/* MoveDirectAbsPt */\012MDAP[0]	/* MoveDirectAbsPt */\012MDAP[0]	/* MoveDirectAbsPt */\012MDAP[0]	/* MoveDirectAbsPt */\012MDAP[0]	/* MoveDirectAbsPt */\012MDAP[0]	/* MoveDirectAbsPt */\012MDAP[0]	/* MoveDirectAbsPt */\012MDAP[0]	/* MoveDirectAbsPt */\012IUP[1]	/* InterpolateUntPts */\012IUP[0]	/* InterpolateUntPts */\012SVTCA[1]	/* SetFreedomAndProjectionVectorToAxis */\012MD[0]	/* MeasureDistance */\012ROUND[00]	/* Round */\012PUSHW[ ]	/* 2 values pushed */\01254 84 \012MD[0]	/* MeasureDistance */\012ROUND[00]	/* Round */\012SUB[ ]	/* Subtract */\012PUSHB[ ]	/* 1 value pushed */\01264 \012GT[ ]	/* GreaterThan */\012IF[ ]	/* If */\012SHPIX[ ]	/* ShiftZoneByPixel */\012SRP1[ ]	/* SetRefPoint1 */\012SHZ[1]	/* ShiftZoneByLastPoint */\012PUSHW[ ]	/* 2 values pushed */\01284 -64 \012SHPIX[ ]	/* ShiftZoneByPixel */\012EIF[ ]	/* EndIf */";
};
width = 1074;
}
);
note = OE;
unicode = 0152;
},
{
glyphname = P;
lastChange = "2021-11-06 01:20:11 +0000";
layers = (
{
background = {
paths = (
{
closed = 1;
nodes = (
"57 -29 OFFCURVE",
"61 -27 OFFCURVE",
"64 -22 CURVE",
"87 24 OFFCURVE",
"103 59 OFFCURVE",
"114 82 CURVE SMOOTH",
"230 336 LINE SMOOTH",
"275 433 OFFCURVE",
"318 515 OFFCURVE",
"358 584 CURVE",
"451 609 OFFCURVE",
"527 622 OFFCURVE",
"587 622 CURVE SMOOTH",
"687 622 OFFCURVE",
"737 595 OFFCURVE",
"737 540 CURVE SMOOTH",
"737 497 OFFCURVE",
"713 456 OFFCURVE",
"664 416 CURVE SMOOTH",
"626 385 OFFCURVE",
"582 360 OFFCURVE",
"532 342 CURVE SMOOTH",
"433 306 OFFCURVE",
"346 288 OFFCURVE",
"271 288 CURVE SMOOTH",
"260 288 OFFCURVE",
"255 284 OFFCURVE",
"255 276 CURVE SMOOTH",
"255 263 OFFCURVE",
"260 257 OFFCURVE",
"270 257 CURVE SMOOTH",
"348 257 OFFCURVE",
"438 276 OFFCURVE",
"541 313 CURVE SMOOTH",
"670 360 OFFCURVE",
"745 421 OFFCURVE",
"766 497 CURVE SMOOTH",
"770 512 OFFCURVE",
"772 527 OFFCURVE",
"772 544 CURVE SMOOTH",
"772 617 OFFCURVE",
"710 654 OFFCURVE",
"586 654 CURVE SMOOTH",
"533 654 OFFCURVE",
"465 644 OFFCURVE",
"382 624 CURVE",
"387 633 OFFCURVE",
"389 640 OFFCURVE",
"389 645 CURVE SMOOTH",
"389 650 OFFCURVE",
"386 653 OFFCURVE",
"380 653 CURVE SMOOTH",
"373 653 OFFCURVE",
"366 651 OFFCURVE",
"358 647 CURVE",
"349 635 OFFCURVE",
"341 623 OFFCURVE",
"334 611 CURVE",
"273 594 OFFCURVE",
"232 579 OFFCURVE",
"210 566 CURVE SMOOTH",
"203 561 OFFCURVE",
"199 556 OFFCURVE",
"199 550 CURVE SMOOTH",
"199 540 OFFCURVE",
"204 535 OFFCURVE",
"213 535 CURVE SMOOTH",
"216 535 OFFCURVE",
"218 535 OFFCURVE",
"220 536 CURVE SMOOTH",
"251 551 OFFCURVE",
"281 562 OFFCURVE",
"310 571 CURVE",
"275 509 OFFCURVE",
"235 431 OFFCURVE",
"192 336 CURVE SMOOTH",
"83 97 LINE",
"32 -5 LINE",
"32 -10 LINE SMOOTH",
"32 -23 OFFCURVE",
"39 -29 OFFCURVE",
"52 -29 CURVE SMOOTH"
);
}
);
};
layerId = "5D3CF454-A725-4551-B6FA-6F6FD8C18533";
paths = (
{
closed = 1;
nodes = (
"59 -29 OFFCURVE",
"62 -25 OFFCURVE",
"67 -15 CURVE SMOOTH",
"87 24 OFFCURVE",
"103 59 OFFCURVE",
"114 82 CURVE SMOOTH",
"230 336 LINE SMOOTH",
"274 433 OFFCURVE",
"318 515 OFFCURVE",
"358 584 CURVE",
"451 609 OFFCURVE",
"527 622 OFFCURVE",
"587 622 CURVE SMOOTH",
"687 622 OFFCURVE",
"737 595 OFFCURVE",
"737 540 CURVE SMOOTH",
"737 459 OFFCURVE",
"649 385 OFFCURVE",
"532 342 CURVE SMOOTH",
"433 306 OFFCURVE",
"346 288 OFFCURVE",
"271 288 CURVE SMOOTH",
"260 288 OFFCURVE",
"255 284 OFFCURVE",
"255 276 CURVE SMOOTH",
"255 263 OFFCURVE",
"260 257 OFFCURVE",
"270 257 CURVE SMOOTH",
"348 257 OFFCURVE",
"438 276 OFFCURVE",
"541 313 CURVE SMOOTH",
"669 360 OFFCURVE",
"772 430 OFFCURVE",
"772 544 CURVE SMOOTH",
"772 617 OFFCURVE",
"710 654 OFFCURVE",
"586 654 CURVE SMOOTH",
"533 654 OFFCURVE",
"465 644 OFFCURVE",
"382 624 CURVE",
"387 633 OFFCURVE",
"389 640 OFFCURVE",
"389 645 CURVE SMOOTH",
"389 650 OFFCURVE",
"386 653 OFFCURVE",
"380 653 CURVE SMOOTH",
"373 653 OFFCURVE",
"361 651 OFFCURVE",
"355 643 CURVE SMOOTH",
"349 635 OFFCURVE",
"341 623 OFFCURVE",
"334 611 CURVE",
"273 594 OFFCURVE",
"232 579 OFFCURVE",
"210 566 CURVE SMOOTH",
"203 561 OFFCURVE",
"199 556 OFFCURVE",
"199 550 CURVE SMOOTH",
"199 541 OFFCURVE",
"205 535 OFFCURVE",
"213 535 CURVE SMOOTH",
"218 535 OFFCURVE",
"220 536 OFFCURVE",
"236 544 CURVE SMOOTH",
"251 551 OFFCURVE",
"281 562 OFFCURVE",
"310 571 CURVE",
"275 509 OFFCURVE",
"237 433 OFFCURVE",
"192 336 CURVE SMOOTH",
"111 160 OFFCURVE",
"84 97 OFFCURVE",
"43 17 CURVE SMOOTH",
"37 5 OFFCURVE",
"32 -3 OFFCURVE",
"32 -10 CURVE SMOOTH",
"32 -22 OFFCURVE",
"40 -29 OFFCURVE",
"51 -29 CURVE SMOOTH"
);
}
);
userData = {
assembly = "NPUSHB[ ]	/* 26 values pushed */\0121 59 59 64 60 4 45 41 22 10 0 57 47 41 35 34 20 12 4 0 55 2 32 1 34 70 \012SROUND[ ]	/* SuperRound */\012MDAP[1]	/* MoveDirectAbsPt */\012SHZ[1]	/* ShiftZoneByLastPoint */\012RTG[ ]	/* RoundToGrid */\012SVTCA[0]	/* SetFreedomAndProjectionVectorToAxis */\012MDAP[1]	/* MoveDirectAbsPt */\012MDAP[1]	/* MoveDirectAbsPt */\012ALIGNRP[ ]	/* AlignRelativePt */\012SVTCA[1]	/* SetFreedomAndProjectionVectorToAxis */\012MDAP[0]	/* MoveDirectAbsPt */\012MDAP[0]	/* MoveDirectAbsPt */\012MDAP[0]	/* MoveDirectAbsPt */\012MDAP[0]	/* MoveDirectAbsPt */\012MDAP[0]	/* MoveDirectAbsPt */\012MDAP[0]	/* MoveDirectAbsPt */\012MDAP[0]	/* MoveDirectAbsPt */\012MDAP[0]	/* MoveDirectAbsPt */\012MDAP[0]	/* MoveDirectAbsPt */\012SVTCA[0]	/* SetFreedomAndProjectionVectorToAxis */\012MDAP[0]	/* MoveDirectAbsPt */\012MDAP[0]	/* MoveDirectAbsPt */\012MDAP[0]	/* MoveDirectAbsPt */\012MDAP[0]	/* MoveDirectAbsPt */\012MDAP[0]	/* MoveDirectAbsPt */\012IUP[1]	/* InterpolateUntPts */\012IUP[0]	/* InterpolateUntPts */\012SVTCA[1]	/* SetFreedomAndProjectionVectorToAxis */\012MD[0]	/* MeasureDistance */\012ROUND[00]	/* Round */\012PUSHW[ ]	/* 2 values pushed */\01234 59 \012MD[0]	/* MeasureDistance */\012ROUND[00]	/* Round */\012SUB[ ]	/* Subtract */\012PUSHB[ ]	/* 1 value pushed */\01264 \012GT[ ]	/* GreaterThan */\012IF[ ]	/* If */\012SHPIX[ ]	/* ShiftZoneByPixel */\012SRP1[ ]	/* SetRefPoint1 */\012SHZ[1]	/* ShiftZoneByLastPoint */\012PUSHW[ ]	/* 2 values pushed */\01259 -64 \012SHPIX[ ]	/* ShiftZoneByPixel */\012EIF[ ]	/* EndIf */";
};
width = 588;
}
);
note = P;
unicode = 0050;
},
{
glyphname = Thorn;
lastChange = "2021-11-05 21:19:16 +0000";
layers = (
{
background = {
paths = (
{
closed = 1;
nodes = (
"66 -154 OFFCURVE",
"74 -148 OFFCURVE",
"74 -136 CURVE SMOOTH",
"74 -125 OFFCURVE",
"69 -120 OFFCURVE",
"59 -120 CURVE",
"54 -121 LINE",
"37 -121 OFFCURVE",
"36 -110 OFFCURVE",
"36 -82 CURVE SMOOTH",
"36 -26 OFFCURVE",
"56 51 OFFCURVE",
"132 249 CURVE",
"134 252 OFFCURVE",
"135 256 OFFCURVE",
"137 260 CURVE",
"136 257 OFFCURVE",
"136 253 OFFCURVE",
"136 247 CURVE SMOOTH",
"136 211 OFFCURVE",
"164 186 OFFCURVE",
"201 186 CURVE SMOOTH",
"224 186 OFFCURVE",
"250 195 OFFCURVE",
"279 212 CURVE SMOOTH",
"367 264 OFFCURVE",
"433 335 OFFCURVE",
"478 424 CURVE SMOOTH",
"490 448 OFFCURVE",
"496 472 OFFCURVE",
"496 496 CURVE SMOOTH",
"496 548 OFFCURVE",
"468 588 OFFCURVE",
"417 588 CURVE SMOOTH",
"392 588 OFFCURVE",
"364 579 OFFCURVE",
"334 561 CURVE SMOOTH",
"291 538 OFFCURVE",
"246 491 OFFCURVE",
"197 422 CURVE",
"194 416 OFFCURVE",
"308 634 OFFCURVE",
"329 669 CURVE SMOOTH",
"372 741 OFFCURVE",
"401 778 OFFCURVE",
"418 778 CURVE SMOOTH",
"426 778 OFFCURVE",
"430 782 OFFCURVE",
"430 790 CURVE SMOOTH",
"430 804 OFFCURVE",
"424 811 OFFCURVE",
"411 811 CURVE SMOOTH",
"409 811 LINE",
"380 802 OFFCURVE",
"344 764 OFFCURVE",
"303 695 CURVE SMOOTH",
"267 634 OFFCURVE",
"219 548 OFFCURVE",
"129 332 CURVE SMOOTH",
"102 266 OFFCURVE",
"2 8 OFFCURVE",
"2 -87 CURVE SMOOTH",
"2 -132 OFFCURVE",
"18 -154 OFFCURVE",
"49 -154 CURVE SMOOTH"
);
},
{
closed = 1;
nodes = (
"179 219 OFFCURVE",
"169 228 OFFCURVE",
"169 247 CURVE SMOOTH",
"169 253 OFFCURVE",
"171 258 OFFCURVE",
"174 262 CURVE SMOOTH",
"177 266 OFFCURVE",
"179 269 OFFCURVE",
"179 272 CURVE SMOOTH",
"179 283 OFFCURVE",
"174 288 OFFCURVE",
"163 288 CURVE SMOOTH",
"159 288 OFFCURVE",
"154 285 OFFCURVE",
"148 279 CURVE",
"220 417 OFFCURVE",
"288 501 OFFCURVE",
"351 530 CURVE SMOOTH",
"383 545 OFFCURVE",
"408 552 OFFCURVE",
"427 552 CURVE SMOOTH",
"451 552 OFFCURVE",
"463 538 OFFCURVE",
"463 511 CURVE SMOOTH",
"463 460 OFFCURVE",
"440 407 OFFCURVE",
"395 354 CURVE SMOOTH",
"359 312 OFFCURVE",
"314 275 OFFCURVE",
"261 242 CURVE SMOOTH",
"236 227 OFFCURVE",
"215 219 OFFCURVE",
"198 219 CURVE SMOOTH"
);
}
);
};
layerId = "5D3CF454-A725-4551-B6FA-6F6FD8C18533";
paths = (
{
closed = 1;
nodes = (
"66 -154 OFFCURVE",
"74 -148 OFFCURVE",
"74 -136 CURVE SMOOTH",
"74 -125 OFFCURVE",
"69 -120 OFFCURVE",
"59 -120 CURVE",
"54 -121 LINE",
"37 -121 OFFCURVE",
"36 -110 OFFCURVE",
"36 -82 CURVE SMOOTH",
"36 -26 OFFCURVE",
"56 51 OFFCURVE",
"132 249 CURVE",
"134 252 OFFCURVE",
"135 256 OFFCURVE",
"137 260 CURVE",
"136 257 OFFCURVE",
"136 253 OFFCURVE",
"136 247 CURVE SMOOTH",
"136 211 OFFCURVE",
"164 186 OFFCURVE",
"201 186 CURVE SMOOTH",
"224 186 OFFCURVE",
"250 195 OFFCURVE",
"279 212 CURVE SMOOTH",
"367 264 OFFCURVE",
"433 335 OFFCURVE",
"478 424 CURVE SMOOTH",
"490 448 OFFCURVE",
"496 472 OFFCURVE",
"496 496 CURVE SMOOTH",
"496 548 OFFCURVE",
"468 588 OFFCURVE",
"417 588 CURVE SMOOTH",
"392 588 OFFCURVE",
"364 579 OFFCURVE",
"334 561 CURVE SMOOTH",
"291 538 OFFCURVE",
"246 491 OFFCURVE",
"197 422 CURVE",
"194 416 OFFCURVE",
"308 634 OFFCURVE",
"329 669 CURVE SMOOTH",
"372 741 OFFCURVE",
"401 778 OFFCURVE",
"418 778 CURVE SMOOTH",
"426 778 OFFCURVE",
"430 782 OFFCURVE",
"430 790 CURVE SMOOTH",
"430 804 OFFCURVE",
"424 811 OFFCURVE",
"411 811 CURVE SMOOTH",
"409 811 LINE",
"380 802 OFFCURVE",
"344 764 OFFCURVE",
"303 695 CURVE SMOOTH",
"267 634 OFFCURVE",
"219 548 OFFCURVE",
"129 332 CURVE SMOOTH",
"102 266 OFFCURVE",
"2 8 OFFCURVE",
"2 -87 CURVE SMOOTH",
"2 -132 OFFCURVE",
"18 -154 OFFCURVE",
"49 -154 CURVE SMOOTH"
);
},
{
closed = 1;
nodes = (
"179 219 OFFCURVE",
"169 228 OFFCURVE",
"169 247 CURVE SMOOTH",
"169 253 OFFCURVE",
"171 258 OFFCURVE",
"174 262 CURVE SMOOTH",
"177 266 OFFCURVE",
"179 269 OFFCURVE",
"179 272 CURVE SMOOTH",
"179 283 OFFCURVE",
"174 288 OFFCURVE",
"163 288 CURVE SMOOTH",
"159 288 OFFCURVE",
"154 285 OFFCURVE",
"148 279 CURVE",
"220 417 OFFCURVE",
"288 501 OFFCURVE",
"351 530 CURVE SMOOTH",
"383 545 OFFCURVE",
"408 552 OFFCURVE",
"427 552 CURVE SMOOTH",
"451 552 OFFCURVE",
"463 538 OFFCURVE",
"463 511 CURVE SMOOTH",
"463 460 OFFCURVE",
"440 407 OFFCURVE",
"395 354 CURVE SMOOTH",
"359 312 OFFCURVE",
"314 275 OFFCURVE",
"261 242 CURVE SMOOTH",
"236 227 OFFCURVE",
"215 219 OFFCURVE",
"198 219 CURVE SMOOTH"
);
}
);
width = 410;
}
);
unicode = 00DE;
},
{
glyphname = Q;
lastChange = "2021-11-06 01:30:04 +0000";
layers = (
{
background = {
paths = (
{
closed = 1;
nodes = (
"493 -179 OFFCURVE",
"506 -177 OFFCURVE",
"519 -173 CURVE SMOOTH",
"537 -168 OFFCURVE",
"546 -161 OFFCURVE",
"546 -152 CURVE SMOOTH",
"546 -140 OFFCURVE",
"541 -134 OFFCURVE",
"530 -134 CURVE SMOOTH",
"527 -134 OFFCURVE",
"519 -136 OFFCURVE",
"508 -141 CURVE SMOOTH",
"497 -145 OFFCURVE",
"487 -147 OFFCURVE",
"479 -147 CURVE SMOOTH",
"460 -147 OFFCURVE",
"441 -139 OFFCURVE",
"421 -122 CURVE",
"420 -124 LINE",
"409 -115 OFFCURVE",
"399 -103 OFFCURVE",
"388 -88 CURVE SMOOTH",
"362 -46 LINE",
"481 -7 OFFCURVE",
"586 85 OFFCURVE",
"677 232 CURVE",
"676 234 LINE",
"705 285 OFFCURVE",
"719 342 OFFCURVE",
"719 407 CURVE SMOOTH",
"719 456 OFFCURVE",
"710 497 OFFCURVE",
"692 532 CURVE SMOOTH",
"671 574 OFFCURVE",
"639 601 OFFCURVE",
"596 612 CURVE SMOOTH",
"567 620 OFFCURVE",
"536 624 OFFCURVE",
"503 624 CURVE SMOOTH",
"408 624 OFFCURVE",
"322 595 OFFCURVE",
"244 537 CURVE SMOOTH",
"173 484 OFFCURVE",
"115 412 OFFCURVE",
"70 322 CURVE SMOOTH",
"45 271 OFFCURVE",
"32 214 OFFCURVE",
"32 153 CURVE SMOOTH",
"32 8 OFFCURVE",
"100 -64 OFFCURVE",
"235 -64 CURVE SMOOTH",
"262 -64 OFFCURVE",
"294 -60 OFFCURVE",
"329 -52 CURVE",
"376 -137 OFFCURVE",
"426 -179 OFFCURVE",
"481 -179 CURVE SMOOTH"
);
},
{
closed = 1;
nodes = (
"225 -29 OFFCURVE",
"199 -27 OFFCURVE",
"170 -22 CURVE SMOOTH",
"133 -16 OFFCURVE",
"106 6 OFFCURVE",
"89 45 CURVE SMOOTH",
"75 75 OFFCURVE",
"68 111 OFFCURVE",
"68 154 CURVE SMOOTH",
"68 212 OFFCURVE",
"79 263 OFFCURVE",
"102 308 CURVE SMOOTH",
"145 394 OFFCURVE",
"200 461 OFFCURVE",
"267 510 CURVE SMOOTH",
"340 563 OFFCURVE",
"422 590 OFFCURVE",
"513 590 CURVE SMOOTH",
"542 590 OFFCURVE",
"569 587 OFFCURVE",
"592 582 CURVE SMOOTH",
"625 574 OFFCURVE",
"650 550 OFFCURVE",
"667 511 CURVE SMOOTH",
"680 480 OFFCURVE",
"687 445 OFFCURVE",
"687 405 CURVE SMOOTH",
"687 347 OFFCURVE",
"674 296 OFFCURVE",
"648 252 CURVE SMOOTH",
"564 110 OFFCURVE",
"464 21 OFFCURVE",
"348 -14 CURVE",
"333 12 OFFCURVE",
"321 31 OFFCURVE",
"310 42 CURVE SMOOTH",
"292 59 OFFCURVE",
"271 68 OFFCURVE",
"248 68 CURVE SMOOTH",
"237 68 OFFCURVE",
"226 66 OFFCURVE",
"213 61 CURVE SMOOTH",
"197 55 OFFCURVE",
"189 48 OFFCURVE",
"189 39 CURVE SMOOTH",
"189 28 OFFCURVE",
"195 23 OFFCURVE",
"207 23 CURVE SMOOTH",
"210 23 OFFCURVE",
"215 25 OFFCURVE",
"223 30 CURVE SMOOTH",
"230 35 OFFCURVE",
"239 37 OFFCURVE",
"248 37 CURVE SMOOTH",
"272 37 OFFCURVE",
"294 17 OFFCURVE",
"314 -23 CURVE",
"292 -27 OFFCURVE",
"270 -29 OFFCURVE",
"247 -29 CURVE SMOOTH"
);
}
);
};
layerId = "5D3CF454-A725-4551-B6FA-6F6FD8C18533";
paths = (
{
closed = 1;
nodes = (
"510 -179 OFFCURVE",
"546 -168 OFFCURVE",
"546 -152 CURVE SMOOTH",
"546 -140 OFFCURVE",
"540 -134 OFFCURVE",
"531 -134 CURVE SMOOTH",
"521 -134 OFFCURVE",
"499 -147 OFFCURVE",
"479 -147 CURVE SMOOTH",
"448 -147 OFFCURVE",
"411 -125 OFFCURVE",
"385 -83 CURVE SMOOTH",
"362 -46 LINE",
"451 -17 OFFCURVE",
"532 41 OFFCURVE",
"603 128 CURVE SMOOTH",
"679 221 OFFCURVE",
"719 300 OFFCURVE",
"719 407 CURVE SMOOTH",
"719 555 OFFCURVE",
"647 624 OFFCURVE",
"503 624 CURVE SMOOTH",
"364 624 OFFCURVE",
"242 559 OFFCURVE",
"151 448 CURVE SMOOTH",
"75 356 OFFCURVE",
"32 261 OFFCURVE",
"32 153 CURVE SMOOTH",
"32 8 OFFCURVE",
"100 -64 OFFCURVE",
"235 -64 CURVE SMOOTH",
"262 -64 OFFCURVE",
"294 -60 OFFCURVE",
"329 -52 CURVE",
"376 -137 OFFCURVE",
"426 -179 OFFCURVE",
"481 -179 CURVE SMOOTH"
);
},
{
closed = 1;
nodes = (
"114 -29 OFFCURVE",
"68 30 OFFCURVE",
"68 154 CURVE SMOOTH",
"68 252 OFFCURVE",
"104 335 OFFCURVE",
"176 423 CURVE SMOOTH",
"263 529 OFFCURVE",
"378 591 OFFCURVE",
"511 591 CURVE SMOOTH",
"628 591 OFFCURVE",
"687 541 OFFCURVE",
"687 405 CURVE SMOOTH",
"687 310 OFFCURVE",
"652 242 OFFCURVE",
"580 153 CURVE SMOOTH",
"512 68 OFFCURVE",
"434 12 OFFCURVE",
"348 -14 CURVE",
"333 12 OFFCURVE",
"321 31 OFFCURVE",
"310 42 CURVE SMOOTH",
"292 59 OFFCURVE",
"271 68 OFFCURVE",
"248 68 CURVE SMOOTH",
"221 68 OFFCURVE",
"189 55 OFFCURVE",
"189 38 CURVE SMOOTH",
"189 28 OFFCURVE",
"195 23 OFFCURVE",
"205 23 CURVE SMOOTH",
"219 23 OFFCURVE",
"225 37 OFFCURVE",
"248 37 CURVE SMOOTH",
"272 37 OFFCURVE",
"294 17 OFFCURVE",
"314 -23 CURVE",
"292 -27 OFFCURVE",
"270 -29 OFFCURVE",
"235 -29 CURVE SMOOTH"
);
}
);
userData = {
assembly = "NPUSHB[ ]	/* 35 values pushed */\0121 78 78 64 79 30 74 62 52 48 42 39 6 3 1 0 76 68 56 44 35 33 32 30 18 8 24 12 16 1 14 1 1 18 70 \012SROUND[ ]	/* SuperRound */\012MDAP[1]	/* MoveDirectAbsPt */\012SHZ[1]	/* ShiftZoneByLastPoint */\012RTG[ ]	/* RoundToGrid */\012SVTCA[0]	/* SetFreedomAndProjectionVectorToAxis */\012MIAP[1]	/* MoveIndirectAbsPt */\012MIAP[1]	/* MoveIndirectAbsPt */\012MDAP[1]	/* MoveDirectAbsPt */\012MDAP[1]	/* MoveDirectAbsPt */\012SVTCA[1]	/* SetFreedomAndProjectionVectorToAxis */\012MDAP[0]	/* MoveDirectAbsPt */\012MDAP[0]	/* MoveDirectAbsPt */\012MDAP[0]	/* MoveDirectAbsPt */\012MDAP[0]	/* MoveDirectAbsPt */\012MDAP[0]	/* MoveDirectAbsPt */\012MDAP[0]	/* MoveDirectAbsPt */\012MDAP[0]	/* MoveDirectAbsPt */\012MDAP[0]	/* MoveDirectAbsPt */\012MDAP[0]	/* MoveDirectAbsPt */\012MDAP[0]	/* MoveDirectAbsPt */\012SVTCA[0]	/* SetFreedomAndProjectionVectorToAxis */\012MDAP[0]	/* MoveDirectAbsPt */\012MDAP[0]	/* MoveDirectAbsPt */\012MDAP[0]	/* MoveDirectAbsPt */\012MDAP[0]	/* MoveDirectAbsPt */\012MDAP[0]	/* MoveDirectAbsPt */\012MDAP[0]	/* MoveDirectAbsPt */\012MDAP[0]	/* MoveDirectAbsPt */\012MDAP[0]	/* MoveDirectAbsPt */\012MDAP[0]	/* MoveDirectAbsPt */\012MDAP[0]	/* MoveDirectAbsPt */\012IUP[1]	/* InterpolateUntPts */\012IUP[0]	/* InterpolateUntPts */\012SVTCA[1]	/* SetFreedomAndProjectionVectorToAxis */\012MD[0]	/* MeasureDistance */\012ROUND[00]	/* Round */\012PUSHW[ ]	/* 2 values pushed */\01218 78 \012MD[0]	/* MeasureDistance */\012ROUND[00]	/* Round */\012SUB[ ]	/* Subtract */\012PUSHB[ ]	/* 1 value pushed */\01264 \012GT[ ]	/* GreaterThan */\012IF[ ]	/* If */\012SHPIX[ ]	/* ShiftZoneByPixel */\012SRP1[ ]	/* SetRefPoint1 */\012SHZ[1]	/* ShiftZoneByLastPoint */\012PUSHW[ ]	/* 2 values pushed */\01278 -64 \012SHPIX[ ]	/* ShiftZoneByPixel */\012EIF[ ]	/* EndIf */";
};
width = 730;
}
);
note = Q;
unicode = 0051;
},
{
glyphname = R;
lastChange = "2021-11-06 01:32:39 +0000";
layers = (
{
background = {
paths = (
{
closed = 1;
nodes = (
"21 -44 OFFCURVE",
"25 -41 OFFCURVE",
"28 -35 CURVE SMOOTH",
"47 6 OFFCURVE",
"60 37 OFFCURVE",
"69 59 CURVE SMOOTH",
"96 119 OFFCURVE",
"127 179 OFFCURVE",
"161 240 CURVE",
"216 260 OFFCURVE",
"267 270 OFFCURVE",
"315 270 CURVE SMOOTH",
"357 270 OFFCURVE",
"393 262 OFFCURVE",
"423 245 CURVE SMOOTH",
"459 225 OFFCURVE",
"477 196 OFFCURVE",
"477 157 CURVE SMOOTH",
"477 93 OFFCURVE",
"402 -22 OFFCURVE",
"402 -14 CURVE",
"402 -22 OFFCURVE",
"408 -26 OFFCURVE",
"420 -26 CURVE SMOOTH",
"428 -26 OFFCURVE",
"435 -23 OFFCURVE",
"440 -17 CURVE SMOOTH",
"459 5 OFFCURVE",
"477 32 OFFCURVE",
"493 65 CURVE SMOOTH",
"510 102 OFFCURVE",
"519 133 OFFCURVE",
"519 159 CURVE SMOOTH",
"519 199 OFFCURVE",
"502 231 OFFCURVE",
"468 255 CURVE SMOOTH",
"440 274 OFFCURVE",
"404 287 OFFCURVE",
"361 293 CURVE",
"445 313 OFFCURVE",
"517 339 OFFCURVE",
"576 371 CURVE SMOOTH",
"665 419 OFFCURVE",
"710 474 OFFCURVE",
"710 535 CURVE SMOOTH",
"710 539 LINE",
"695 615 OFFCURVE",
"613 653 OFFCURVE",
"463 653 CURVE SMOOTH",
"430 653 OFFCURVE",
"407 652 OFFCURVE",
"396 649 CURVE",
"369 629 OFFCURVE",
"324 569 OFFCURVE",
"259 469 CURVE SMOOTH",
"226 418 OFFCURVE",
"183 349 OFFCURVE",
"132 263 CURVE",
"120 258 OFFCURVE",
"103 252 OFFCURVE",
"103 241 CURVE SMOOTH",
"103 233 OFFCURVE",
"106 227 OFFCURVE",
"113 224 CURVE",
"98 197 OFFCURVE",
"76 154 OFFCURVE",
"47 95 CURVE SMOOTH",
"12 24 OFFCURVE",
"-6 -17 OFFCURVE",
"-6 -27 CURVE SMOOTH",
"-6 -38 OFFCURVE",
"1 -44 OFFCURVE",
"14 -44 CURVE SMOOTH"
);
},
{
closed = 1;
nodes = (
"193 293 OFFCURVE",
"200 305 OFFCURVE",
"204 312 CURVE SMOOTH",
"275 434 OFFCURVE",
"346 535 OFFCURVE",
"415 616 CURVE",
"429 619 OFFCURVE",
"447 621 OFFCURVE",
"468 621 CURVE SMOOTH",
"511 621 OFFCURVE",
"551 615 OFFCURVE",
"588 604 CURVE SMOOTH",
"641 588 OFFCURVE",
"668 564 OFFCURVE",
"668 532 CURVE SMOOTH",
"668 456 OFFCURVE",
"573 388 OFFCURVE",
"384 327 CURVE SMOOTH",
"327 309 OFFCURVE",
"296 299 OFFCURVE",
"289 298 CURVE SMOOTH",
"280 297 OFFCURVE",
"272 296 OFFCURVE",
"266 296 CURVE",
"238 292 OFFCURVE",
"210 286 OFFCURVE",
"182 278 CURVE"
);
}
);
};
layerId = "5D3CF454-A725-4551-B6FA-6F6FD8C18533";
paths = (
{
closed = 1;
nodes = (
"21 -44 OFFCURVE",
"25 -41 OFFCURVE",
"28 -35 CURVE SMOOTH",
"47 6 OFFCURVE",
"60 37 OFFCURVE",
"69 59 CURVE SMOOTH",
"96 119 OFFCURVE",
"127 179 OFFCURVE",
"161 240 CURVE",
"216 260 OFFCURVE",
"267 270 OFFCURVE",
"315 270 CURVE SMOOTH",
"396 270 OFFCURVE",
"477 237 OFFCURVE",
"477 157 CURVE SMOOTH",
"477 107 OFFCURVE",
"438 36 OFFCURVE",
"421 11 CURVE SMOOTH",
"412 -2 OFFCURVE",
"402 -11 OFFCURVE",
"402 -16 CURVE SMOOTH",
"402 -22 OFFCURVE",
"408 -27 OFFCURVE",
"419 -27 CURVE SMOOTH",
"428 -27 OFFCURVE",
"435 -23 OFFCURVE",
"440 -17 CURVE SMOOTH",
"479 28 OFFCURVE",
"519 105 OFFCURVE",
"519 159 CURVE SMOOTH",
"519 239 OFFCURVE",
"448 281 OFFCURVE",
"361 293 CURVE",
"445 313 OFFCURVE",
"517 339 OFFCURVE",
"576 371 CURVE SMOOTH",
"665 419 OFFCURVE",
"710 474 OFFCURVE",
"710 532 CURVE SMOOTH",
"710 604 OFFCURVE",
"621 653 OFFCURVE",
"474 653 CURVE SMOOTH",
"430 653 OFFCURVE",
"407 652 OFFCURVE",
"396 649 CURVE",
"369 629 OFFCURVE",
"324 569 OFFCURVE",
"259 469 CURVE SMOOTH",
"226 418 OFFCURVE",
"183 349 OFFCURVE",
"132 263 CURVE",
"120 258 OFFCURVE",
"103 252 OFFCURVE",
"103 240 CURVE SMOOTH",
"103 233 OFFCURVE",
"106 227 OFFCURVE",
"113 224 CURVE",
"98 197 OFFCURVE",
"76 154 OFFCURVE",
"47 95 CURVE SMOOTH",
"12 24 OFFCURVE",
"-6 -17 OFFCURVE",
"-6 -27 CURVE SMOOTH",
"-6 -38 OFFCURVE",
"1 -44 OFFCURVE",
"14 -44 CURVE SMOOTH"
);
},
{
closed = 1;
nodes = (
"193 293 OFFCURVE",
"200 305 OFFCURVE",
"224 347 CURVE SMOOTH",
"275 434 OFFCURVE",
"346 535 OFFCURVE",
"415 616 CURVE",
"429 619 OFFCURVE",
"447 621 OFFCURVE",
"468 621 CURVE SMOOTH",
"549 621 OFFCURVE",
"668 597 OFFCURVE",
"668 532 CURVE SMOOTH",
"668 483 OFFCURVE",
"628 437 OFFCURVE",
"548 394 CURVE SMOOTH",
"505 371 OFFCURVE",
"450 348 OFFCURVE",
"384 327 CURVE SMOOTH",
"327 309 OFFCURVE",
"296 299 OFFCURVE",
"289 298 CURVE",
"252 294 OFFCURVE",
"227 291 OFFCURVE",
"182 278 CURVE"
);
}
);
userData = {
assembly = "NPUSHB[ ]	/* 27 values pushed */\0121 70 70 64 71 31 56 47 12 0 66 52 49 41 37 33 31 20 18 8 0 29 64 1 1 66 70 \012SROUND[ ]	/* SuperRound */\012MDAP[1]	/* MoveDirectAbsPt */\012SHZ[1]	/* ShiftZoneByLastPoint */\012RTG[ ]	/* RoundToGrid */\012SVTCA[0]	/* SetFreedomAndProjectionVectorToAxis */\012MIAP[1]	/* MoveIndirectAbsPt */\012MDAP[1]	/* MoveDirectAbsPt */\012SVTCA[1]	/* SetFreedomAndProjectionVectorToAxis */\012MDAP[0]	/* MoveDirectAbsPt */\012MDAP[0]	/* MoveDirectAbsPt */\012MDAP[0]	/* MoveDirectAbsPt */\012MDAP[0]	/* MoveDirectAbsPt */\012MDAP[0]	/* MoveDirectAbsPt */\012MDAP[0]	/* MoveDirectAbsPt */\012MDAP[0]	/* MoveDirectAbsPt */\012MDAP[0]	/* MoveDirectAbsPt */\012MDAP[0]	/* MoveDirectAbsPt */\012MDAP[0]	/* MoveDirectAbsPt */\012MDAP[0]	/* MoveDirectAbsPt */\012SVTCA[0]	/* SetFreedomAndProjectionVectorToAxis */\012MDAP[0]	/* MoveDirectAbsPt */\012MDAP[0]	/* MoveDirectAbsPt */\012MDAP[0]	/* MoveDirectAbsPt */\012MDAP[0]	/* MoveDirectAbsPt */\012IUP[1]	/* InterpolateUntPts */\012IUP[0]	/* InterpolateUntPts */\012SVTCA[1]	/* SetFreedomAndProjectionVectorToAxis */\012MD[0]	/* MeasureDistance */\012ROUND[00]	/* Round */\012PUSHW[ ]	/* 2 values pushed */\01266 70 \012MD[0]	/* MeasureDistance */\012ROUND[00]	/* Round */\012SUB[ ]	/* Subtract */\012PUSHB[ ]	/* 1 value pushed */\01264 \012GT[ ]	/* GreaterThan */\012IF[ ]	/* If */\012SHPIX[ ]	/* ShiftZoneByPixel */\012SRP1[ ]	/* SetRefPoint1 */\012SHZ[1]	/* ShiftZoneByLastPoint */\012PUSHW[ ]	/* 2 values pushed */\01270 -64 \012SHPIX[ ]	/* ShiftZoneByPixel */\012EIF[ ]	/* EndIf */";
};
width = 611;
}
);
note = R;
unicode = 0052;
},
{
glyphname = S;
lastChange = "2021-11-06 01:35:43 +0000";
layers = (
{
background = {
paths = (
{
closed = 1;
nodes = (
"349 -58 OFFCURVE",
"441 -26 OFFCURVE",
"509 53 CURVE SMOOTH",
"546 96 OFFCURVE",
"565 140 OFFCURVE",
"565 184 CURVE SMOOTH",
"565 264 OFFCURVE",
"504 323 OFFCURVE",
"382 362 CURVE SMOOTH",
"311 384 OFFCURVE",
"276 413 OFFCURVE",
"276 450 CURVE SMOOTH",
"276 464 OFFCURVE",
"282 479 OFFCURVE",
"295 494 CURVE SMOOTH",
"326 533 OFFCURVE",
"373 563 OFFCURVE",
"435 585 CURVE SMOOTH",
"489 604 OFFCURVE",
"544 613 OFFCURVE",
"601 613 CURVE SMOOTH",
"634 613 OFFCURVE",
"651 596 OFFCURVE",
"651 562 CURVE SMOOTH",
"651 523 OFFCURVE",
"629 492 OFFCURVE",
"584 469 CURVE SMOOTH",
"578 466 OFFCURVE",
"575 461 OFFCURVE",
"575 456 CURVE SMOOTH",
"575 445 OFFCURVE",
"581 440 OFFCURVE",
"592 440 CURVE SMOOTH",
"598 440 LINE",
"647 461 OFFCURVE",
"684 509 OFFCURVE",
"684 561 CURVE SMOOTH",
"684 610 OFFCURVE",
"651 646 OFFCURVE",
"602 646 CURVE SMOOTH",
"535 646 OFFCURVE",
"474 636 OFFCURVE",
"417 617 CURVE SMOOTH",
"350 594 OFFCURVE",
"299 559 OFFCURVE",
"264 514 CURVE SMOOTH",
"245 489 OFFCURVE",
"236 466 OFFCURVE",
"236 445 CURVE SMOOTH",
"236 400 OFFCURVE",
"281 362 OFFCURVE",
"370 331 CURVE SMOOTH",
"419 314 OFFCURVE",
"455 298 OFFCURVE",
"477 281 CURVE SMOOTH",
"512 255 OFFCURVE",
"530 222 OFFCURVE",
"530 181 CURVE SMOOTH",
"530 142 OFFCURVE",
"514 105 OFFCURVE",
"482 70 CURVE SMOOTH",
"453 39 OFFCURVE",
"419 15 OFFCURVE",
"380 0 CURVE SMOOTH",
"337 -17 OFFCURVE",
"291 -25 OFFCURVE",
"243 -25 CURVE SMOOTH",
"204 -25 OFFCURVE",
"169 -19 OFFCURVE",
"138 -7 CURVE SMOOTH",
"110 4 OFFCURVE",
"87 20 OFFCURVE",
"68 41 CURVE SMOOTH",
"47 65 OFFCURVE",
"36 91 OFFCURVE",
"36 118 CURVE SMOOTH",
"36 124 OFFCURVE",
"37 132 OFFCURVE",
"40 141 CURVE SMOOTH",
"43 150 OFFCURVE",
"44 156 OFFCURVE",
"44 160 CURVE SMOOTH",
"44 171 OFFCURVE",
"39 177 OFFCURVE",
"29 177 CURVE SMOOTH",
"22 177 OFFCURVE",
"16 168 OFFCURVE",
"11 151 CURVE SMOOTH",
"7 138 OFFCURVE",
"5 126 OFFCURVE",
"5 115 CURVE SMOOTH",
"5 82 OFFCURVE",
"18 51 OFFCURVE",
"44 21 CURVE SMOOTH",
"67 -6 OFFCURVE",
"95 -26 OFFCURVE",
"128 -37 CURVE SMOOTH",
"167 -51 OFFCURVE",
"209 -58 OFFCURVE",
"252 -58 CURVE SMOOTH"
);
}
);
};
layerId = "5D3CF454-A725-4551-B6FA-6F6FD8C18533";
paths = (
{
closed = 1;
nodes = (
"323 -58 OFFCURVE",
"391 -41 OFFCURVE",
"449 -1 CURVE SMOOTH",
"509 40 OFFCURVE",
"565 111 OFFCURVE",
"565 184 CURVE SMOOTH",
"565 264 OFFCURVE",
"504 323 OFFCURVE",
"382 362 CURVE SMOOTH",
"311 384 OFFCURVE",
"276 413 OFFCURVE",
"276 450 CURVE SMOOTH",
"276 501 OFFCURVE",
"362 559 OFFCURVE",
"435 585 CURVE SMOOTH",
"489 604 OFFCURVE",
"544 613 OFFCURVE",
"587 613 CURVE SMOOTH",
"634 613 OFFCURVE",
"651 596 OFFCURVE",
"651 562 CURVE SMOOTH",
"651 523 OFFCURVE",
"629 492 OFFCURVE",
"584 469 CURVE SMOOTH",
"578 466 OFFCURVE",
"575 461 OFFCURVE",
"575 456 CURVE SMOOTH",
"575 447 OFFCURVE",
"581 440 OFFCURVE",
"592 440 CURVE SMOOTH",
"603 440 OFFCURVE",
"615 446 OFFCURVE",
"634 462 CURVE SMOOTH",
"664 487 OFFCURVE",
"684 523 OFFCURVE",
"684 561 CURVE SMOOTH",
"684 609 OFFCURVE",
"657 646 OFFCURVE",
"587 646 CURVE SMOOTH",
"535 646 OFFCURVE",
"474 637 OFFCURVE",
"404 611 CURVE SMOOTH",
"332 585 OFFCURVE",
"236 516 OFFCURVE",
"236 445 CURVE SMOOTH",
"236 400 OFFCURVE",
"281 362 OFFCURVE",
"370 331 CURVE SMOOTH",
"464 298 OFFCURVE",
"530 262 OFFCURVE",
"530 181 CURVE SMOOTH",
"530 121 OFFCURVE",
"489 66 OFFCURVE",
"435 29 CURVE SMOOTH",
"382 -7 OFFCURVE",
"316 -25 OFFCURVE",
"243 -25 CURVE SMOOTH",
"138 -25 OFFCURVE",
"36 29 OFFCURVE",
"36 118 CURVE SMOOTH",
"36 124 OFFCURVE",
"37 132 OFFCURVE",
"40 141 CURVE SMOOTH",
"43 150 OFFCURVE",
"44 156 OFFCURVE",
"44 160 CURVE SMOOTH",
"44 171 OFFCURVE",
"39 177 OFFCURVE",
"29 177 CURVE SMOOTH",
"22 177 OFFCURVE",
"16 168 OFFCURVE",
"11 151 CURVE SMOOTH",
"7 138 OFFCURVE",
"5 126 OFFCURVE",
"5 115 CURVE SMOOTH",
"5 8 OFFCURVE",
"124 -58 OFFCURVE",
"252 -58 CURVE SMOOTH"
);
}
);
userData = {
assembly = "NPUSHB[ ]	/* 27 values pushed */\0121 69 69 64 70 47 59 51 50 26 15 65 57 53 47 38 32 20 17 11 0 44 5 1 1 11 70 \012SROUND[ ]	/* SuperRound */\012MDAP[1]	/* MoveDirectAbsPt */\012SHZ[1]	/* ShiftZoneByLastPoint */\012RTG[ ]	/* RoundToGrid */\012SVTCA[0]	/* SetFreedomAndProjectionVectorToAxis */\012MIAP[1]	/* MoveIndirectAbsPt */\012MDAP[1]	/* MoveDirectAbsPt */\012SVTCA[1]	/* SetFreedomAndProjectionVectorToAxis */\012MDAP[0]	/* MoveDirectAbsPt */\012MDAP[0]	/* MoveDirectAbsPt */\012MDAP[0]	/* MoveDirectAbsPt */\012MDAP[0]	/* MoveDirectAbsPt */\012MDAP[0]	/* MoveDirectAbsPt */\012MDAP[0]	/* MoveDirectAbsPt */\012MDAP[0]	/* MoveDirectAbsPt */\012MDAP[0]	/* MoveDirectAbsPt */\012MDAP[0]	/* MoveDirectAbsPt */\012MDAP[0]	/* MoveDirectAbsPt */\012SVTCA[0]	/* SetFreedomAndProjectionVectorToAxis */\012MDAP[0]	/* MoveDirectAbsPt */\012MDAP[0]	/* MoveDirectAbsPt */\012MDAP[0]	/* MoveDirectAbsPt */\012MDAP[0]	/* MoveDirectAbsPt */\012MDAP[0]	/* MoveDirectAbsPt */\012IUP[1]	/* InterpolateUntPts */\012IUP[0]	/* InterpolateUntPts */\012SVTCA[1]	/* SetFreedomAndProjectionVectorToAxis */\012MD[0]	/* MeasureDistance */\012ROUND[00]	/* Round */\012PUSHW[ ]	/* 2 values pushed */\01211 69 \012MD[0]	/* MeasureDistance */\012ROUND[00]	/* Round */\012SUB[ ]	/* Subtract */\012PUSHB[ ]	/* 1 value pushed */\01264 \012GT[ ]	/* GreaterThan */\012IF[ ]	/* If */\012SHPIX[ ]	/* ShiftZoneByPixel */\012SRP1[ ]	/* SetRefPoint1 */\012SHZ[1]	/* ShiftZoneByLastPoint */\012PUSHW[ ]	/* 2 values pushed */\01269 -64 \012SHPIX[ ]	/* ShiftZoneByPixel */\012EIF[ ]	/* EndIf */";
};
width = 593;
}
);
note = S;
unicode = 0053;
},
{
glyphname = Germandbls;
lastChange = "2021-11-05 21:19:16 +0000";
layers = (
{
background = {
paths = (
{
closed = 1;
nodes = (
"172 -218 OFFCURVE",
"176 430 OFFCURVE",
"296 567 CURVE SMOOTH",
"326 601 OFFCURVE",
"407 623 OFFCURVE",
"475 623 CURVE SMOOTH",
"524 623 OFFCURVE",
"567 611 OFFCURVE",
"577 583 CURVE SMOOTH",
"578 580 OFFCURVE",
"579 576 OFFCURVE",
"579 572 CURVE SMOOTH",
"579 511 OFFCURVE",
"423 395 OFFCURVE",
"333 359 CURVE",
"343 337 LINE",
"485 402 OFFCURVE",
"623 509 OFFCURVE",
"623 574 CURVE SMOOTH",
"623 578 OFFCURVE",
"622 583 OFFCURVE",
"621 587 CURVE SMOOTH",
"604 635 OFFCURVE",
"539 654 OFFCURVE",
"469 654 CURVE SMOOTH",
"395 654 OFFCURVE",
"317 634 OFFCURVE",
"284 607 CURVE SMOOTH",
"206 543 OFFCURVE",
"167 331 OFFCURVE",
"97 8 CURVE SMOOTH",
"68 -128 OFFCURVE",
"32 -254 OFFCURVE",
"-9 -293 CURVE SMOOTH",
"-22 -304 OFFCURVE",
"-34 -309 OFFCURVE",
"-45 -309 CURVE SMOOTH",
"-65 -309 OFFCURVE",
"-79 -292 OFFCURVE",
"-79 -268 CURVE SMOOTH",
"-79 -252 OFFCURVE",
"-72 -232 OFFCURVE",
"-56 -212 CURVE SMOOTH",
"-52 -207 OFFCURVE",
"-50 -201 OFFCURVE",
"-50 -197 CURVE SMOOTH",
"-50 -194 OFFCURVE",
"-52 -191 OFFCURVE",
"-54 -191 CURVE SMOOTH",
"-56 -191 OFFCURVE",
"-57 -192 OFFCURVE",
"-59 -194 CURVE SMOOTH",
"-92 -233 OFFCURVE",
"-105 -263 OFFCURVE",
"-105 -285 CURVE SMOOTH",
"-105 -320 OFFCURVE",
"-74 -336 OFFCURVE",
"-44 -336 CURVE SMOOTH",
"-32 -336 OFFCURVE",
"-19 -333 OFFCURVE",
"-9 -327 CURVE SMOOTH"
);
},
{
closed = 1;
nodes = (
"258 -47 OFFCURVE",
"349 -34 OFFCURVE",
"437 -7 CURVE SMOOTH",
"559 30 OFFCURVE",
"634 88 OFFCURVE",
"662 167 CURVE SMOOTH",
"669 186 OFFCURVE",
"672 203 OFFCURVE",
"672 220 CURVE SMOOTH",
"672 336 OFFCURVE",
"534 367 OFFCURVE",
"418 367 CURVE SMOOTH",
"389 367 OFFCURVE",
"361 365 OFFCURVE",
"337 362 CURVE SMOOTH",
"326 361 OFFCURVE",
"321 358 OFFCURVE",
"321 350 CURVE SMOOTH",
"321 337 OFFCURVE",
"326 331 OFFCURVE",
"336 331 CURVE SMOOTH",
"337 331 OFFCURVE",
"347 333 OFFCURVE",
"366 338 CURVE",
"382 340 OFFCURVE",
"399 341 OFFCURVE",
"416 341 CURVE SMOOTH",
"467 341 OFFCURVE",
"513 333 OFFCURVE",
"556 317 CURVE SMOOTH",
"614 295 OFFCURVE",
"643 263 OFFCURVE",
"643 221 CURVE SMOOTH",
"643 208 OFFCURVE",
"640 194 OFFCURVE",
"634 179 CURVE SMOOTH",
"605 107 OFFCURVE",
"534 55 OFFCURVE",
"420 22 CURVE SMOOTH",
"338 -2 OFFCURVE",
"255 -14 OFFCURVE",
"210 -14 CURVE SMOOTH",
"202 -14 OFFCURVE",
"193 -27 OFFCURVE",
"193 -37 CURVE SMOOTH",
"193 -43 OFFCURVE",
"196 -47 OFFCURVE",
"203 -47 CURVE SMOOTH"
);
}
);
};
layerId = "5D3CF454-A725-4551-B6FA-6F6FD8C18533";
paths = (
{
closed = 1;
nodes = (
"172 -218 OFFCURVE",
"176 430 OFFCURVE",
"296 567 CURVE SMOOTH",
"326 601 OFFCURVE",
"407 623 OFFCURVE",
"475 623 CURVE SMOOTH",
"524 623 OFFCURVE",
"567 611 OFFCURVE",
"577 583 CURVE SMOOTH",
"578 580 OFFCURVE",
"579 576 OFFCURVE",
"579 572 CURVE SMOOTH",
"579 511 OFFCURVE",
"423 395 OFFCURVE",
"333 359 CURVE",
"343 337 LINE",
"485 402 OFFCURVE",
"623 509 OFFCURVE",
"623 574 CURVE SMOOTH",
"623 578 OFFCURVE",
"622 583 OFFCURVE",
"621 587 CURVE SMOOTH",
"604 635 OFFCURVE",
"539 654 OFFCURVE",
"469 654 CURVE SMOOTH",
"395 654 OFFCURVE",
"317 634 OFFCURVE",
"284 607 CURVE SMOOTH",
"206 543 OFFCURVE",
"167 331 OFFCURVE",
"97 8 CURVE SMOOTH",
"68 -128 OFFCURVE",
"32 -254 OFFCURVE",
"-9 -293 CURVE SMOOTH",
"-22 -304 OFFCURVE",
"-34 -309 OFFCURVE",
"-45 -309 CURVE SMOOTH",
"-65 -309 OFFCURVE",
"-79 -292 OFFCURVE",
"-79 -268 CURVE SMOOTH",
"-79 -252 OFFCURVE",
"-72 -232 OFFCURVE",
"-56 -212 CURVE SMOOTH",
"-52 -207 OFFCURVE",
"-50 -201 OFFCURVE",
"-50 -197 CURVE SMOOTH",
"-50 -194 OFFCURVE",
"-52 -191 OFFCURVE",
"-54 -191 CURVE SMOOTH",
"-56 -191 OFFCURVE",
"-57 -192 OFFCURVE",
"-59 -194 CURVE SMOOTH",
"-92 -233 OFFCURVE",
"-105 -263 OFFCURVE",
"-105 -285 CURVE SMOOTH",
"-105 -320 OFFCURVE",
"-74 -336 OFFCURVE",
"-44 -336 CURVE SMOOTH",
"-32 -336 OFFCURVE",
"-19 -333 OFFCURVE",
"-9 -327 CURVE SMOOTH"
);
},
{
closed = 1;
nodes = (
"258 -47 OFFCURVE",
"349 -34 OFFCURVE",
"437 -7 CURVE SMOOTH",
"559 30 OFFCURVE",
"634 88 OFFCURVE",
"662 167 CURVE SMOOTH",
"669 186 OFFCURVE",
"672 203 OFFCURVE",
"672 220 CURVE SMOOTH",
"672 336 OFFCURVE",
"534 367 OFFCURVE",
"418 367 CURVE SMOOTH",
"389 367 OFFCURVE",
"361 365 OFFCURVE",
"337 362 CURVE SMOOTH",
"326 361 OFFCURVE",
"321 358 OFFCURVE",
"321 350 CURVE SMOOTH",
"321 337 OFFCURVE",
"326 331 OFFCURVE",
"336 331 CURVE SMOOTH",
"337 331 OFFCURVE",
"347 333 OFFCURVE",
"366 338 CURVE",
"382 340 OFFCURVE",
"399 341 OFFCURVE",
"416 341 CURVE SMOOTH",
"467 341 OFFCURVE",
"513 333 OFFCURVE",
"556 317 CURVE SMOOTH",
"614 295 OFFCURVE",
"643 263 OFFCURVE",
"643 221 CURVE SMOOTH",
"643 208 OFFCURVE",
"640 194 OFFCURVE",
"634 179 CURVE SMOOTH",
"605 107 OFFCURVE",
"534 55 OFFCURVE",
"420 22 CURVE SMOOTH",
"338 -2 OFFCURVE",
"255 -14 OFFCURVE",
"210 -14 CURVE SMOOTH",
"202 -14 OFFCURVE",
"193 -27 OFFCURVE",
"193 -37 CURVE SMOOTH",
"193 -43 OFFCURVE",
"196 -47 OFFCURVE",
"203 -47 CURVE SMOOTH"
);
}
);
width = 746;
}
);
unicode = 1E9E;
},
{
glyphname = Schwa;
lastChange = "2021-11-05 21:19:16 +0000";
layers = (
{
background = {
paths = (
{
closed = 1;
nodes = (
"487 -66 OFFCURVE",
"777 123 OFFCURVE",
"777 388 CURVE SMOOTH",
"777 559 OFFCURVE",
"660 657 OFFCURVE",
"477 657 CURVE SMOOTH",
"369 657 OFFCURVE",
"229 623 OFFCURVE",
"138 570 CURVE SMOOTH",
"115 557 OFFCURVE",
"100 545 OFFCURVE",
"91 535 CURVE SMOOTH",
"78 520 OFFCURVE",
"72 507 OFFCURVE",
"72 496 CURVE SMOOTH",
"72 492 OFFCURVE",
"74 490 OFFCURVE",
"77 490 CURVE SMOOTH",
"83 490 OFFCURVE",
"92 500 OFFCURVE",
"111 514 CURVE SMOOTH",
"190 570 OFFCURVE",
"356 626 OFFCURVE",
"466 626 CURVE SMOOTH",
"620 626 OFFCURVE",
"740 549 OFFCURVE",
"740 395 CURVE SMOOTH",
"740 154 OFFCURVE",
"477 -33 OFFCURVE",
"231 -33 CURVE SMOOTH",
"129 -33 OFFCURVE",
"37 17 OFFCURVE",
"37 96 CURVE SMOOTH",
"37 257 OFFCURVE",
"219 321 OFFCURVE",
"432 321 CURVE SMOOTH",
"533 321 OFFCURVE",
"640 307 OFFCURVE",
"739 282 CURVE SMOOTH",
"745 281 OFFCURVE",
"747 286 OFFCURVE",
"747 292 CURVE SMOOTH",
"747 299 OFFCURVE",
"744 307 OFFCURVE",
"738 310 CURVE SMOOTH",
"684 332 OFFCURVE",
"570 351 OFFCURVE",
"448 351 CURVE SMOOTH",
"237 351 OFFCURVE",
"0 294 OFFCURVE",
"0 98 CURVE SMOOTH",
"0 3 OFFCURVE",
"106 -66 OFFCURVE",
"217 -66 CURVE SMOOTH"
);
}
);
};
layerId = "5D3CF454-A725-4551-B6FA-6F6FD8C18533";
paths = (
{
closed = 1;
nodes = (
"487 -66 OFFCURVE",
"777 123 OFFCURVE",
"777 388 CURVE SMOOTH",
"777 559 OFFCURVE",
"660 657 OFFCURVE",
"477 657 CURVE SMOOTH",
"369 657 OFFCURVE",
"229 623 OFFCURVE",
"138 570 CURVE SMOOTH",
"115 557 OFFCURVE",
"100 545 OFFCURVE",
"91 535 CURVE SMOOTH",
"78 520 OFFCURVE",
"72 507 OFFCURVE",
"72 496 CURVE SMOOTH",
"72 492 OFFCURVE",
"74 490 OFFCURVE",
"77 490 CURVE SMOOTH",
"83 490 OFFCURVE",
"92 500 OFFCURVE",
"111 514 CURVE SMOOTH",
"190 570 OFFCURVE",
"356 626 OFFCURVE",
"466 626 CURVE SMOOTH",
"620 626 OFFCURVE",
"740 549 OFFCURVE",
"740 395 CURVE SMOOTH",
"740 154 OFFCURVE",
"477 -33 OFFCURVE",
"231 -33 CURVE SMOOTH",
"129 -33 OFFCURVE",
"37 17 OFFCURVE",
"37 96 CURVE SMOOTH",
"37 257 OFFCURVE",
"219 321 OFFCURVE",
"432 321 CURVE SMOOTH",
"533 321 OFFCURVE",
"640 307 OFFCURVE",
"739 282 CURVE SMOOTH",
"745 281 OFFCURVE",
"747 286 OFFCURVE",
"747 292 CURVE SMOOTH",
"747 299 OFFCURVE",
"744 307 OFFCURVE",
"738 310 CURVE SMOOTH",
"684 332 OFFCURVE",
"570 351 OFFCURVE",
"448 351 CURVE SMOOTH",
"237 351 OFFCURVE",
"0 294 OFFCURVE",
"0 98 CURVE SMOOTH",
"0 3 OFFCURVE",
"106 -66 OFFCURVE",
"217 -66 CURVE SMOOTH"
);
}
);
width = 817;
}
);
unicode = 018F;
},
{
glyphname = T;
lastChange = "2021-11-06 01:37:33 +0000";
layers = (
{
background = {
paths = (
{
closed = 1;
nodes = (
"140 -75 OFFCURVE",
"146 -69 OFFCURVE",
"146 -56 CURVE SMOOTH",
"146 -51 LINE SMOOTH",
"146 -16 OFFCURVE",
"202 103 OFFCURVE",
"314 307 CURVE SMOOTH",
"415 487 LINE SMOOTH",
"448 546 OFFCURVE",
"468 585 OFFCURVE",
"476 606 CURVE",
"481 606 OFFCURVE",
"493 605 OFFCURVE",
"511 604 CURVE SMOOTH",
"525 603 OFFCURVE",
"536 602 OFFCURVE",
"545 602 CURVE",
"546 604 LINE",
"569 604 OFFCURVE",
"603 602 OFFCURVE",
"650 598 CURVE SMOOTH",
"696 594 OFFCURVE",
"731 592 OFFCURVE",
"754 592 CURVE SMOOTH",
"765 592 OFFCURVE",
"770 597 OFFCURVE",
"770 608 CURVE SMOOTH",
"770 619 OFFCURVE",
"765 624 OFFCURVE",
"754 624 CURVE SMOOTH",
"727 624 OFFCURVE",
"693 626 OFFCURVE",
"650 629 CURVE SMOOTH",
"595 633 OFFCURVE",
"561 635 OFFCURVE",
"546 636 CURVE SMOOTH",
"501 638 OFFCURVE",
"456 639 OFFCURVE",
"413 639 CURVE SMOOTH",
"261 639 OFFCURVE",
"157 618 OFFCURVE",
"102 577 CURVE SMOOTH",
"65 550 OFFCURVE",
"47 520 OFFCURVE",
"47 487 CURVE SMOOTH",
"47 475 OFFCURVE",
"54 469 OFFCURVE",
"67 469 CURVE SMOOTH",
"74 469 OFFCURVE",
"79 474 OFFCURVE",
"80 484 CURVE SMOOTH",
"87 512 OFFCURVE",
"100 534 OFFCURVE",
"120 550 CURVE SMOOTH",
"167 588 OFFCURVE",
"269 607 OFFCURVE",
"424 607 CURVE SMOOTH",
"442 607 LINE",
"442 606 LINE",
"253 265 LINE SMOOTH",
"160 94 OFFCURVE",
"113 -12 OFFCURVE",
"113 -55 CURVE SMOOTH",
"113 -68 OFFCURVE",
"118 -75 OFFCURVE",
"128 -75 CURVE SMOOTH"
);
}
);
};
layerId = "5D3CF454-A725-4551-B6FA-6F6FD8C18533";
paths = (
{
closed = 1;
nodes = (
"140 -75 OFFCURVE",
"146 -69 OFFCURVE",
"146 -56 CURVE SMOOTH",
"146 -51 LINE SMOOTH",
"146 -16 OFFCURVE",
"200 104 OFFCURVE",
"314 307 CURVE SMOOTH",
"415 487 LINE SMOOTH",
"448 546 OFFCURVE",
"468 585 OFFCURVE",
"476 606 CURVE",
"481 606 OFFCURVE",
"493 605 OFFCURVE",
"521 605 CURVE SMOOTH",
"551 605 OFFCURVE",
"583 604 OFFCURVE",
"650 598 CURVE SMOOTH",
"696 594 OFFCURVE",
"731 592 OFFCURVE",
"754 592 CURVE SMOOTH",
"765 592 OFFCURVE",
"770 597 OFFCURVE",
"770 608 CURVE SMOOTH",
"770 619 OFFCURVE",
"765 624 OFFCURVE",
"754 624 CURVE SMOOTH",
"727 624 OFFCURVE",
"693 626 OFFCURVE",
"650 629 CURVE SMOOTH",
"595 633 OFFCURVE",
"561 635 OFFCURVE",
"546 636 CURVE SMOOTH",
"501 638 OFFCURVE",
"456 639 OFFCURVE",
"413 639 CURVE SMOOTH",
"261 639 OFFCURVE",
"157 618 OFFCURVE",
"102 577 CURVE SMOOTH",
"65 550 OFFCURVE",
"47 520 OFFCURVE",
"47 487 CURVE SMOOTH",
"47 475 OFFCURVE",
"54 469 OFFCURVE",
"67 469 CURVE SMOOTH",
"74 469 OFFCURVE",
"79 474 OFFCURVE",
"80 484 CURVE SMOOTH",
"87 512 OFFCURVE",
"100 534 OFFCURVE",
"120 550 CURVE SMOOTH",
"167 588 OFFCURVE",
"269 607 OFFCURVE",
"424 607 CURVE SMOOTH",
"443 607 LINE",
"253 265 LINE SMOOTH",
"159 95 OFFCURVE",
"113 -12 OFFCURVE",
"113 -55 CURVE SMOOTH",
"113 -68 OFFCURVE",
"118 -75 OFFCURVE",
"130 -75 CURVE SMOOTH"
);
}
);
userData = {
assembly = "NPUSHB[ ]	/* 26 values pushed */\0121 47 47 64 48 22 32 28 27 24 8 2 1 43 39 38 22 10 1 0 14 41 1 1 10 70 \012SROUND[ ]	/* SuperRound */\012MDAP[1]	/* MoveDirectAbsPt */\012SHZ[1]	/* ShiftZoneByLastPoint */\012RTG[ ]	/* RoundToGrid */\012SVTCA[0]	/* SetFreedomAndProjectionVectorToAxis */\012MIAP[1]	/* MoveIndirectAbsPt */\012MDAP[1]	/* MoveDirectAbsPt */\012SVTCA[1]	/* SetFreedomAndProjectionVectorToAxis */\012MDAP[0]	/* MoveDirectAbsPt */\012MDAP[0]	/* MoveDirectAbsPt */\012MDAP[0]	/* MoveDirectAbsPt */\012MDAP[0]	/* MoveDirectAbsPt */\012MDAP[0]	/* MoveDirectAbsPt */\012MDAP[0]	/* MoveDirectAbsPt */\012MDAP[0]	/* MoveDirectAbsPt */\012SVTCA[0]	/* SetFreedomAndProjectionVectorToAxis */\012MDAP[0]	/* MoveDirectAbsPt */\012MDAP[0]	/* MoveDirectAbsPt */\012MDAP[0]	/* MoveDirectAbsPt */\012MDAP[0]	/* MoveDirectAbsPt */\012MDAP[0]	/* MoveDirectAbsPt */\012MDAP[0]	/* MoveDirectAbsPt */\012MDAP[0]	/* MoveDirectAbsPt */\012IUP[1]	/* InterpolateUntPts */\012IUP[0]	/* InterpolateUntPts */\012SVTCA[1]	/* SetFreedomAndProjectionVectorToAxis */\012MD[0]	/* MeasureDistance */\012ROUND[00]	/* Round */\012PUSHW[ ]	/* 2 values pushed */\01210 47 \012MD[0]	/* MeasureDistance */\012ROUND[00]	/* Round */\012SUB[ ]	/* Subtract */\012PUSHB[ ]	/* 1 value pushed */\01264 \012GT[ ]	/* GreaterThan */\012IF[ ]	/* If */\012SHPIX[ ]	/* ShiftZoneByPixel */\012SRP1[ ]	/* SetRefPoint1 */\012SHZ[1]	/* ShiftZoneByLastPoint */\012PUSHW[ ]	/* 2 values pushed */\01247 -64 \012SHPIX[ ]	/* ShiftZoneByPixel */\012EIF[ ]	/* EndIf */";
};
width = 436;
}
);
note = T;
unicode = 0054;
},
{
glyphname = U;
lastChange = "2021-11-06 01:40:43 +0000";
layers = (
{
background = {
paths = (
{
closed = 1;
nodes = (
"549 -114 OFFCURVE",
"556 -107 OFFCURVE",
"556 -92 CURVE SMOOTH",
"556 -86 OFFCURVE",
"553 -82 OFFCURVE",
"547 -80 CURVE",
"546 -81 OFFCURVE",
"543 -82 OFFCURVE",
"540 -83 CURVE",
"529 -83 OFFCURVE",
"523 -56 OFFCURVE",
"523 -1 CURVE SMOOTH",
"523 62 OFFCURVE",
"533 128 OFFCURVE",
"554 196 CURVE SMOOTH",
"573 259 OFFCURVE",
"586 295 OFFCURVE",
"592 306 CURVE",
"619 343 LINE SMOOTH",
"637 367 OFFCURVE",
"655 393 OFFCURVE",
"673 420 CURVE",
"673 421 LINE",
"718 496 OFFCURVE",
"740 547 OFFCURVE",
"740 572 CURVE SMOOTH",
"740 581 OFFCURVE",
"739 589 OFFCURVE",
"736 595 CURVE",
"736 594 LINE SMOOTH",
"736 601 OFFCURVE",
"732 604 OFFCURVE",
"725 604 CURVE SMOOTH",
"704 604 OFFCURVE",
"670 558 OFFCURVE",
"623 467 CURVE SMOOTH",
"612 446 OFFCURVE",
"598 413 OFFCURVE",
"580 369 CURVE SMOOTH",
"562 322 LINE",
"545 302 LINE SMOOTH",
"505 254 OFFCURVE",
"465 211 OFFCURVE",
"425 173 CURVE SMOOTH",
"368 118 OFFCURVE",
"326 80 OFFCURVE",
"301 60 CURVE SMOOTH",
"244 15 OFFCURVE",
"197 -10 OFFCURVE",
"158 -14 CURVE",
"156 -15 OFFCURVE",
"152 -15 OFFCURVE",
"147 -15 CURVE SMOOTH",
"93 -15 OFFCURVE",
"66 22 OFFCURVE",
"66 97 CURVE SMOOTH",
"66 144 OFFCURVE",
"77 199 OFFCURVE",
"98 261 CURVE SMOOTH",
"117 315 OFFCURVE",
"140 366 OFFCURVE",
"168 413 CURVE SMOOTH",
"211 486 OFFCURVE",
"251 534 OFFCURVE",
"286 558 CURVE SMOOTH",
"291 561 OFFCURVE",
"294 565 OFFCURVE",
"294 570 CURVE SMOOTH",
"294 583 OFFCURVE",
"286 589 OFFCURVE",
"269 589 CURVE SMOOTH",
"268 589 LINE",
"228 565 OFFCURVE",
"186 513 OFFCURVE",
"142 432 CURVE SMOOTH",
"69 298 OFFCURVE",
"33 183 OFFCURVE",
"33 88 CURVE SMOOTH",
"33 -2 OFFCURVE",
"70 -47 OFFCURVE",
"145 -47 CURVE SMOOTH",
"160 -47 LINE",
"160 -46 LINE",
"243 -39 OFFCURVE",
"367 55 OFFCURVE",
"533 238 CURVE",
"503 139 OFFCURVE",
"488 55 OFFCURVE",
"488 -12 CURVE SMOOTH",
"488 -80 OFFCURVE",
"503 -114 OFFCURVE",
"534 -114 CURVE SMOOTH"
);
}
);
};
layerId = "5D3CF454-A725-4551-B6FA-6F6FD8C18533";
paths = (
{
closed = 1;
nodes = (
"547 -114 OFFCURVE",
"556 -107 OFFCURVE",
"556 -93 CURVE SMOOTH",
"556 -86 OFFCURVE",
"552 -80 OFFCURVE",
"548 -80 CURVE SMOOTH",
"544 -80 OFFCURVE",
"544 -83 OFFCURVE",
"540 -83 CURVE SMOOTH",
"529 -83 OFFCURVE",
"523 -56 OFFCURVE",
"523 -1 CURVE SMOOTH",
"523 62 OFFCURVE",
"533 128 OFFCURVE",
"554 196 CURVE SMOOTH",
"573 259 OFFCURVE",
"586 295 OFFCURVE",
"592 306 CURVE",
"628 355 LINE SMOOTH",
"662 402 OFFCURVE",
"740 522 OFFCURVE",
"740 572 CURVE SMOOTH",
"740 589 OFFCURVE",
"736 604 OFFCURVE",
"725 604 CURVE SMOOTH",
"704 604 OFFCURVE",
"670 558 OFFCURVE",
"623 467 CURVE SMOOTH",
"612 446 OFFCURVE",
"597 413 OFFCURVE",
"580 369 CURVE SMOOTH",
"562 322 LINE",
"498 246 OFFCURVE",
"462 207 OFFCURVE",
"390 138 CURVE SMOOTH",
"319 70 OFFCURVE",
"222 -15 OFFCURVE",
"147 -15 CURVE SMOOTH",
"93 -15 OFFCURVE",
"66 22 OFFCURVE",
"66 97 CURVE SMOOTH",
"66 192 OFFCURVE",
"114 323 OFFCURVE",
"168 413 CURVE SMOOTH",
"211 486 OFFCURVE",
"251 534 OFFCURVE",
"286 558 CURVE SMOOTH",
"291 561 OFFCURVE",
"294 565 OFFCURVE",
"294 570 CURVE SMOOTH",
"294 583 OFFCURVE",
"285 589 OFFCURVE",
"273 589 CURVE SMOOTH",
"261 589 OFFCURVE",
"243 571 OFFCURVE",
"229 557 CURVE SMOOTH",
"201 529 OFFCURVE",
"172 487 OFFCURVE",
"142 432 CURVE SMOOTH",
"69 298 OFFCURVE",
"33 183 OFFCURVE",
"33 88 CURVE SMOOTH",
"33 -2 OFFCURVE",
"70 -47 OFFCURVE",
"145 -47 CURVE SMOOTH",
"232 -47 OFFCURVE",
"355 42 OFFCURVE",
"533 238 CURVE",
"503 139 OFFCURVE",
"488 55 OFFCURVE",
"488 -12 CURVE SMOOTH",
"488 -80 OFFCURVE",
"503 -114 OFFCURVE",
"534 -114 CURVE SMOOTH"
);
}
);
userData = {
assembly = "NPUSHB[ ]	/* 36 values pushed */\0121 67 67 64 68 42 65 57 55 40 39 21 9 8 65 63 59 53 45 44 42 40 39 19 11 4 1 0 37 61 2 1 1 1 4 70 \012SROUND[ ]	/* SuperRound */\012MDAP[1]	/* MoveDirectAbsPt */\012SHZ[1]	/* ShiftZoneByLastPoint */\012RTG[ ]	/* RoundToGrid */\012SVTCA[0]	/* SetFreedomAndProjectionVectorToAxis */\012MIAP[1]	/* MoveIndirectAbsPt */\012ALIGNRP[ ]	/* AlignRelativePt */\012MDAP[1]	/* MoveDirectAbsPt */\012MDAP[1]	/* MoveDirectAbsPt */\012SVTCA[1]	/* SetFreedomAndProjectionVectorToAxis */\012MDAP[0]	/* MoveDirectAbsPt */\012MDAP[0]	/* MoveDirectAbsPt */\012MDAP[0]	/* MoveDirectAbsPt */\012MDAP[0]	/* MoveDirectAbsPt */\012MDAP[0]	/* MoveDirectAbsPt */\012MDAP[0]	/* MoveDirectAbsPt */\012MDAP[0]	/* MoveDirectAbsPt */\012MDAP[0]	/* MoveDirectAbsPt */\012MDAP[0]	/* MoveDirectAbsPt */\012MDAP[0]	/* MoveDirectAbsPt */\012MDAP[0]	/* MoveDirectAbsPt */\012MDAP[0]	/* MoveDirectAbsPt */\012MDAP[0]	/* MoveDirectAbsPt */\012MDAP[0]	/* MoveDirectAbsPt */\012SVTCA[0]	/* SetFreedomAndProjectionVectorToAxis */\012MDAP[0]	/* MoveDirectAbsPt */\012MDAP[0]	/* MoveDirectAbsPt */\012MDAP[0]	/* MoveDirectAbsPt */\012MDAP[0]	/* MoveDirectAbsPt */\012MDAP[0]	/* MoveDirectAbsPt */\012MDAP[0]	/* MoveDirectAbsPt */\012MDAP[0]	/* MoveDirectAbsPt */\012MDAP[0]	/* MoveDirectAbsPt */\012IUP[1]	/* InterpolateUntPts */\012IUP[0]	/* InterpolateUntPts */\012SVTCA[1]	/* SetFreedomAndProjectionVectorToAxis */\012MD[0]	/* MeasureDistance */\012ROUND[00]	/* Round */\012PUSHW[ ]	/* 2 values pushed */\0124 67 \012MD[0]	/* MeasureDistance */\012ROUND[00]	/* Round */\012SUB[ ]	/* Subtract */\012PUSHB[ ]	/* 1 value pushed */\01264 \012GT[ ]	/* GreaterThan */\012IF[ ]	/* If */\012SHPIX[ ]	/* ShiftZoneByPixel */\012SRP1[ ]	/* SetRefPoint1 */\012SHZ[1]	/* ShiftZoneByLastPoint */\012PUSHW[ ]	/* 2 values pushed */\01267 -64 \012SHPIX[ ]	/* ShiftZoneByPixel */\012EIF[ ]	/* EndIf */";
};
width = 647;
}
);
note = U;
unicode = 0055;
},
{
glyphname = V;
lastChange = "2021-11-06 01:45:13 +0000";
layers = (
{
background = {
paths = (
{
closed = 1;
nodes = (
"104 -50 OFFCURVE",
"107 -49 OFFCURVE",
"108 -48 CURVE SMOOTH",
"126 -34 OFFCURVE",
"148 -11 OFFCURVE",
"174 21 CURVE SMOOTH",
"181 30 OFFCURVE",
"201 55 OFFCURVE",
"233 96 CURVE SMOOTH",
"334 226 OFFCURVE",
"396 306 OFFCURVE",
"421 336 CURVE SMOOTH",
"478 405 OFFCURVE",
"538 471 OFFCURVE",
"603 536 CURVE SMOOTH",
"704 637 OFFCURVE",
"773 688 OFFCURVE",
"808 688 CURVE",
"816 687 LINE",
"822 686 LINE SMOOTH",
"832 686 OFFCURVE",
"837 691 OFFCURVE",
"837 702 CURVE SMOOTH",
"837 710 OFFCURVE",
"833 716 OFFCURVE",
"826 719 CURVE",
"814 719 LINE SMOOTH",
"743 719 OFFCURVE",
"604 599 OFFCURVE",
"398 358 CURVE SMOOTH",
"321 263 OFFCURVE",
"263 192 OFFCURVE",
"226 143 CURVE SMOOTH",
"167 68 OFFCURVE",
"124 19 OFFCURVE",
"97 -2 CURVE",
"97 179 OFFCURVE",
"120 340 OFFCURVE",
"166 481 CURVE SMOOTH",
"183 529 OFFCURVE",
"196 565 OFFCURVE",
"205 589 CURVE",
"206 590 OFFCURVE",
"206 591 OFFCURVE",
"206 594 CURVE SMOOTH",
"206 607 OFFCURVE",
"200 613 OFFCURVE",
"187 613 CURVE SMOOTH",
"181 613 OFFCURVE",
"177 610 OFFCURVE",
"174 604 CURVE SMOOTH",
"155 554 LINE SMOOTH",
"128 477 OFFCURVE",
"105 389 OFFCURVE",
"88 289 CURVE SMOOTH",
"72 196 OFFCURVE",
"64 92 OFFCURVE",
"64 -22 CURVE SMOOTH",
"64 -34 OFFCURVE",
"88 -50 OFFCURVE",
"101 -50 CURVE SMOOTH"
);
}
);
};
layerId = "5D3CF454-A725-4551-B6FA-6F6FD8C18533";
paths = (
{
closed = 1;
nodes = (
"118 -50 OFFCURVE",
"168 13 OFFCURVE",
"233 96 CURVE SMOOTH",
"395 304 OFFCURVE",
"464 397 OFFCURVE",
"603 536 CURVE SMOOTH",
"704 637 OFFCURVE",
"773 688 OFFCURVE",
"808 688 CURVE",
"813 688 OFFCURVE",
"817 686 OFFCURVE",
"822 686 CURVE SMOOTH",
"832 686 OFFCURVE",
"837 691 OFFCURVE",
"837 702 CURVE SMOOTH",
"837 718 OFFCURVE",
"825 719 OFFCURVE",
"814 719 CURVE SMOOTH",
"768 719 OFFCURVE",
"692 668 OFFCURVE",
"587 564 CURVE SMOOTH",
"472 450 OFFCURVE",
"326 274 OFFCURVE",
"226 143 CURVE SMOOTH",
"168 67 OFFCURVE",
"124 19 OFFCURVE",
"97 -2 CURVE",
"97 179 OFFCURVE",
"120 340 OFFCURVE",
"166 481 CURVE SMOOTH",
"190 555 OFFCURVE",
"206 588 OFFCURVE",
"206 597 CURVE SMOOTH",
"206 607 OFFCURVE",
"200 613 OFFCURVE",
"187 613 CURVE SMOOTH",
"181 613 OFFCURVE",
"176 610 OFFCURVE",
"173 602 CURVE SMOOTH",
"155 554 LINE SMOOTH",
"126 478 OFFCURVE",
"105 389 OFFCURVE",
"88 289 CURVE SMOOTH",
"72 196 OFFCURVE",
"64 92 OFFCURVE",
"64 -22 CURVE SMOOTH",
"64 -34 OFFCURVE",
"88 -50 OFFCURVE",
"101 -50 CURVE SMOOTH"
);
}
);
userData = {
assembly = "NPUSHB[ ]	/* 21 values pushed */\0121 46 46 64 47 29 34 31 19 11 29 19 13 3 27 25 0 1 1 3 70 \012SROUND[ ]	/* SuperRound */\012MDAP[1]	/* MoveDirectAbsPt */\012SHZ[1]	/* ShiftZoneByLastPoint */\012RTG[ ]	/* RoundToGrid */\012SVTCA[0]	/* SetFreedomAndProjectionVectorToAxis */\012MIAP[1]	/* MoveIndirectAbsPt */\012MDAP[1]	/* MoveDirectAbsPt */\012ALIGNRP[ ]	/* AlignRelativePt */\012SVTCA[1]	/* SetFreedomAndProjectionVectorToAxis */\012MDAP[0]	/* MoveDirectAbsPt */\012MDAP[0]	/* MoveDirectAbsPt */\012MDAP[0]	/* MoveDirectAbsPt */\012MDAP[0]	/* MoveDirectAbsPt */\012SVTCA[0]	/* SetFreedomAndProjectionVectorToAxis */\012MDAP[0]	/* MoveDirectAbsPt */\012MDAP[0]	/* MoveDirectAbsPt */\012MDAP[0]	/* MoveDirectAbsPt */\012MDAP[0]	/* MoveDirectAbsPt */\012IUP[1]	/* InterpolateUntPts */\012IUP[0]	/* InterpolateUntPts */\012SVTCA[1]	/* SetFreedomAndProjectionVectorToAxis */\012MD[0]	/* MeasureDistance */\012ROUND[00]	/* Round */\012PUSHW[ ]	/* 2 values pushed */\0123 46 \012MD[0]	/* MeasureDistance */\012ROUND[00]	/* Round */\012SUB[ ]	/* Subtract */\012PUSHB[ ]	/* 1 value pushed */\01264 \012GT[ ]	/* GreaterThan */\012IF[ ]	/* If */\012SHPIX[ ]	/* ShiftZoneByPixel */\012SRP1[ ]	/* SetRefPoint1 */\012SHZ[1]	/* ShiftZoneByLastPoint */\012PUSHW[ ]	/* 2 values pushed */\01246 -64 \012SHPIX[ ]	/* ShiftZoneByPixel */\012EIF[ ]	/* EndIf */";
};
width = 499;
}
);
note = V;
unicode = 0056;
},
{
glyphname = W;
lastChange = "2021-11-06 01:51:57 +0000";
layers = (
{
background = {
paths = (
{
closed = 1;
nodes = (
"27 -84 OFFCURVE",
"30 -83 OFFCURVE",
"32 -82 CURVE SMOOTH",
"50 -69 OFFCURVE",
"100 -11 OFFCURVE",
"181 92 CURVE SMOOTH",
"212 133 OFFCURVE",
"262 198 OFFCURVE",
"330 288 CURVE SMOOTH",
"415 400 OFFCURVE",
"481 481 OFFCURVE",
"530 530 CURVE",
"475 371 OFFCURVE",
"448 187 OFFCURVE",
"448 -22 CURVE SMOOTH",
"448 -34 OFFCURVE",
"471 -50 OFFCURVE",
"484 -50 CURVE SMOOTH",
"486 -50 OFFCURVE",
"488 -49 OFFCURVE",
"491 -48 CURVE",
"509 -34 OFFCURVE",
"531 -11 OFFCURVE",
"557 20 CURVE SMOOTH",
"616 96 LINE",
"804 336 LINE SMOOTH",
"861 405 OFFCURVE",
"921 471 OFFCURVE",
"986 536 CURVE SMOOTH",
"1087 637 OFFCURVE",
"1156 688 OFFCURVE",
"1191 688 CURVE",
"1198 687 LINE",
"1204 686 LINE",
"1215 686 OFFCURVE",
"1220 691 OFFCURVE",
"1220 702 CURVE SMOOTH",
"1220 710 OFFCURVE",
"1216 716 OFFCURVE",
"1208 719 CURVE",
"1197 719 LINE SMOOTH",
"1148 719 OFFCURVE",
"1074 669 OFFCURVE",
"973 569 CURVE SMOOTH",
"929 526 OFFCURVE",
"865 456 OFFCURVE",
"781 358 CURVE SMOOTH",
"704 263 OFFCURVE",
"646 192 OFFCURVE",
"609 143 CURVE SMOOTH",
"550 68 OFFCURVE",
"507 19 OFFCURVE",
"480 -2 CURVE",
"480 178 OFFCURVE",
"503 340 OFFCURVE",
"550 484 CURVE SMOOTH",
"567 531 OFFCURVE",
"579 566 OFFCURVE",
"588 589 CURVE SMOOTH",
"589 590 OFFCURVE",
"589 593 OFFCURVE",
"589 597 CURVE SMOOTH",
"589 612 OFFCURVE",
"583 619 OFFCURVE",
"571 619 CURVE SMOOTH",
"556 619 OFFCURVE",
"548 606 OFFCURVE",
"540 595 CURVE",
"529 584 OFFCURVE",
"521 577 OFFCURVE",
"515 572 CURVE",
"478 535 OFFCURVE",
"438 487 OFFCURVE",
"395 428 CURVE SMOOTH",
"287 275 LINE SMOOTH",
"197 152 OFFCURVE",
"114 52 OFFCURVE",
"38 -23 CURVE",
"75 124 OFFCURVE",
"100 234 OFFCURVE",
"115 307 CURVE SMOOTH",
"128 365 OFFCURVE",
"134 426 OFFCURVE",
"134 490 CURVE SMOOTH",
"134 550 OFFCURVE",
"129 586 OFFCURVE",
"120 598 CURVE SMOOTH",
"109 613 OFFCURVE",
"98 620 OFFCURVE",
"89 620 CURVE SMOOTH",
"78 620 OFFCURVE",
"73 615 OFFCURVE",
"73 604 CURVE SMOOTH",
"73 599 OFFCURVE",
"76 593 OFFCURVE",
"82 586 CURVE SMOOTH",
"92 571 OFFCURVE",
"97 536 OFFCURVE",
"97 482 CURVE SMOOTH",
"97 421 OFFCURVE",
"91 365 OFFCURVE",
"80 312 CURVE SMOOTH",
"53 195 OFFCURVE",
"33 107 OFFCURVE",
"19 49 CURVE SMOOTH",
"3 -20 OFFCURVE",
"-5 -58 OFFCURVE",
"-5 -64 CURVE SMOOTH",
"-5 -77 OFFCURVE",
"4 -84 OFFCURVE",
"23 -84 CURVE SMOOTH"
);
}
);
};
layerId = "5D3CF454-A725-4551-B6FA-6F6FD8C18533";
paths = (
{
closed = 1;
nodes = (
"32 -84 OFFCURVE",
"37 -79 OFFCURVE",
"45 -70 CURVE SMOOTH",
"69 -46 OFFCURVE",
"115 8 OFFCURVE",
"181 92 CURVE SMOOTH",
"212 133 OFFCURVE",
"262 198 OFFCURVE",
"330 288 CURVE SMOOTH",
"415 400 OFFCURVE",
"481 481 OFFCURVE",
"530 530 CURVE",
"475 371 OFFCURVE",
"448 187 OFFCURVE",
"448 -22 CURVE SMOOTH",
"448 -34 OFFCURVE",
"471 -50 OFFCURVE",
"484 -50 CURVE SMOOTH",
"490 -50 OFFCURVE",
"499 -42 OFFCURVE",
"511 -30 CURVE SMOOTH",
"524 -17 OFFCURVE",
"554 15 OFFCURVE",
"606 82 CURVE SMOOTH",
"680 177 OFFCURVE",
"741 256 OFFCURVE",
"804 336 CURVE SMOOTH",
"854 400 OFFCURVE",
"921 471 OFFCURVE",
"986 536 CURVE SMOOTH",
"1087 637 OFFCURVE",
"1156 688 OFFCURVE",
"1191 688 CURVE SMOOTH",
"1196 688 OFFCURVE",
"1200 686 OFFCURVE",
"1206 686 CURVE SMOOTH",
"1213 686 OFFCURVE",
"1220 690 OFFCURVE",
"1220 701 CURVE SMOOTH",
"1220 715 OFFCURVE",
"1212 719 OFFCURVE",
"1197 719 CURVE SMOOTH",
"1148 719 OFFCURVE",
"1074 669 OFFCURVE",
"973 569 CURVE SMOOTH",
"929 526 OFFCURVE",
"865 456 OFFCURVE",
"781 358 CURVE SMOOTH",
"704 263 OFFCURVE",
"646 192 OFFCURVE",
"609 143 CURVE SMOOTH",
"550 68 OFFCURVE",
"507 19 OFFCURVE",
"480 -2 CURVE",
"480 178 OFFCURVE",
"503 340 OFFCURVE",
"550 484 CURVE SMOOTH",
"562 519 OFFCURVE",
"572 547 OFFCURVE",
"580 568 CURVE SMOOTH",
"585 583 OFFCURVE",
"590 588 OFFCURVE",
"590 599 CURVE SMOOTH",
"590 612 OFFCURVE",
"583 619 OFFCURVE",
"571 619 CURVE SMOOTH",
"556 619 OFFCURVE",
"548 606 OFFCURVE",
"540 595 CURVE",
"497 556 OFFCURVE",
"452 509 OFFCURVE",
"395 428 CURVE SMOOTH",
"287 275 LINE SMOOTH",
"199 150 OFFCURVE",
"114 52 OFFCURVE",
"38 -23 CURVE",
"75 124 OFFCURVE",
"100 234 OFFCURVE",
"115 307 CURVE SMOOTH",
"128 365 OFFCURVE",
"134 426 OFFCURVE",
"134 490 CURVE SMOOTH",
"134 550 OFFCURVE",
"128 586 OFFCURVE",
"120 598 CURVE SMOOTH",
"111 612 OFFCURVE",
"98 620 OFFCURVE",
"89 620 CURVE SMOOTH",
"79 620 OFFCURVE",
"73 614 OFFCURVE",
"73 604 CURVE SMOOTH",
"73 599 OFFCURVE",
"76 594 OFFCURVE",
"82 586 CURVE SMOOTH",
"95 568 OFFCURVE",
"97 536 OFFCURVE",
"97 482 CURVE SMOOTH",
"97 421 OFFCURVE",
"91 365 OFFCURVE",
"80 312 CURVE SMOOTH",
"53 195 OFFCURVE",
"33 107 OFFCURVE",
"19 49 CURVE SMOOTH",
"3 -20 OFFCURVE",
"-5 -58 OFFCURVE",
"-5 -64 CURVE SMOOTH",
"-5 -77 OFFCURVE",
"4 -84 OFFCURVE",
"23 -84 CURVE SMOOTH"
);
}
);
userData = {
assembly = "NPUSHB[ ]	/* 32 values pushed */\0121 83 83 64 84 12 75 64 56 17 14 0 77 64 60 54 50 44 34 32 12 0 10 8 42 34 3 29 1 1 44 70 \012SROUND[ ]	/* SuperRound */\012MDAP[1]	/* MoveDirectAbsPt */\012SHZ[1]	/* ShiftZoneByLastPoint */\012RTG[ ]	/* RoundToGrid */\012SVTCA[0]	/* SetFreedomAndProjectionVectorToAxis */\012MIAP[1]	/* MoveIndirectAbsPt */\012MIAP[1]	/* MoveIndirectAbsPt */\012MDAP[1]	/* MoveDirectAbsPt */\012MDAP[1]	/* MoveDirectAbsPt */\012ALIGNRP[ ]	/* AlignRelativePt */\012SVTCA[1]	/* SetFreedomAndProjectionVectorToAxis */\012MDAP[0]	/* MoveDirectAbsPt */\012MDAP[0]	/* MoveDirectAbsPt */\012MDAP[0]	/* MoveDirectAbsPt */\012MDAP[0]	/* MoveDirectAbsPt */\012MDAP[0]	/* MoveDirectAbsPt */\012MDAP[0]	/* MoveDirectAbsPt */\012MDAP[0]	/* MoveDirectAbsPt */\012MDAP[0]	/* MoveDirectAbsPt */\012MDAP[0]	/* MoveDirectAbsPt */\012MDAP[0]	/* MoveDirectAbsPt */\012SVTCA[0]	/* SetFreedomAndProjectionVectorToAxis */\012MDAP[0]	/* MoveDirectAbsPt */\012MDAP[0]	/* MoveDirectAbsPt */\012MDAP[0]	/* MoveDirectAbsPt */\012MDAP[0]	/* MoveDirectAbsPt */\012MDAP[0]	/* MoveDirectAbsPt */\012MDAP[0]	/* MoveDirectAbsPt */\012IUP[1]	/* InterpolateUntPts */\012IUP[0]	/* InterpolateUntPts */\012SVTCA[1]	/* SetFreedomAndProjectionVectorToAxis */\012MD[0]	/* MeasureDistance */\012ROUND[00]	/* Round */\012PUSHW[ ]	/* 2 values pushed */\01244 83 \012MD[0]	/* MeasureDistance */\012ROUND[00]	/* Round */\012SUB[ ]	/* Subtract */\012PUSHB[ ]	/* 1 value pushed */\01264 \012GT[ ]	/* GreaterThan */\012IF[ ]	/* If */\012SHPIX[ ]	/* ShiftZoneByPixel */\012SRP1[ ]	/* SetRefPoint1 */\012SHZ[1]	/* ShiftZoneByLastPoint */\012PUSHW[ ]	/* 2 values pushed */\01283 -64 \012SHPIX[ ]	/* ShiftZoneByPixel */\012EIF[ ]	/* EndIf */";
};
width = 856;
}
);
note = W;
unicode = 0057;
},
{
glyphname = X;
lastChange = "2021-11-06 02:00:16 +0000";
layers = (
{
background = {
paths = (
{
closed = 1;
nodes = (
"-21 -96 OFFCURVE",
"-18 -95 OFFCURVE",
"-16 -92 CURVE SMOOTH",
"-1 -74 OFFCURVE",
"9 -60 OFFCURVE",
"16 -50 CURVE SMOOTH",
"90 47 OFFCURVE",
"197 156 OFFCURVE",
"336 276 CURVE SMOOTH",
"351 289 OFFCURVE",
"366 301 OFFCURVE",
"382 313 CURVE",
"412 216 OFFCURVE",
"429 155 OFFCURVE",
"434 130 CURVE SMOOTH",
"446 63 OFFCURVE",
"452 2 OFFCURVE",
"452 -53 CURVE SMOOTH",
"452 -61 OFFCURVE",
"457 -65 OFFCURVE",
"466 -65 CURVE SMOOTH",
"479 -65 OFFCURVE",
"486 -59 OFFCURVE",
"486 -46 CURVE SMOOTH",
"486 61 OFFCURVE",
"461 190 OFFCURVE",
"412 341 CURVE",
"493 407 OFFCURVE",
"569 472 OFFCURVE",
"640 535 CURVE SMOOTH",
"737 622 LINE SMOOTH",
"740 625 OFFCURVE",
"742 629 OFFCURVE",
"742 632 CURVE SMOOTH",
"742 643 OFFCURVE",
"736 649 OFFCURVE",
"724 649 CURVE SMOOTH",
"721 649 OFFCURVE",
"717 648 OFFCURVE",
"714 646 CURVE",
"667 606 OFFCURVE",
"633 575 OFFCURVE",
"610 554 CURVE SMOOTH",
"400 374 LINE",
"391 404 OFFCURVE",
"384 426 OFFCURVE",
"379 440 CURVE",
"367 500 LINE SMOOTH",
"362 524 OFFCURVE",
"359 544 OFFCURVE",
"359 561 CURVE SMOOTH",
"360 579 LINE",
"361 596 LINE SMOOTH",
"361 611 OFFCURVE",
"354 618 OFFCURVE",
"340 618 CURVE SMOOTH",
"331 618 OFFCURVE",
"327 600 OFFCURVE",
"327 564 CURVE SMOOTH",
"327 507 OFFCURVE",
"341 435 OFFCURVE",
"370 349 CURVE",
"345 328 OFFCURVE",
"326 312 OFFCURVE",
"313 301 CURVE SMOOTH",
"162 171 OFFCURVE",
"44 47 OFFCURVE",
"-41 -70 CURVE",
"-43 -72 OFFCURVE",
"-44 -75 OFFCURVE",
"-44 -78 CURVE SMOOTH",
"-44 -90 OFFCURVE",
"-38 -96 OFFCURVE",
"-26 -96 CURVE SMOOTH"
);
}
);
};
layerId = "5D3CF454-A725-4551-B6FA-6F6FD8C18533";
paths = (
{
closed = 1;
nodes = (
"-19 -96 OFFCURVE",
"-16 -93 OFFCURVE",
"-10 -85 CURVE SMOOTH",
"-1 -74 OFFCURVE",
"9 -60 OFFCURVE",
"16 -50 CURVE SMOOTH",
"66 15 OFFCURVE",
"130 86 OFFCURVE",
"209 161 CURVE SMOOTH",
"255 205 OFFCURVE",
"341 282 OFFCURVE",
"382 313 CURVE",
"410 233 OFFCURVE",
"429 162 OFFCURVE",
"434 130 CURVE SMOOTH",
"444 63 OFFCURVE",
"452 2 OFFCURVE",
"452 -50 CURVE SMOOTH",
"452 -61 OFFCURVE",
"457 -65 OFFCURVE",
"466 -65 CURVE SMOOTH",
"479 -65 OFFCURVE",
"486 -59 OFFCURVE",
"486 -46 CURVE SMOOTH",
"486 61 OFFCURVE",
"461 190 OFFCURVE",
"412 341 CURVE",
"493 407 OFFCURVE",
"569 471 OFFCURVE",
"640 535 CURVE SMOOTH",
"729 615 LINE SMOOTH",
"739 624 OFFCURVE",
"742 628 OFFCURVE",
"742 633 CURVE SMOOTH",
"742 641 OFFCURVE",
"736 649 OFFCURVE",
"726 649 CURVE SMOOTH",
"719 649 OFFCURVE",
"712 644 OFFCURVE",
"699 633 CURVE SMOOTH",
"660 599 OFFCURVE",
"632 573 OFFCURVE",
"610 554 CURVE SMOOTH",
"400 374 LINE",
"382 425 OFFCURVE",
"359 512 OFFCURVE",
"359 561 CURVE SMOOTH",
"359 572 OFFCURVE",
"361 584 OFFCURVE",
"361 596 CURVE SMOOTH",
"361 611 OFFCURVE",
"354 618 OFFCURVE",
"342 618 CURVE SMOOTH",
"331 618 OFFCURVE",
"327 600 OFFCURVE",
"327 564 CURVE SMOOTH",
"327 507 OFFCURVE",
"341 435 OFFCURVE",
"370 349 CURVE",
"308 297 OFFCURVE",
"237 235 OFFCURVE",
"185 185 CURVE SMOOTH",
"94 97 OFFCURVE",
"19 13 OFFCURVE",
"-37 -64 CURVE SMOOTH",
"-43 -72 OFFCURVE",
"-44 -75 OFFCURVE",
"-44 -79 CURVE SMOOTH",
"-44 -89 OFFCURVE",
"-37 -96 OFFCURVE",
"-28 -96 CURVE SMOOTH"
);
}
);
userData = {
assembly = "NPUSHB[ ]	/* 24 values pushed */\0121 54 54 64 55 46 39 28 8 52 46 33 30 26 24 18 0 44 16 2 1 1 18 70 \012SROUND[ ]	/* SuperRound */\012MDAP[1]	/* MoveDirectAbsPt */\012SHZ[1]	/* ShiftZoneByLastPoint */\012RTG[ ]	/* RoundToGrid */\012SVTCA[0]	/* SetFreedomAndProjectionVectorToAxis */\012MIAP[1]	/* MoveIndirectAbsPt */\012MDAP[1]	/* MoveDirectAbsPt */\012MDAP[1]	/* MoveDirectAbsPt */\012SVTCA[1]	/* SetFreedomAndProjectionVectorToAxis */\012MDAP[0]	/* MoveDirectAbsPt */\012MDAP[0]	/* MoveDirectAbsPt */\012MDAP[0]	/* MoveDirectAbsPt */\012MDAP[0]	/* MoveDirectAbsPt */\012MDAP[0]	/* MoveDirectAbsPt */\012MDAP[0]	/* MoveDirectAbsPt */\012MDAP[0]	/* MoveDirectAbsPt */\012MDAP[0]	/* MoveDirectAbsPt */\012SVTCA[0]	/* SetFreedomAndProjectionVectorToAxis */\012MDAP[0]	/* MoveDirectAbsPt */\012MDAP[0]	/* MoveDirectAbsPt */\012MDAP[0]	/* MoveDirectAbsPt */\012IUP[1]	/* InterpolateUntPts */\012IUP[0]	/* InterpolateUntPts */\012SVTCA[1]	/* SetFreedomAndProjectionVectorToAxis */\012MD[0]	/* MeasureDistance */\012ROUND[00]	/* Round */\012PUSHW[ ]	/* 2 values pushed */\01218 54 \012MD[0]	/* MeasureDistance */\012ROUND[00]	/* Round */\012SUB[ ]	/* Subtract */\012PUSHB[ ]	/* 1 value pushed */\01264 \012GT[ ]	/* GreaterThan */\012IF[ ]	/* If */\012SHPIX[ ]	/* ShiftZoneByPixel */\012SRP1[ ]	/* SetRefPoint1 */\012SHZ[1]	/* ShiftZoneByLastPoint */\012PUSHW[ ]	/* 2 values pushed */\01254 -64 \012SHPIX[ ]	/* ShiftZoneByPixel */\012EIF[ ]	/* EndIf */";
};
width = 541;
}
);
note = X;
unicode = 0058;
},
{
glyphname = Y;
lastChange = "2021-11-06 02:03:06 +0000";
layers = (
{
background = {
paths = (
{
closed = 1;
nodes = (
"56 -44 OFFCURVE",
"60 -41 OFFCURVE",
"62 -35 CURVE SMOOTH",
"79 5 OFFCURVE",
"91 35 OFFCURVE",
"98 55 CURVE SMOOTH",
"124 120 OFFCURVE",
"148 180 OFFCURVE",
"169 236 CURVE",
"420 451 LINE SMOOTH",
"541 549 OFFCURVE",
"645 630 OFFCURVE",
"734 694 CURVE",
"733 692 LINE",
"737 695 OFFCURVE",
"739 699 OFFCURVE",
"739 703 CURVE SMOOTH",
"739 716 OFFCURVE",
"732 722 OFFCURVE",
"719 722 CURVE SMOOTH",
"717 722 OFFCURVE",
"714 721 OFFCURVE",
"710 720 CURVE",
"710 719 LINE",
"523 583 OFFCURVE",
"342 436 OFFCURVE",
"168 277 CURVE",
"144 426 LINE SMOOTH",
"132 485 OFFCURVE",
"114 555 OFFCURVE",
"91 636 CURVE",
"86 639 OFFCURVE",
"80 640 OFFCURVE",
"73 640 CURVE SMOOTH",
"66 640 OFFCURVE",
"62 638 OFFCURVE",
"62 633 CURVE SMOOTH",
"62 630 LINE SMOOTH",
"62 632 OFFCURVE",
"71 595 OFFCURVE",
"88 519 CURVE SMOOTH",
"98 475 OFFCURVE",
"105 442 OFFCURVE",
"109 420 CURVE",
"110 420 LINE",
"127 335 OFFCURVE",
"136 277 OFFCURVE",
"137 247 CURVE",
"65 67 OFFCURVE",
"29 -24 OFFCURVE",
"29 -26 CURVE SMOOTH",
"29 -38 OFFCURVE",
"36 -44 OFFCURVE",
"49 -44 CURVE SMOOTH"
);
}
);
};
layerId = "5D3CF454-A725-4551-B6FA-6F6FD8C18533";
paths = (
{
closed = 1;
nodes = (
"56 -44 OFFCURVE",
"60 -41 OFFCURVE",
"66 -27 CURVE SMOOTH",
"78 3 OFFCURVE",
"148 181 OFFCURVE",
"169 236 CURVE",
"253 308 OFFCURVE",
"338 383 OFFCURVE",
"428 458 CURVE SMOOTH",
"522 536 OFFCURVE",
"625 617 OFFCURVE",
"726 688 CURVE SMOOTH",
"735 694 OFFCURVE",
"739 698 OFFCURVE",
"739 704 CURVE SMOOTH",
"739 714 OFFCURVE",
"732 722 OFFCURVE",
"722 722 CURVE SMOOTH",
"712 722 OFFCURVE",
"707 717 OFFCURVE",
"700 712 CURVE SMOOTH",
"517 578 OFFCURVE",
"339 430 OFFCURVE",
"168 277 CURVE",
"160 327 OFFCURVE",
"152 382 OFFCURVE",
"142 433 CURVE SMOOTH",
"134 474 OFFCURVE",
"116 547 OFFCURVE",
"93 628 CURVE SMOOTH",
"90 637 OFFCURVE",
"90 640 OFFCURVE",
"73 640 CURVE SMOOTH",
"66 640 OFFCURVE",
"62 638 OFFCURVE",
"62 633 CURVE SMOOTH",
"62 628 OFFCURVE",
"75 577 OFFCURVE",
"88 519 CURVE SMOOTH",
"108 430 OFFCURVE",
"135 302 OFFCURVE",
"137 247 CURVE",
"86 118 OFFCURVE",
"53 36 OFFCURVE",
"38 -2 CURVE SMOOTH",
"34 -12 OFFCURVE",
"29 -22 OFFCURVE",
"29 -27 CURVE SMOOTH",
"29 -38 OFFCURVE",
"36 -44 OFFCURVE",
"49 -44 CURVE SMOOTH"
);
}
);
userData = {
assembly = "NPUSHB[ ]	/* 27 values pushed */\0121 40 40 64 41 21 24 23 14 8 1 0 38 36 24 23 21 17 16 6 5 19 34 1 1 36 70 \012SROUND[ ]	/* SuperRound */\012MDAP[1]	/* MoveDirectAbsPt */\012SHZ[1]	/* ShiftZoneByLastPoint */\012RTG[ ]	/* RoundToGrid */\012SVTCA[0]	/* SetFreedomAndProjectionVectorToAxis */\012MIAP[1]	/* MoveIndirectAbsPt */\012MDAP[1]	/* MoveDirectAbsPt */\012SVTCA[1]	/* SetFreedomAndProjectionVectorToAxis */\012MDAP[0]	/* MoveDirectAbsPt */\012MDAP[0]	/* MoveDirectAbsPt */\012MDAP[0]	/* MoveDirectAbsPt */\012MDAP[0]	/* MoveDirectAbsPt */\012MDAP[0]	/* MoveDirectAbsPt */\012MDAP[0]	/* MoveDirectAbsPt */\012MDAP[0]	/* MoveDirectAbsPt */\012MDAP[0]	/* MoveDirectAbsPt */\012MDAP[0]	/* MoveDirectAbsPt */\012SVTCA[0]	/* SetFreedomAndProjectionVectorToAxis */\012MDAP[0]	/* MoveDirectAbsPt */\012MDAP[0]	/* MoveDirectAbsPt */\012MDAP[0]	/* MoveDirectAbsPt */\012MDAP[0]	/* MoveDirectAbsPt */\012MDAP[0]	/* MoveDirectAbsPt */\012MDAP[0]	/* MoveDirectAbsPt */\012IUP[1]	/* InterpolateUntPts */\012IUP[0]	/* InterpolateUntPts */\012SVTCA[1]	/* SetFreedomAndProjectionVectorToAxis */\012MD[0]	/* MeasureDistance */\012ROUND[00]	/* Round */\012PUSHW[ ]	/* 2 values pushed */\01236 40 \012MD[0]	/* MeasureDistance */\012ROUND[00]	/* Round */\012SUB[ ]	/* Subtract */\012PUSHB[ ]	/* 1 value pushed */\01264 \012GT[ ]	/* GreaterThan */\012IF[ ]	/* If */\012SHPIX[ ]	/* ShiftZoneByPixel */\012SRP1[ ]	/* SetRefPoint1 */\012SHZ[1]	/* ShiftZoneByLastPoint */\012PUSHW[ ]	/* 2 values pushed */\01240 -64 \012SHPIX[ ]	/* ShiftZoneByPixel */\012EIF[ ]	/* EndIf */";
};
width = 370;
}
);
note = Y;
unicode = 0059;
},
{
glyphname = Z;
lastChange = "2021-11-06 02:05:19 +0000";
layers = (
{
background = {
paths = (
{
closed = 1;
nodes = (
"379 -22 OFFCURVE",
"453 -11 OFFCURVE",
"492 11 CURVE SMOOTH",
"497 14 OFFCURVE",
"499 17 OFFCURVE",
"499 21 CURVE SMOOTH",
"499 32 OFFCURVE",
"487 42 OFFCURVE",
"476 42 CURVE SMOOTH",
"456 42 OFFCURVE",
"422 37 OFFCURVE",
"373 27 CURVE SMOOTH",
"324 16 OFFCURVE",
"287 11 OFFCURVE",
"262 11 CURVE SMOOTH",
"201 11 OFFCURVE",
"129 19 OFFCURVE",
"48 34 CURVE",
"76 70 OFFCURVE",
"120 112 OFFCURVE",
"179 160 CURVE SMOOTH",
"198 175 OFFCURVE",
"247 212 OFFCURVE",
"325 270 CURVE SMOOTH",
"497 398 OFFCURVE",
"601 496 OFFCURVE",
"637 564 CURVE",
"636 565 LINE",
"636 590 OFFCURVE",
"598 595 OFFCURVE",
"557 595 CURVE SMOOTH",
"534 595 OFFCURVE",
"510 593 OFFCURVE",
"492 593 CURVE SMOOTH",
"481 593 OFFCURVE",
"453 592 OFFCURVE",
"409 590 CURVE SMOOTH",
"375 589 OFFCURVE",
"337 585 OFFCURVE",
"294 578 CURVE SMOOTH",
"263 573 OFFCURVE",
"247 571 OFFCURVE",
"245 570 CURVE SMOOTH",
"238 568 OFFCURVE",
"235 565 OFFCURVE",
"235 560 CURVE SMOOTH",
"235 545 OFFCURVE",
"243 538 OFFCURVE",
"258 538 CURVE SMOOTH",
"256 538 OFFCURVE",
"270 540 OFFCURVE",
"300 545 CURVE SMOOTH",
"357 554 OFFCURVE",
"396 558 OFFCURVE",
"419 558 CURVE SMOOTH",
"587 558 LINE",
"562 517 OFFCURVE",
"518 470 OFFCURVE",
"455 416 CURVE SMOOTH",
"422 389 OFFCURVE",
"371 348 OFFCURVE",
"300 295 CURVE SMOOTH",
"218 233 OFFCURVE",
"165 192 OFFCURVE",
"141 173 CURVE SMOOTH",
"76 118 OFFCURVE",
"30 71 OFFCURVE",
"4 31 CURVE",
"4 30 LINE",
"3 27 OFFCURVE",
"2 25 OFFCURVE",
"2 24 CURVE SMOOTH",
"2 13 OFFCURVE",
"9 7 OFFCURVE",
"23 4 CURVE SMOOTH",
"42 0 OFFCURVE",
"57 -2 OFFCURVE",
"67 -3 CURVE",
"148 -16 OFFCURVE",
"215 -22 OFFCURVE",
"270 -22 CURVE SMOOTH"
);
}
);
};
layerId = "5D3CF454-A725-4551-B6FA-6F6FD8C18533";
paths = (
{
closed = 1;
nodes = (
"379 -22 OFFCURVE",
"453 -11 OFFCURVE",
"486 8 CURVE SMOOTH",
"497 14 OFFCURVE",
"499 17 OFFCURVE",
"499 21 CURVE SMOOTH",
"499 32 OFFCURVE",
"487 42 OFFCURVE",
"476 42 CURVE SMOOTH",
"456 42 OFFCURVE",
"422 37 OFFCURVE",
"373 27 CURVE SMOOTH",
"324 16 OFFCURVE",
"287 11 OFFCURVE",
"262 11 CURVE SMOOTH",
"201 11 OFFCURVE",
"129 19 OFFCURVE",
"48 34 CURVE",
"76 70 OFFCURVE",
"120 112 OFFCURVE",
"179 160 CURVE SMOOTH",
"198 175 OFFCURVE",
"247 212 OFFCURVE",
"325 270 CURVE SMOOTH",
"464 374 OFFCURVE",
"558 459 OFFCURVE",
"599 510 CURVE SMOOTH",
"620 537 OFFCURVE",
"635 557 OFFCURVE",
"635 568 CURVE SMOOTH",
"634 586 OFFCURVE",
"611 595 OFFCURVE",
"557 595 CURVE SMOOTH",
"534 595 OFFCURVE",
"510 593 OFFCURVE",
"492 593 CURVE SMOOTH",
"481 593 OFFCURVE",
"453 592 OFFCURVE",
"409 590 CURVE SMOOTH",
"366 588 OFFCURVE",
"266 575 OFFCURVE",
"245 570 CURVE SMOOTH",
"238 568 OFFCURVE",
"235 565 OFFCURVE",
"235 558 CURVE SMOOTH",
"235 545 OFFCURVE",
"243 538 OFFCURVE",
"256 538 CURVE SMOOTH",
"264 538 OFFCURVE",
"275 541 OFFCURVE",
"300 545 CURVE SMOOTH",
"357 554 OFFCURVE",
"396 558 OFFCURVE",
"419 558 CURVE SMOOTH",
"589 558 LINE",
"564 517 OFFCURVE",
"518 470 OFFCURVE",
"455 416 CURVE SMOOTH",
"422 389 OFFCURVE",
"371 348 OFFCURVE",
"300 295 CURVE SMOOTH",
"223 237 OFFCURVE",
"152 183 OFFCURVE",
"108 144 CURVE SMOOTH",
"64 105 OFFCURVE",
"2 40 OFFCURVE",
"2 24 CURVE SMOOTH",
"2 13 OFFCURVE",
"9 7 OFFCURVE",
"23 4 CURVE SMOOTH",
"83 -8 OFFCURVE",
"204 -22 OFFCURVE",
"270 -22 CURVE SMOOTH"
);
}
);
userData = {
assembly = "NPUSHB[ ]	/* 24 values pushed */\0121 55 55 64 56 5 45 41 40 16 13 47 40 32 31 29 19 11 5 0 23 1 29 70 \012SROUND[ ]	/* SuperRound */\012MDAP[1]	/* MoveDirectAbsPt */\012SHZ[1]	/* ShiftZoneByLastPoint */\012RTG[ ]	/* RoundToGrid */\012SVTCA[0]	/* SetFreedomAndProjectionVectorToAxis */\012MDAP[1]	/* MoveDirectAbsPt */\012MDAP[1]	/* MoveDirectAbsPt */\012SVTCA[1]	/* SetFreedomAndProjectionVectorToAxis */\012MDAP[0]	/* MoveDirectAbsPt */\012MDAP[0]	/* MoveDirectAbsPt */\012MDAP[0]	/* MoveDirectAbsPt */\012MDAP[0]	/* MoveDirectAbsPt */\012MDAP[0]	/* MoveDirectAbsPt */\012MDAP[0]	/* MoveDirectAbsPt */\012MDAP[0]	/* MoveDirectAbsPt */\012MDAP[0]	/* MoveDirectAbsPt */\012SVTCA[0]	/* SetFreedomAndProjectionVectorToAxis */\012MDAP[0]	/* MoveDirectAbsPt */\012MDAP[0]	/* MoveDirectAbsPt */\012MDAP[0]	/* MoveDirectAbsPt */\012MDAP[0]	/* MoveDirectAbsPt */\012MDAP[0]	/* MoveDirectAbsPt */\012IUP[1]	/* InterpolateUntPts */\012IUP[0]	/* InterpolateUntPts */\012SVTCA[1]	/* SetFreedomAndProjectionVectorToAxis */\012MD[0]	/* MeasureDistance */\012ROUND[00]	/* Round */\012PUSHW[ ]	/* 2 values pushed */\01229 55 \012MD[0]	/* MeasureDistance */\012ROUND[00]	/* Round */\012SUB[ ]	/* Subtract */\012PUSHB[ ]	/* 1 value pushed */\01264 \012GT[ ]	/* GreaterThan */\012IF[ ]	/* If */\012SHPIX[ ]	/* ShiftZoneByPixel */\012SRP1[ ]	/* SetRefPoint1 */\012SHZ[1]	/* ShiftZoneByLastPoint */\012PUSHW[ ]	/* 2 values pushed */\01255 -64 \012SHPIX[ ]	/* ShiftZoneByPixel */\012EIF[ ]	/* EndIf */";
};
width = 545;
}
);
note = Z;
unicode = 005A;
},
{
glyphname = a;
lastChange = "2021-11-05 21:39:37 +0000";
layers = (
{
background = {
paths = (
{
closed = 1;
nodes = (
"104 -25 OFFCURVE",
"160 4 OFFCURVE",
"221 62 CURVE",
"218 54 OFFCURVE",
"216 43 OFFCURVE",
"216 29 CURVE SMOOTH",
"216 -6 OFFCURVE",
"232 -23 OFFCURVE",
"265 -23 CURVE SMOOTH",
"300 -23 OFFCURVE",
"344 -5 OFFCURVE",
"398 32 CURVE SMOOTH",
"440 61 OFFCURVE",
"460 78 OFFCURVE",
"509 127 CURVE",
"512 131 OFFCURVE",
"513 135 OFFCURVE",
"513 138 CURVE SMOOTH",
"513 149 OFFCURVE",
"507 154 OFFCURVE",
"496 154 CURVE SMOOTH",
"492 154 OFFCURVE",
"488 152 OFFCURVE",
"485 149 CURVE SMOOTH",
"421 88 OFFCURVE",
"364 45 OFFCURVE",
"313 22 CURVE SMOOTH",
"297 15 OFFCURVE",
"284 11 OFFCURVE",
"275 11 CURVE SMOOTH",
"258 11 OFFCURVE",
"250 20 OFFCURVE",
"250 37 CURVE SMOOTH",
"250 61 OFFCURVE",
"263 92 OFFCURVE",
"288 129 CURVE SMOOTH",
"313 166 OFFCURVE",
"326 185 OFFCURVE",
"326 186 CURVE SMOOTH",
"326 197 OFFCURVE",
"321 202 OFFCURVE",
"310 202 CURVE SMOOTH",
"305 202 OFFCURVE",
"301 200 OFFCURVE",
"298 197 CURVE SMOOTH",
"279 175 OFFCURVE",
"264 158 OFFCURVE",
"255 147 CURVE SMOOTH",
"195 74 OFFCURVE",
"138 29 OFFCURVE",
"84 12 CURVE SMOOTH",
"76 9 OFFCURVE",
"67 8 OFFCURVE",
"58 8 CURVE SMOOTH",
"38 8 OFFCURVE",
"28 17 OFFCURVE",
"28 35 CURVE SMOOTH",
"28 62 OFFCURVE",
"38 94 OFFCURVE",
"59 130 CURVE SMOOTH",
"76 160 OFFCURVE",
"96 187 OFFCURVE",
"119 211 CURVE SMOOTH",
"180 273 OFFCURVE",
"231 304 OFFCURVE",
"272 304 CURVE SMOOTH",
"297 304 OFFCURVE",
"310 295 OFFCURVE",
"310 276 CURVE SMOOTH",
"310 272 OFFCURVE",
"309 267 OFFCURVE",
"307 260 CURVE SMOOTH",
"304 253 OFFCURVE",
"303 248 OFFCURVE",
"303 245 CURVE SMOOTH",
"303 234 OFFCURVE",
"309 228 OFFCURVE",
"321 228 CURVE SMOOTH",
"334 228 OFFCURVE",
"341 242 OFFCURVE",
"341 269 CURVE SMOOTH",
"341 311 OFFCURVE",
"320 332 OFFCURVE",
"277 332 CURVE SMOOTH",
"157 332 OFFCURVE",
"-6 151 OFFCURVE",
"-6 30 CURVE SMOOTH",
"-6 -7 OFFCURVE",
"13 -25 OFFCURVE",
"52 -25 CURVE SMOOTH"
);
}
);
};
layerId = "5D3CF454-A725-4551-B6FA-6F6FD8C18533";
paths = (
{
closed = 1;
nodes = (
"104 -25 OFFCURVE",
"160 4 OFFCURVE",
"221 62 CURVE",
"218 54 OFFCURVE",
"216 43 OFFCURVE",
"216 29 CURVE SMOOTH",
"216 -6 OFFCURVE",
"232 -23 OFFCURVE",
"265 -23 CURVE SMOOTH",
"300 -23 OFFCURVE",
"344 -5 OFFCURVE",
"398 32 CURVE SMOOTH",
"440 61 OFFCURVE",
"460 78 OFFCURVE",
"509 127 CURVE",
"512 131 OFFCURVE",
"513 135 OFFCURVE",
"513 138 CURVE SMOOTH",
"513 149 OFFCURVE",
"507 154 OFFCURVE",
"496 154 CURVE SMOOTH",
"492 154 OFFCURVE",
"488 152 OFFCURVE",
"485 149 CURVE SMOOTH",
"421 88 OFFCURVE",
"364 45 OFFCURVE",
"322 26 CURVE SMOOTH",
"297 15 OFFCURVE",
"284 11 OFFCURVE",
"275 11 CURVE SMOOTH",
"258 11 OFFCURVE",
"250 20 OFFCURVE",
"250 37 CURVE SMOOTH",
"250 61 OFFCURVE",
"263 92 OFFCURVE",
"288 129 CURVE SMOOTH",
"313 166 OFFCURVE",
"324 183 OFFCURVE",
"326 186 CURVE",
"326 196 OFFCURVE",
"321 202 OFFCURVE",
"310 202 CURVE SMOOTH",
"305 202 OFFCURVE",
"301 200 OFFCURVE",
"298 197 CURVE SMOOTH",
"279 175 OFFCURVE",
"264 158 OFFCURVE",
"255 147 CURVE SMOOTH",
"224 109 OFFCURVE",
"194 79 OFFCURVE",
"165 57 CURVE SMOOTH",
"136 34 OFFCURVE",
"93 8 OFFCURVE",
"58 8 CURVE SMOOTH",
"38 8 OFFCURVE",
"28 17 OFFCURVE",
"28 35 CURVE SMOOTH",
"28 90 OFFCURVE",
"74 164 OFFCURVE",
"119 211 CURVE SMOOTH",
"180 273 OFFCURVE",
"231 304 OFFCURVE",
"272 304 CURVE SMOOTH",
"297 304 OFFCURVE",
"310 295 OFFCURVE",
"310 276 CURVE SMOOTH",
"310 264 OFFCURVE",
"303 254 OFFCURVE",
"303 245 CURVE SMOOTH",
"303 234 OFFCURVE",
"309 228 OFFCURVE",
"321 228 CURVE SMOOTH",
"334 228 OFFCURVE",
"341 242 OFFCURVE",
"341 269 CURVE SMOOTH",
"341 309 OFFCURVE",
"318 332 OFFCURVE",
"277 332 CURVE SMOOTH",
"157 332 OFFCURVE",
"-6 151 OFFCURVE",
"-6 30 CURVE SMOOTH",
"-6 -7 OFFCURVE",
"13 -25 OFFCURVE",
"52 -25 CURVE SMOOTH"
);
}
);
userData = {
assembly = "NPUSHB[ ]	/* 34 values pushed */\0121 60 60 64 61 58 56 50 43 35 27 20 9 1 0 58 48 45 33 25 22 18 13 9 7 1 0 5 11 16 2 1 13 70 \012SROUND[ ]	/* SuperRound */\012MDAP[1]	/* MoveDirectAbsPt */\012SHZ[1]	/* ShiftZoneByLastPoint */\012RTG[ ]	/* RoundToGrid */\012SVTCA[0]	/* SetFreedomAndProjectionVectorToAxis */\012MIAP[1]	/* MoveIndirectAbsPt */\012MDAP[1]	/* MoveDirectAbsPt */\012ALIGNRP[ ]	/* AlignRelativePt */\012SVTCA[1]	/* SetFreedomAndProjectionVectorToAxis */\012MDAP[0]	/* MoveDirectAbsPt */\012MDAP[0]	/* MoveDirectAbsPt */\012MDAP[0]	/* MoveDirectAbsPt */\012MDAP[0]	/* MoveDirectAbsPt */\012MDAP[0]	/* MoveDirectAbsPt */\012MDAP[0]	/* MoveDirectAbsPt */\012MDAP[0]	/* MoveDirectAbsPt */\012MDAP[0]	/* MoveDirectAbsPt */\012MDAP[0]	/* MoveDirectAbsPt */\012MDAP[0]	/* MoveDirectAbsPt */\012MDAP[0]	/* MoveDirectAbsPt */\012MDAP[0]	/* MoveDirectAbsPt */\012SVTCA[0]	/* SetFreedomAndProjectionVectorToAxis */\012MDAP[0]	/* MoveDirectAbsPt */\012MDAP[0]	/* MoveDirectAbsPt */\012MDAP[0]	/* MoveDirectAbsPt */\012MDAP[0]	/* MoveDirectAbsPt */\012MDAP[0]	/* MoveDirectAbsPt */\012MDAP[0]	/* MoveDirectAbsPt */\012MDAP[0]	/* MoveDirectAbsPt */\012MDAP[0]	/* MoveDirectAbsPt */\012MDAP[0]	/* MoveDirectAbsPt */\012IUP[1]	/* InterpolateUntPts */\012IUP[0]	/* InterpolateUntPts */\012SVTCA[1]	/* SetFreedomAndProjectionVectorToAxis */\012MD[0]	/* MeasureDistance */\012ROUND[00]	/* Round */\012PUSHW[ ]	/* 2 values pushed */\01213 60 \012MD[0]	/* MeasureDistance */\012ROUND[00]	/* Round */\012SUB[ ]	/* Subtract */\012PUSHB[ ]	/* 1 value pushed */\01264 \012GT[ ]	/* GreaterThan */\012IF[ ]	/* If */\012SHPIX[ ]	/* ShiftZoneByPixel */\012SRP1[ ]	/* SetRefPoint1 */\012SHZ[1]	/* ShiftZoneByLastPoint */\012PUSHW[ ]	/* 2 values pushed */\01260 -64 \012SHPIX[ ]	/* ShiftZoneByPixel */\012EIF[ ]	/* EndIf */";
};
width = 467;
}
);
note = a;
unicode = 0061;
},
